<svg width="110" height="144" xmlns="http://www.w3.org/2000/svg"><defs><linearGradient x1="50%" y1="0%" x2="50%" y2="100%" id="a"><stop stop-color="#B5C475" offset="0%"/><stop stop-color="#76A25F" offset="100%"/></linearGradient><linearGradient x1="50%" y1="0%" x2="50%" y2="100%" id="b"><stop stop-color="#B2C274" offset="0%"/><stop stop-color="#6C9D5C" offset="100%"/></linearGradient><linearGradient x1="50%" y1="0%" x2="50%" y2="100%" id="c"><stop stop-color="#8FB067" offset="0%"/><stop stop-color="#5E9657" offset="100%"/></linearGradient></defs><g fill="none" fill-rule="evenodd"><path d="m5.966 19 .805.292c8.421 3.064 14.303 5.711 17.647 7.942C38.39 36.556 46.345 48.107 49.824 57.79 52.45 65.1 55.026 75.912 55 84.677c-.045 15.102-5.416 28.35-14.266 37.6C31.411 132.02 17.833 139.262 0 144c10.403-7.162 19.008-15.847 25.813-26.055l.23-.344c3.983-6.03 7.41-13.299 8.403-22.921 1.566-15.167-1.366-33.903-5.893-45.476C23.62 36.594 16.09 26.526 5.966 19Z" fill="url(#a)"/><path d="M32.697 0c7.928 4.903 16.212 12.772 24.854 23.61 12.962 16.254 23.278 40.524 25.243 61.473 1.964 20.949-10.502 39.642-20.415 46.08C52.465 137.6 38.609 141.2 26 139.636c5.982-2.405 15.286-10.407 21.977-16.924 3.862-3.762 9.305-12.54 11.986-24.647 1.963-8.867 1.87-20.835 1.471-27.339-.945-15.384-8.495-38.758-15.179-51.146C41.8 11.32 37.28 4.794 32.697 0Z" fill="url(#b)"/><path d="M85.803 28c6.905 7.215 12.63 15.553 17.178 25.016 6.82 14.193 9.254 33.432 4.678 48.73-4.576 15.298-14.094 25.296-24.689 30.684-7.063 3.592-15.053 5.782-23.97 6.57 6.657-4.02 12.195-8.995 16.614-14.929 6.627-8.9 14.507-21.74 16.423-45.778 1.278-16.025-.8-32.79-6.234-50.293Z" fill="url(#c)"/></g></svg>