<svg width="153" height="40" viewBox="0 0 153 40" fill="none" xmlns="http://www.w3.org/2000/svg">
<path d="M48.0306 10.1114H51.7151L49.8819 4.43648L48.0306 10.1114ZM48.0502 0.709978H51.7544L57.1543 15.6239H53.4894L52.6226 12.9709H47.1049L46.2578 15.6239H42.6715L48.0502 0.709978Z" fill="#00997B"/>
<path d="M67.3259 15.6239V3.8154H61.8475V15.6239H58.4771V0.709978H70.6948V15.6239H67.3259Z" fill="#00997B"/>
<path d="M76.7864 3.7949H72.214V0.709978H84.767V3.7949H80.1749V15.6239H76.7864V3.7949Z" fill="#00997B"/>
<path d="M86.286 0.709978H97.2429V3.7949H89.6565V6.4085H96.8292V9.51392H89.6565V12.5185H97.2429V15.6239H86.286V0.709978Z" fill="#00997B"/>
<path d="M102.86 8.40417H102.841V15.6239H99.4718V0.709978H102.841V7.6018H102.86L107.67 0.709978H111.57L106.407 7.68377L111.788 15.6239H107.768L102.86 8.40417Z" fill="#00997B"/>
<path d="M113.819 0.709978H117.071V10.3778L123.14 0.709978H126.391V15.6239H123.14V5.95609L117.071 15.6239H113.819V0.709978Z" fill="#00997B"/>
<path d="M54.2203 24.5317H47.4598V36.3607H44.0909V21.4468H54.2203V24.5317Z" fill="#00997B"/>
<path d="M61.689 33.7276C63.803 33.7276 65.532 32.0819 65.532 28.915C65.532 25.7481 63.7985 24.0992 61.689 24.0992C59.5794 24.0992 57.8459 25.7465 57.8459 28.915C57.8459 32.0834 59.5794 33.7276 61.6874 33.7276H61.689ZM61.6874 36.6296C57.2932 36.6296 54.2792 33.5636 54.2792 28.915C54.2792 24.2663 57.2993 21.2003 61.6874 21.2003C66.0756 21.2003 69.0972 24.2647 69.0972 28.915C69.0972 33.5652 66.062 36.6296 61.6874 36.6296Z" fill="#00997B"/>
<path d="M74.3235 24.4135V28.2393H76.5508C78.1258 28.2393 79.3685 27.8688 79.3685 26.3067C79.3685 24.7445 78.1258 24.4151 76.5508 24.4151L74.3235 24.4135ZM76.4511 21.4515C80.1568 21.4515 82.9353 22.3973 82.9353 26.3067C82.9353 30.216 80.1568 31.1934 76.4511 31.1934H74.3235V36.3575H70.9531V21.4468L76.4511 21.4515Z" fill="#00997B"/>
<path d="M95.6075 31.917C95.6075 35.2699 92.7898 36.6272 90.2076 36.6272C86.0308 36.6272 84.1387 34.3856 83.882 31.2581H87.1936C87.3446 32.9038 88.3759 33.6652 89.892 33.6652C91.3311 33.6652 92.0408 32.9669 92.0408 31.7326C92.0408 30.6622 91.3115 30.0238 89.8724 30.0238H88.1781V27.4087H89.6882C90.9687 27.4087 91.8958 26.8128 91.8958 25.8039C91.8958 24.6106 90.9294 24.0967 89.8845 24.0967C88.4469 24.0967 87.2645 24.9401 87.2056 26.4219H83.9017C84.2173 23.4583 86.286 21.1962 90.0113 21.1962C93.0858 21.1962 95.233 22.719 95.233 25.249C95.233 26.8948 94.543 27.7381 93.341 28.4159C94.8389 29.0339 95.606 29.9592 95.606 31.9139" fill="#00997B"/>
<path d="M106.586 33.2539V24.5524H102.742L102.605 27.6184C102.466 30.1895 102.072 32.0322 101.186 33.2539H106.586ZM96.503 39.3434V33.2539H97.3109C98.987 33.2539 99.1833 30.7444 99.3404 26.671L99.5382 21.4454H109.957V33.2539H111.828V39.3434H108.657V36.3609H99.6741V39.3434H96.503Z" fill="#00997B"/>
<path d="M117.209 24.4135V28.2393H119.436C121.013 28.2393 122.254 27.8688 122.254 26.3067C122.254 24.7445 121.013 24.4151 119.436 24.4151L117.209 24.4135ZM119.338 21.4515C123.042 21.4515 125.82 22.3973 125.82 26.3067C125.82 30.216 123.042 31.1934 119.338 31.1934H117.209V36.3575H113.84V21.4468L119.338 21.4515Z" fill="#00997B"/>
<path d="M129.645 30.8468H133.33L131.498 25.1719L129.645 30.8468ZM129.665 21.4454H133.369L138.769 36.3609H135.104L134.237 33.7142H128.72L127.873 36.3688H124.288L129.665 21.4454Z" fill="#00997B"/>
<path d="M143.465 33.3994H146.618C148.057 33.3994 148.787 32.7688 148.787 31.7127C148.787 30.6565 148.057 30.026 146.618 30.026H143.465V33.3994ZM143.465 27.4092H146.442C147.624 27.4092 148.273 26.8118 148.273 25.8865C148.273 24.9612 147.624 24.4063 146.442 24.4063H143.465V27.4092ZM140.096 21.4427H146.322C149.457 21.4427 151.781 22.1836 151.781 25.3111C151.781 26.6888 151.191 27.6977 150.087 28.4165C151.426 28.9115 152.352 29.9598 152.352 31.771C152.352 35.1239 150.046 36.3582 146.578 36.3582H140.092L140.096 21.4427Z" fill="#00997B"/>
<path d="M23.805 11.5699V0.587402H10.5332V11.5699H0.0112305V25.426H10.5332V36.4101H23.805V25.426H34.327V11.5699H23.805ZM12.1067 30.4987V23.7204H1.44275V13.2818H12.1067V6.50346L23.4969 18.5042L12.1067 30.4987Z" fill="#00997B"/>
</svg>
