<svg width="206" height="49" viewBox="0 0 206 49" fill="none" xmlns="http://www.w3.org/2000/svg">
<path fill-rule="evenodd" clip-rule="evenodd" d="M2.95552 19.9271L6.77853 17.5962L18.2539 14.1399L32.7916 12.0297L50.4634 12.0947L65.9887 15.0318L78.0172 19.9271L74.614 27.7599L70.9772 36.3381L68.7395 36.0119L57.7367 32.2821L40.5796 31.1632L29.1171 31.6304L16.8023 34.2404L9.90227 36.1518L8.78323 35.4991L3.37505 23.2841L2.20947 20.7664L2.95552 19.9271Z" fill="white"/>
<path fill-rule="evenodd" clip-rule="evenodd" d="M43.1991 3.46503C46.041 1.57486 49.3751 0.490067 52.7575 0.13097C59.452 -0.578629 67.3408 1.56568 71.3818 7.29921C73.0214 9.62946 73.8313 12.3122 73.8313 15.158V15.1626C75.3262 15.75 76.8001 16.3857 78.2483 17.0672C80.2006 17.9836 80.9168 20.1481 80.0603 22.0958L73.6937 36.5686C72.7819 38.6385 70.5273 39.3871 68.5013 38.4753C66.0627 37.3788 63.4602 36.4904 60.7756 35.7808C55.9814 39.3043 50.727 42.3434 45.6839 45.4823L45.663 45.4933L45.6422 45.5071C41.7969 47.7779 38.5987 47.9111 34.7437 45.6017L34.73 45.5926L34.7143 45.5835C29.6322 42.4171 24.3314 39.3545 19.4959 35.8037C16.8728 36.4904 14.3265 37.335 11.9199 38.3597L11.8714 38.3806L11.8233 38.3989C9.49304 39.3153 7.26852 38.408 6.26013 36.115L0.390802 22.7753C-0.645772 20.4196 0.457309 17.7095 2.78297 16.6574C3.9755 16.1182 5.18432 15.6096 6.40503 15.1305C6.41221 12.2957 7.22011 9.62287 8.85531 7.29921C12.8938 1.56568 20.7831 -0.578629 27.4789 0.13097C31.046 0.510944 34.5439 1.6943 37.4609 3.75762C39.9641 5.41802 40.1991 5.48014 43.1991 3.46503Z" fill="white"/>
<path fill-rule="evenodd" clip-rule="evenodd" d="M14.0064 20.8571V28.5226C13.9256 28.4697 13.8472 28.4052 13.7688 28.3294C13.6241 28.1892 13.4857 28.0232 13.3525 27.8367C13.2186 27.6525 13.0946 27.4613 12.9772 27.2634C12.8615 27.0696 12.7487 26.8831 12.6384 26.7035C12.5281 26.524 12.4171 26.3655 12.3093 26.2296C12.1985 26.0913 12.09 25.9901 11.9823 25.9208C11.8715 25.8542 11.7632 25.8353 11.6509 25.8653C11.6207 25.8745 11.5862 25.8981 11.5516 25.9326C11.5144 25.9665 11.4823 26.0103 11.455 26.0612C11.4268 26.1121 11.4112 26.1669 11.4067 26.225C11.395 26.4065 11.395 26.5813 11.4067 26.7545C11.4156 26.9246 11.4341 27.1024 11.4569 27.2819C11.4778 27.4631 11.5032 27.6617 11.5287 27.8713C11.5633 28.1591 11.5882 28.4078 11.6025 28.6192C11.6137 28.8315 11.6045 29.0108 11.5679 29.1602C11.5335 29.3078 11.4596 29.4324 11.342 29.531C11.2291 29.6329 11.0607 29.7133 10.8374 29.7752C10.6077 29.8425 10.421 29.8608 10.2781 29.8308C10.1352 29.8032 10.0222 29.734 9.94189 29.6237C9.86181 29.5154 9.79699 29.3751 9.74877 29.1996C9.74166 29.1813 9.7279 29.0845 9.70043 28.9118C9.67238 28.7412 9.63592 28.5116 9.59417 28.2212C9.55022 27.9332 9.5 27.6042 9.44707 27.2356C9.39375 26.8673 9.33622 26.4756 9.2787 26.0658C9.22131 25.6539 9.16579 25.2393 9.10846 24.8203C9.05294 24.4033 9.0002 24.0006 8.95186 23.6161C8.90345 23.229 8.86169 22.8745 8.82763 22.5542C8.80876 22.3792 8.82763 22.2297 8.88516 22.1049C8.9399 21.9829 9.01836 21.8818 9.12022 21.8016C9.22131 21.7186 9.32963 21.6539 9.44907 21.6029C9.5667 21.5574 9.67697 21.5156 9.78342 21.4883C9.84721 21.4674 9.92832 21.4465 10.0222 21.4262C10.1194 21.4025 10.2226 21.389 10.3354 21.3844C10.4485 21.3752 10.5613 21.3844 10.6744 21.4119C10.7663 21.4373 10.8513 21.481 10.9275 21.541C11.0058 21.6029 11.075 21.6678 11.1326 21.7343C11.1899 21.8016 11.2317 21.8589 11.2612 21.9047C11.3303 22.0112 11.4087 22.1286 11.494 22.2572C11.579 22.3863 11.6665 22.5221 11.7541 22.6605C11.8412 22.8028 11.9242 22.9386 12.0052 23.0749C12.0744 23.1872 12.1547 23.3209 12.2449 23.4731C12.3368 23.6252 12.4333 23.7819 12.5391 23.9431C12.6455 24.1038 12.7604 24.2538 12.8798 24.3916C12.9998 24.5299 13.1267 24.6448 13.2604 24.733C13.2761 24.7421 13.2988 24.7531 13.3335 24.7668C13.3661 24.7831 13.4028 24.795 13.4445 24.804C13.4857 24.8106 13.5275 24.8106 13.5685 24.7994C13.6077 24.7859 13.6449 24.7668 13.6722 24.7375C13.7023 24.7095 13.7251 24.6792 13.7433 24.6499C13.7624 24.62 13.7761 24.5992 13.7827 24.5827C13.85 24.4378 13.8956 24.2747 13.9236 24.0926C13.9531 23.9105 13.9692 23.7238 13.974 23.5332C13.9786 23.3394 13.9786 23.1553 13.972 22.9778C13.9646 22.8028 13.96 22.6462 13.9575 22.513C13.9575 22.3563 13.9575 22.1951 13.96 22.0293C13.9621 21.8637 13.9646 21.7023 13.9646 21.5482C13.9674 21.3963 13.9692 21.2558 13.9692 21.1292C13.974 21.0739 13.983 21 13.9947 20.9125C13.9994 20.8943 14.0013 20.876 14.0064 20.8571ZM46.2114 4.1493C48.638 2.94967 51.36 2.2908 54.0956 2.1459C56.9348 1.99382 59.7898 2.39014 62.3531 3.2948C65.5032 4.40912 68.2087 6.28831 69.8988 8.86714C71.073 10.6564 71.7596 12.7816 71.7596 15.2201C71.7596 15.4598 71.7524 15.6972 71.7433 15.9317L71.6986 16.4011C73.6526 17.1257 75.5694 17.9285 77.4376 18.8127C78.4833 19.3029 78.7848 20.3941 78.3383 21.4073L71.971 35.882C71.5958 36.792 70.7622 37.1738 69.8988 37.0406V35.6313C70.2375 35.7645 70.5572 35.7301 70.7093 35.3481L77.0851 20.8571C77.2214 20.549 77.2326 20.2285 76.8572 20.0516C74.6564 19.0105 72.3307 18.0621 69.8988 17.2121C67.4855 16.367 64.964 15.6235 62.3531 14.9878C59.6887 14.3409 56.9323 13.8045 54.0956 13.3898C51.5285 13.0165 48.8959 12.7424 46.2114 12.5766C44.2008 12.4526 42.163 12.3879 40.0999 12.3859H40.0586C38.5065 12.3859 36.9686 12.4225 35.4485 12.4936C34.2331 12.5491 33.0309 12.6275 31.8382 12.7269C28.9296 12.9683 26.0903 13.3371 23.332 13.8226C20.1016 14.3911 16.9856 15.1215 14.0064 15.9962C10.4994 17.0255 7.18352 18.2552 4.1001 19.6618C3.31482 20.0143 2.96509 20.846 3.31281 21.4975L9.19843 34.8756C9.44707 35.4467 9.77353 35.783 10.6306 35.4513C11.7011 34.9912 12.8269 34.5557 14.0064 34.1485V35.5942C13.0411 35.9423 12.0946 36.3129 11.1692 36.7091L11.1461 36.7202L11.1234 36.7293C9.70043 37.2797 8.54183 36.8011 7.94527 35.4265L2.07595 22.0868C1.36182 20.671 2.13347 19.045 3.5336 18.4166C5.15755 17.6755 6.81485 16.9947 8.49891 16.3721L8.45445 15.9042C8.44527 15.6784 8.44068 15.4504 8.44068 15.2201C8.44068 10.8108 10.6764 7.42125 14.0064 5.19434C16.6219 3.44688 19.9149 2.41483 23.332 2.17084C26.1869 1.96854 29.13 2.31394 31.8382 3.25104C33.1046 3.69093 34.318 4.25756 35.4485 4.95998C36.5196 5.62505 37.5144 6.41027 38.4028 7.31758C39.0111 7.89798 39.5105 8.29605 40.0999 8.28034C40.5744 8.26858 41.1062 7.98795 41.797 7.31758C43.0796 6.00742 44.5788 4.95469 46.2114 4.1493ZM20.6036 34.1431L20.1038 33.7828C18.0171 34.2879 15.9739 34.8888 14.0064 35.5942V34.1485C16.8405 33.1648 19.9724 32.3385 23.332 31.698C26.031 31.1845 28.8788 30.7907 31.8382 30.5332C33.0236 30.4293 34.2278 30.349 35.4485 30.2915C36.9615 30.2177 38.4994 30.1805 40.0586 30.1805H40.0999C42.1747 30.1805 44.2173 30.2477 46.2114 30.3763C48.9332 30.5513 51.5695 30.8417 54.0956 31.2326C57.0086 31.6865 59.7742 32.2766 62.3531 32.9852V34.3945C61.5959 34.1814 60.8311 33.9817 60.0604 33.7947L59.6258 34.1248L59.6267 34.125L59.5912 34.1512L59.5879 34.1536C57.867 35.4151 56.0223 36.6538 54.0956 37.89C51.5787 39.504 48.9214 41.1183 46.2114 42.7899C45.6702 43.1241 45.1264 43.4622 44.5808 43.801C42.9273 44.7774 41.5025 45.2676 40.0999 45.2814C38.7044 45.2931 37.3323 44.8328 35.7827 43.9021L35.4485 43.6951C34.2351 42.9401 33.0282 42.2005 31.8382 41.4682C28.8697 39.6425 25.9918 37.867 23.332 36.0643C22.8201 35.7176 22.3163 35.3707 21.8214 35.0218L21.8165 35.0183C21.4048 34.7283 20.9997 34.437 20.6011 34.1439L20.6036 34.1431ZM14.0064 28.5226V20.8571C14.0201 20.7859 14.0405 20.7148 14.0685 20.6384C14.103 20.549 14.1513 20.466 14.216 20.3969C14.2988 20.3141 14.3884 20.2446 14.4875 20.1939C14.5868 20.1391 14.6834 20.0951 14.7754 20.0627C14.8673 20.0306 14.9477 20.0052 15.0124 19.9889C15.1161 19.9568 15.231 19.9314 15.3556 19.9107C15.4798 19.8903 15.6089 19.8877 15.7355 19.9041C15.8622 19.9178 15.9842 19.9616 16.097 20.0373C16.2101 20.1109 16.3068 20.2285 16.387 20.3875C16.5272 20.6755 16.6794 20.9975 16.8451 21.3524C17.0091 21.705 17.1768 22.0731 17.3498 22.4576C17.5246 22.842 17.6951 23.2244 17.8654 23.6043C18.0339 23.9816 18.1924 24.3432 18.3419 24.6838C18.4939 25.0253 18.6251 25.3314 18.7407 25.5984C18.8582 25.8653 18.9502 26.0795 19.0169 26.2408C19.0859 26.4018 19.1225 26.4921 19.1297 26.5102C19.1799 26.6834 19.2008 26.8373 19.1872 26.973C19.1733 27.109 19.1133 27.229 19.0077 27.3276C18.9039 27.4268 18.738 27.5122 18.5103 27.5761C18.2869 27.6408 18.1004 27.6617 17.9527 27.6362C17.8007 27.6134 17.672 27.5489 17.5638 27.4404C17.4553 27.3345 17.3498 27.1852 17.2486 27.0005C17.1494 26.8118 17.0363 26.5887 16.9143 26.3281C16.8249 26.1348 16.7393 25.9553 16.6611 25.7897C16.5829 25.6259 16.4999 25.4672 16.4169 25.3177C16.3341 25.1659 16.2395 25.0182 16.1364 24.8687C16.1036 24.8223 16.0646 24.7831 16.0144 24.7531C15.966 24.7256 15.9177 24.7047 15.8687 24.6957C15.8203 24.6838 15.7792 24.682 15.7474 24.6911C15.6363 24.7256 15.5516 24.7994 15.4934 24.9145C15.4358 25.0319 15.3968 25.1748 15.3786 25.347C15.3602 25.5228 15.3512 25.7158 15.3532 25.9254C15.3556 26.1348 15.3602 26.3536 15.3647 26.5795C15.3667 26.81 15.3622 27.0397 15.3484 27.2654C15.3347 27.4933 15.3048 27.7053 15.259 27.9012C15.2127 28.097 15.1416 28.2628 15.0496 28.4006C14.9569 28.5364 14.8354 28.6291 14.6788 28.6747C14.524 28.7164 14.37 28.7047 14.216 28.638C14.1469 28.6082 14.0751 28.5689 14.0064 28.5226ZM23.332 18.412V21.3342L23.3274 21.3291C23.2444 21.2716 23.1616 21.2461 23.0787 21.2578C22.9976 21.2743 22.9265 21.3225 22.8666 21.4025C22.8073 21.4855 22.7589 21.5874 22.7153 21.7115C22.6733 21.8334 22.6414 21.9628 22.6133 22.1003C22.5905 22.2363 22.5696 22.3655 22.5584 22.4895C22.5447 22.6141 22.535 22.718 22.5304 22.8028C22.5259 22.8883 22.5284 22.9412 22.5304 22.9594C22.563 23.1436 22.6277 23.2819 22.7261 23.3695C22.8228 23.4594 22.9384 23.5168 23.0694 23.5378C23.157 23.5514 23.2444 23.556 23.332 23.5514V25.253C23.1779 25.2879 23.0422 25.3269 22.9265 25.3707C22.7215 25.4443 22.563 25.5248 22.4476 25.6147C22.3326 25.7041 22.2472 25.7963 22.1924 25.8954C22.1348 25.9919 22.0931 26.0913 22.063 26.1905C22.0356 26.2889 22.0057 26.3837 21.9711 26.4802C21.9363 26.5723 21.8861 26.6597 21.817 26.7428C21.7452 26.8256 21.642 26.8974 21.5055 26.9613C21.3678 27.026 21.1813 27.0769 20.9444 27.1159C20.8522 27.1317 20.7529 27.1434 20.6428 27.1551C20.5298 27.1661 20.4235 27.1617 20.3158 27.1414C20.2073 27.1225 20.1153 27.0769 20.0369 27.0031C19.9562 26.9294 19.9032 26.8166 19.8778 26.6643C19.8757 26.644 19.8823 26.5767 19.8986 26.4639C19.9167 26.3536 19.9404 26.2061 19.9724 26.0268C20.0025 25.8472 20.0389 25.6468 20.0782 25.4234C20.1199 25.2003 20.1636 24.9672 20.2073 24.7256C20.2531 24.4861 20.2967 24.2467 20.3405 24.0096C20.3842 23.772 20.4261 23.5514 20.4626 23.344L20.785 21.541C20.8522 21.1913 20.9052 20.887 20.9488 20.6338C20.9927 20.3785 21.0318 20.1592 21.0638 19.9797C21.1009 19.7981 21.1375 19.6417 21.1767 19.5078C21.2159 19.3768 21.2643 19.2566 21.3215 19.1509C21.379 19.045 21.4508 18.9393 21.5382 18.8376C21.6049 18.762 21.6968 18.7017 21.8234 18.658C21.9482 18.6143 22.0814 18.5796 22.2289 18.5549C22.3738 18.5267 22.5103 18.5058 22.6414 18.4877C22.7609 18.4648 22.8947 18.4464 23.0487 18.4275C23.1407 18.4166 23.2354 18.412 23.332 18.412ZM23.332 25.253C23.4494 25.225 23.5807 25.2021 23.7236 25.1794C24.0342 25.1285 24.2945 25.1101 24.5061 25.1195C24.7157 25.1264 24.8887 25.1565 25.0265 25.2069C25.1628 25.2551 25.2751 25.3177 25.3632 25.3934C25.4508 25.4672 25.529 25.5454 25.5929 25.6304C25.6576 25.7133 25.7243 25.7963 25.7934 25.8745C25.8606 25.9509 25.9409 26.0174 26.0376 26.0749C26.1322 26.1302 26.2542 26.1669 26.4018 26.1878C26.5512 26.2041 26.7378 26.1969 26.9657 26.1623C27.044 26.1511 27.1334 26.1323 27.2352 26.1121C28.1374 25.9071 27.7072 25.0941 27.3985 24.4953C27.2882 24.2839 27.1707 24.06 27.0414 23.8229C26.9128 23.5881 26.7837 23.3557 26.6525 23.1278C26.5257 22.8975 26.4037 22.6852 26.2934 22.4921C26.1823 22.299 26.0903 22.1398 26.0193 22.0112C25.9454 21.8845 25.9017 21.8061 25.8853 21.7734C25.8051 21.6284 25.715 21.4562 25.6067 21.2604C25.4992 21.0645 25.3861 20.8571 25.2659 20.643C25.1485 20.427 25.0318 20.2148 24.916 20.0098C24.8013 19.8029 24.6975 19.6135 24.6055 19.4458C24.5107 19.2775 24.4371 19.1463 24.3795 19.045C24.3242 18.9459 24.2967 18.8929 24.2945 18.8909C24.2046 18.7317 24.0917 18.6169 23.956 18.5452C23.8177 18.474 23.6707 18.4301 23.5113 18.4186C23.4514 18.4139 23.3921 18.412 23.332 18.412V21.3342C23.4102 21.3917 23.4886 21.4699 23.5643 21.5686C23.6427 21.6722 23.7117 21.7825 23.781 21.9047C23.8457 22.0247 23.9051 22.1398 23.954 22.2506C24.0041 22.3629 24.0461 22.4576 24.0754 22.5384C24.1053 22.6141 24.12 22.665 24.1244 22.6833C24.1492 22.8655 24.1308 23.015 24.0708 23.137C24.0069 23.2544 23.9213 23.3464 23.8111 23.4112C23.7 23.4777 23.5851 23.519 23.4632 23.5352C23.4193 23.5442 23.3757 23.5488 23.332 23.5514V25.253ZM31.8382 18.7017V23.3858C31.6332 23.1762 31.4396 23.0424 31.2671 23.0514C30.5994 23.0952 30.8919 24.5045 30.8892 24.9379C30.8828 26.1187 28.8814 26.2015 28.796 25.1473L27.9904 18.4765C27.9651 18.0366 28.2986 17.7717 28.6809 17.6724C30.0237 17.3206 30.1021 18.3865 30.1959 19.3786C30.2377 19.8167 30.5092 20.4889 31.0275 20.0079C31.3701 19.6853 31.5988 19.1879 31.8382 18.7017ZM35.4485 24.4841C34.797 23.5378 33.0335 21.9765 32.9798 21.244C32.8904 19.9616 36.5861 16.7494 33.3004 17.2213C32.5427 17.3318 32.179 18.0065 31.8382 18.7017V23.3858C32.423 23.9887 33.0954 25.214 33.6549 25.4326C33.9517 25.5474 34.9766 25.6514 35.4485 25.3817V24.4841ZM35.4485 19.7749V22.8262C35.1287 21.8498 35.1331 20.756 35.4485 19.7749ZM35.4485 25.3817C35.6004 25.2941 35.6954 25.1677 35.6862 24.9909C35.6743 24.857 35.5841 24.6838 35.4485 24.4841V25.3817ZM40.0999 16.9425V18.8863C40.0423 18.8654 39.9804 18.8473 39.9137 18.831C39.8237 18.8127 39.7179 18.8035 39.5933 18.8035C36.7521 18.8127 36.7567 23.7238 39.7089 23.7101C39.8419 23.7082 39.9575 23.6963 40.0542 23.6736C40.0698 23.6688 40.0841 23.6643 40.0999 23.6619V25.5849C40.0033 25.5984 39.9086 25.6076 39.821 25.6147C39.6743 25.6238 39.5495 25.6284 39.4438 25.6284C37.2748 25.6238 35.9549 24.3761 35.4485 22.8262V19.7749C35.9549 18.1907 37.2766 16.9015 39.3745 16.8853C39.5475 16.8826 39.7318 16.8943 39.9275 16.9172C39.9848 16.9243 40.0423 16.9335 40.0999 16.9425ZM40.0999 18.8863V16.9425C40.2382 16.9656 40.374 16.9981 40.5123 17.0394C40.701 17.0966 40.8758 17.1796 41.0352 17.288C41.1912 17.3943 41.3177 17.5302 41.4125 17.6979C41.5071 17.8636 41.5554 18.0666 41.5573 18.3061C41.5573 18.451 41.537 18.5824 41.4979 18.6998C41.4608 18.8173 41.3961 18.9113 41.3113 18.9805C41.2239 19.0523 41.111 19.0888 40.9679 19.0906C40.8301 19.0888 40.7127 19.0798 40.6161 19.0613C40.5189 19.0404 40.4341 19.0177 40.3622 18.9895C40.291 18.9596 40.2199 18.9321 40.1481 18.9049C40.1323 18.8975 40.1162 18.8929 40.0999 18.8863ZM40.0999 25.5849V23.6619C40.1806 23.639 40.2545 23.6161 40.323 23.5906C40.4086 23.558 40.496 23.5305 40.5882 23.5078C40.6826 23.4823 40.7955 23.4704 40.9221 23.4686C41.0762 23.4731 41.203 23.5124 41.3021 23.5906C41.4059 23.6688 41.479 23.7674 41.53 23.885C41.5782 24.0052 41.6037 24.1292 41.6037 24.2538C41.6011 24.468 41.5621 24.6476 41.486 24.7994C41.4103 24.9515 41.3087 25.0801 41.1821 25.1794C41.0535 25.2805 40.9106 25.3615 40.7565 25.4209C40.5997 25.4809 40.4432 25.5273 40.2794 25.5566C40.2199 25.5683 40.1598 25.5775 40.0999 25.5849ZM46.2114 17.3252V20.1501C46.1584 20.1638 46.1075 20.1919 46.0573 20.2377C45.9809 20.3067 45.9117 20.3941 45.8432 20.5072C45.7785 20.6175 45.7209 20.7375 45.6656 20.8661C45.6127 20.9927 45.5645 21.1175 45.5271 21.2349C45.4881 21.3544 45.458 21.4536 45.4378 21.5364C45.4143 21.6169 45.4051 21.6702 45.4031 21.6887C45.3987 21.8752 45.4331 22.0247 45.5089 22.1332C45.5872 22.2407 45.6865 22.3191 45.8105 22.3681C45.9353 22.4137 46.0619 22.4412 46.1975 22.4485H46.2114V24.1135C46.1793 24.1107 46.1447 24.1107 46.1101 24.1089C45.7785 24.0899 45.5069 24.0972 45.2902 24.1292C45.0736 24.1571 44.9013 24.2055 44.7719 24.2694C44.6387 24.332 44.5371 24.4059 44.4634 24.4907C44.3875 24.5737 44.3256 24.6611 44.2745 24.7531C44.2263 24.8432 44.178 24.9306 44.1252 25.0156C44.0722 25.101 44.003 25.1748 43.9176 25.2415C43.8328 25.306 43.7153 25.3569 43.5704 25.391C43.4202 25.4234 43.2271 25.4352 42.9876 25.4254C42.8953 25.4209 42.7962 25.4119 42.6833 25.4007C42.5728 25.3863 42.4693 25.3615 42.3662 25.3196C42.2668 25.2785 42.1859 25.214 42.124 25.1239C42.0618 25.0365 42.0344 24.917 42.0392 24.7622C42.041 24.7421 42.0618 24.6774 42.1011 24.5717C42.1421 24.4652 42.1958 24.3276 42.2643 24.1571C42.3314 23.9867 42.4072 23.7975 42.4948 23.5881C42.5802 23.3785 42.6698 23.1599 42.7643 22.934C42.859 22.7088 42.951 22.4829 43.043 22.2618C43.1369 22.0384 43.2225 21.8316 43.3007 21.6358L43.9914 19.9387C44.1297 19.6089 44.2446 19.3238 44.3394 19.0842C44.4359 18.8446 44.5187 18.6397 44.59 18.4694C44.6616 18.2989 44.7309 18.154 44.7974 18.032C44.864 17.9118 44.9359 17.8036 45.0141 17.7141C45.0898 17.6222 45.1845 17.5321 45.2902 17.4492C45.3706 17.3917 45.4744 17.3525 45.6081 17.3344C45.7367 17.3179 45.875 17.3113 46.0245 17.3179C46.0893 17.3179 46.1511 17.3206 46.2114 17.3252ZM46.2114 24.1135V22.4485C46.3288 22.4554 46.4435 22.4366 46.5612 22.3973C46.6833 22.3563 46.7868 22.2851 46.8744 22.1815C46.9572 22.0777 47.0056 21.9328 47.0193 21.7506C47.0193 21.7323 47.0147 21.6793 47.0036 21.5965C46.9893 21.5137 46.9691 21.4119 46.9436 21.2924C46.9182 21.173 46.8861 21.0484 46.8444 20.9171C46.8031 20.7859 46.7596 20.6612 46.7061 20.5444C46.6485 20.4288 46.5891 20.3342 46.5219 20.2611C46.4528 20.1875 46.377 20.1455 46.2942 20.1391C46.2667 20.1391 46.2387 20.1411 46.2114 20.1501V17.3252C46.2916 17.3271 46.3678 17.3318 46.4417 17.3364C46.5637 17.3408 46.6995 17.3499 46.8517 17.3642C47.0036 17.378 47.1576 17.408 47.3097 17.4518C47.462 17.4956 47.595 17.5692 47.715 17.6678C47.8346 17.7671 47.922 17.9029 47.975 18.0756C47.9775 18.0776 47.9939 18.1352 48.0259 18.246C48.0604 18.3545 48.1061 18.4994 48.1642 18.6835C48.219 18.8674 48.2811 19.0725 48.3504 19.2983C48.4194 19.5243 48.4913 19.7566 48.5624 19.9917C48.6334 20.2265 48.7007 20.4517 48.7673 20.6656C48.832 20.8804 48.8848 21.0666 48.9332 21.2257C48.9423 21.2604 48.9678 21.348 49.0134 21.4855C49.0572 21.6284 49.1152 21.8016 49.1817 22.013C49.251 22.2252 49.3246 22.46 49.4031 22.7107C49.4808 22.9594 49.5592 23.2154 49.6356 23.4704C49.7138 23.731 49.7829 23.9724 49.847 24.2029C49.9095 24.4352 49.9578 24.6356 49.9945 24.806C50.0291 24.9789 50.0454 25.1037 50.0426 25.1812C50.0335 25.336 49.9925 25.4535 49.9207 25.5339C49.8496 25.6147 49.764 25.6723 49.6609 25.7023C49.5572 25.7322 49.456 25.7479 49.3496 25.7505C49.2464 25.7505 49.1545 25.7505 49.0781 25.7433C48.8458 25.7298 48.6616 25.6995 48.5187 25.6514C48.3784 25.6012 48.2674 25.5385 48.1869 25.4647C48.1043 25.391 48.0376 25.308 47.9887 25.2184C47.9383 25.1264 47.8899 25.0345 47.8464 24.94C47.798 24.8432 47.7401 24.7487 47.6686 24.6591C47.5995 24.5671 47.501 24.4815 47.379 24.4059C47.2542 24.3276 47.0911 24.263 46.8861 24.2121C46.7043 24.1663 46.4783 24.1316 46.2114 24.1135ZM54.0956 18.0895V19.6344C54.0381 19.6437 53.9826 19.6572 53.9324 19.6782C53.7801 19.7311 53.6535 19.8257 53.559 19.9522C53.4623 20.0808 53.4006 20.2377 53.3749 20.427C53.3476 20.6109 53.3657 20.7769 53.4232 20.9216C53.4786 21.0693 53.5753 21.1931 53.7065 21.2879C53.8122 21.3663 53.9436 21.4216 54.0956 21.4562V22.9528C53.8998 22.925 53.7184 22.9294 53.5542 22.964C53.3841 23.0031 53.2437 23.0861 53.1308 23.2127C53.0132 23.344 52.9394 23.5305 52.9031 23.7773C52.8568 24.0881 52.9095 24.3386 53.057 24.5299C53.2047 24.7232 53.4597 24.8432 53.8196 24.8961C53.9024 24.9079 53.9945 24.9145 54.0956 24.917V26.4272L51.1322 26.0103C51.0238 25.9947 50.9338 25.9553 50.8534 25.8936C50.7731 25.8309 50.7086 25.7552 50.6576 25.6677C50.6047 25.5775 50.5683 25.4881 50.5474 25.3934C50.5263 25.2989 50.5192 25.2115 50.5309 25.133L51.4455 18.626C51.4801 18.4166 51.544 18.2526 51.6459 18.1332C51.7445 18.0131 51.8599 17.9303 51.9931 17.8864C52.1224 17.8428 52.2535 17.8316 52.3821 17.8499L54.0956 18.0895ZM54.0956 26.4272V24.917C54.1092 24.917 54.1229 24.917 54.1374 24.917C54.2549 24.9145 54.3769 24.9033 54.5034 24.8779C54.6275 24.8524 54.747 24.8086 54.8578 24.7467C54.9683 24.6865 55.0648 24.6036 55.1432 24.4953C55.2214 24.3868 55.2724 24.2538 55.2978 24.0899C55.3208 23.9105 55.2953 23.7538 55.2242 23.6179C55.157 23.4842 55.0582 23.3695 54.9316 23.2773C54.807 23.1872 54.6713 23.1142 54.5264 23.0606C54.3815 23.0077 54.2452 22.9732 54.1138 22.9549L54.0956 22.9528V21.4562C54.1282 21.4628 54.1601 21.4699 54.1947 21.4743C54.264 21.4837 54.3468 21.4883 54.4434 21.481C54.5445 21.4791 54.6458 21.4628 54.7569 21.4353C54.8669 21.4099 54.9709 21.3663 55.0719 21.3087C55.1713 21.2512 55.2561 21.175 55.3274 21.0784C55.3992 20.9817 55.4448 20.8615 55.4657 20.7193C55.4866 20.5602 55.4683 20.4151 55.4054 20.2859C55.3437 20.1592 55.2587 20.0516 55.1478 19.9568C55.0401 19.8648 54.9226 19.7912 54.7979 19.7382C54.6739 19.6807 54.5584 19.6483 54.4525 19.6326C54.326 19.6135 54.2057 19.6163 54.0956 19.6344V18.0895L55.6777 18.3127C55.8689 18.3382 56.0622 18.3935 56.2555 18.4765C56.4512 18.5595 56.6333 18.665 56.8082 18.7982C56.9786 18.9321 57.1307 19.0862 57.2573 19.2638C57.3859 19.4412 57.4779 19.639 57.538 19.8557C57.5953 20.0744 57.6098 20.3095 57.5772 20.5625C57.5451 20.7675 57.4988 20.9445 57.4368 21.0947C57.3721 21.244 57.2983 21.3708 57.2226 21.4791C57.1419 21.5874 57.0662 21.6841 56.9904 21.7669C56.9167 21.8498 56.852 21.9328 56.7992 22.0084C56.7436 22.0868 56.7117 22.1696 56.698 22.2572C56.6835 22.3746 56.7071 22.4895 56.7665 22.6005C56.8247 22.7134 56.9048 22.8308 56.9969 22.9549C57.0916 23.0795 57.1836 23.2174 57.2731 23.3719C57.3632 23.5259 57.4322 23.7055 57.4806 23.9086C57.5242 24.1135 57.5315 24.3478 57.4969 24.62C57.4577 24.9005 57.3632 25.1659 57.2183 25.4143C57.0753 25.6649 56.8885 25.8837 56.6561 26.0683C56.4257 26.2543 56.1587 26.391 55.8572 26.4783C55.5556 26.5632 55.2286 26.5841 54.8717 26.5377L54.0956 26.4272ZM62.3531 22.6925V24.9145C62.109 25.1519 61.8669 25.391 61.6299 25.6304C61.3629 25.8954 61.0844 26.1605 60.7938 26.4182C60.504 26.6761 60.1886 26.9221 59.8481 27.1599C59.7462 27.2244 59.6313 27.261 59.5068 27.2654C59.3827 27.2746 59.2533 27.268 59.1202 27.2425C58.9864 27.217 58.8624 27.1898 58.7403 27.1572C58.6229 27.1271 58.5053 27.0861 58.3833 27.0286C58.2659 26.971 58.1576 26.8974 58.0629 26.8054C57.9687 26.7127 57.8996 26.6022 57.8586 26.4712C57.8166 26.3398 57.8194 26.1859 57.8606 26.0082L59.4217 19.7448C59.4673 19.577 59.5391 19.4478 59.6431 19.3537C59.7462 19.2592 59.8591 19.1927 59.9836 19.1534C60.1104 19.1143 60.2297 19.0933 60.3427 19.0888C60.4576 19.0888 60.5475 19.0979 60.6142 19.1143C60.8009 19.16 60.9576 19.2339 61.089 19.3304C61.2181 19.4321 61.3101 19.5542 61.3649 19.7011C61.4204 19.8488 61.4231 20.0171 61.3768 20.2077L60.833 22.3928C60.8147 22.462 60.801 22.5496 60.792 22.6579C60.7801 22.7616 60.7801 22.8701 60.7892 22.9778C60.8037 23.0888 60.831 23.1853 60.8766 23.2683C60.9204 23.353 60.9896 23.4067 61.0862 23.434C61.1809 23.4523 61.2938 23.4314 61.4295 23.3673C61.5653 23.3028 61.7128 23.2127 61.8696 23.0952C62.0261 22.9757 62.1828 22.8446 62.3395 22.7061L62.3531 22.6925ZM62.3531 24.9145V22.6925C62.5026 22.5566 62.6429 22.421 62.7741 22.2917C62.908 22.1607 63.0209 22.0456 63.1105 21.951C63.2024 21.8544 63.2603 21.7922 63.2852 21.7669C63.3635 21.6905 63.4582 21.6011 63.5666 21.5C63.675 21.3935 63.7898 21.2851 63.919 21.173C64.0456 21.0554 64.177 20.9425 64.3127 20.8296C64.4457 20.7166 64.5824 20.6131 64.7154 20.5189C64.84 20.4361 64.9668 20.3806 65.0952 20.3597C65.2265 20.3368 65.3575 20.3342 65.4942 20.3531C65.6298 20.3714 65.7701 20.3969 65.9152 20.4361C66.0142 20.459 66.1246 20.5001 66.2492 20.5581C66.3714 20.6175 66.4889 20.6985 66.5966 20.7976C66.7029 20.8961 66.7831 21.0163 66.8341 21.163C66.887 21.306 66.889 21.4743 66.8452 21.6678L65.3193 27.7975C65.2683 27.9887 65.1991 28.1382 65.109 28.2465C65.0215 28.3568 64.9184 28.4332 64.8055 28.477C64.6899 28.5206 64.5705 28.541 64.4439 28.5364C64.3191 28.5364 64.1951 28.5182 64.0756 28.4861C63.7442 28.4006 63.5183 28.2557 63.389 28.0507C63.2649 27.8438 63.2369 27.5971 63.3087 27.3072L63.8846 24.9999C63.9047 24.928 63.921 24.8478 63.9373 24.7604C63.9511 24.673 63.9536 24.5855 63.9465 24.4999C63.9373 24.4123 63.91 24.334 63.8609 24.2694C63.8127 24.2029 63.7343 24.1547 63.6265 24.1272C63.5392 24.1063 63.4465 24.1107 63.3525 24.1408C63.2558 24.171 63.1638 24.2166 63.0711 24.2767C62.9772 24.3386 62.8897 24.4033 62.8069 24.4771C62.7239 24.5482 62.6501 24.6173 62.5882 24.6792C62.5235 24.7441 62.4753 24.7923 62.4381 24.8294L62.3531 24.9145ZM69.8988 35.6313V37.0406C69.6826 37.0061 69.4614 36.9389 69.2473 36.8401C67.0599 35.8802 64.7434 35.0694 62.3531 34.3945V32.9852C65.0605 33.7294 67.5619 34.6066 69.8092 35.5923C69.8392 35.6081 69.8685 35.6198 69.8988 35.6313ZM69.8988 21.716V26.3719L68.934 29.1767C68.8718 29.3496 68.7845 29.4762 68.676 29.5638C68.5677 29.6512 68.4483 29.704 68.3191 29.7268C68.1905 29.7503 68.0658 29.7549 67.9463 29.7388C67.8263 29.7224 67.7251 29.7016 67.6402 29.6721C67.5548 29.644 67.4628 29.5984 67.3662 29.5409C67.267 29.4783 67.1766 29.4024 67.0966 29.3078C67.0156 29.2111 66.9626 29.0983 66.9353 28.9651C66.9079 28.8315 66.9216 28.6774 66.979 28.5024L68.3627 24.4841C68.4483 24.2284 68.4941 24.0142 68.4967 23.8412C68.4987 23.6665 68.4738 23.5214 68.4157 23.4067C68.3581 23.2911 68.2843 23.1945 68.1905 23.1207C68.0958 23.0424 67.9947 22.9757 67.8889 22.9157C67.7825 22.8629 67.686 22.8028 67.5914 22.7454C67.4945 22.6879 67.4165 22.6187 67.3543 22.5357C67.2896 22.4554 67.2551 22.3518 67.2415 22.2272C67.2323 22.1049 67.2578 21.9536 67.3199 21.769C67.3818 21.5921 67.4672 21.4608 67.5711 21.3708C67.6722 21.2833 67.7825 21.2257 67.9 21.2005C68.0175 21.173 68.1304 21.1658 68.2341 21.1774C68.34 21.1885 68.4276 21.2076 68.4941 21.2323L69.8988 21.716ZM69.8988 26.3719V21.716L72.2178 22.513C72.3972 22.5751 72.5421 22.6604 72.6524 22.7663C72.7634 22.8721 72.8327 23.0012 72.8626 23.1508C72.892 23.3001 72.8765 23.4686 72.8116 23.6599C72.7471 23.8412 72.6733 23.9797 72.5885 24.0697C72.5031 24.1591 72.4111 24.2166 72.3118 24.2421C72.2107 24.2694 72.1068 24.2767 71.9965 24.2602C71.8862 24.2492 71.7734 24.2355 71.6558 24.2146C71.5363 24.1965 71.4163 24.1866 71.2941 24.1891C71.1748 24.1917 71.0546 24.2212 70.9418 24.2747C70.8241 24.3296 70.7141 24.4286 70.6081 24.5671C70.5043 24.7074 70.4077 24.9033 70.3177 25.1585L69.8988 26.3719Z" fill="#FF0033"/>
<path fill-rule="evenodd" clip-rule="evenodd" d="M167.339 3.94699V5.26996H167.868C168.221 5.26996 168.503 5.30454 168.705 5.37602C168.913 5.44634 169.062 5.54329 169.159 5.67042C169.252 5.79425 169.315 5.94013 169.341 6.1072C169.366 6.27046 169.38 6.45092 169.376 6.64475V19.3965C169.38 19.5902 169.366 19.7708 169.341 19.9341C169.315 20.1024 169.252 20.2469 169.159 20.3703C169.062 20.4989 168.913 20.596 168.705 20.6663C168.503 20.7367 168.221 20.7724 167.868 20.7724H167.339V22.0941H175.645V20.7724H175.091C174.728 20.7724 174.446 20.7288 174.244 20.6438C174.041 20.5602 173.895 20.45 173.802 20.3135C173.715 20.1766 173.656 20.0269 173.635 19.8688C173.612 19.7094 173.604 19.5502 173.609 19.3965V14.873L175.222 13.1003L178.475 18.92C178.525 19.009 178.591 19.1362 178.679 19.3036C178.768 19.4758 178.847 19.6473 178.917 19.8237C178.988 20.0002 179.028 20.142 179.032 20.2431C179.028 20.406 178.988 20.5298 178.912 20.6038C178.838 20.6795 178.745 20.7288 178.639 20.746C178.534 20.7671 178.436 20.7764 178.344 20.7724H178.001V22.0941H186.015V20.7724H185.461C185.205 20.7671 184.948 20.6757 184.688 20.4899C184.428 20.3093 184.172 20.0705 183.925 19.7759C183.674 19.48 183.432 19.1534 183.202 18.8058C182.974 18.4568 182.761 18.1131 182.564 17.7735C182.369 17.4299 182.198 17.1262 182.048 16.8569L178.158 9.89983L180.804 6.98956C181.108 6.65406 181.421 6.36334 181.738 6.12039C182.061 5.87362 182.405 5.68399 182.779 5.53921C183.149 5.39321 183.568 5.30453 184.031 5.26996V3.94699H178.449V5.26996H178.741C178.878 5.26459 179.001 5.27396 179.125 5.29135C179.243 5.3097 179.341 5.34965 179.415 5.41467C179.495 5.47678 179.531 5.57793 179.535 5.71973C179.538 5.79425 179.521 5.88713 179.482 5.98796C179.446 6.08982 179.375 6.21727 179.269 6.36754C179.159 6.51723 179.001 6.70706 178.794 6.93657L173.899 12.2537H173.609V6.64475C173.604 6.49616 173.609 6.34079 173.622 6.18289C173.635 6.02363 173.679 5.87782 173.762 5.73712C173.846 5.60042 173.992 5.49035 174.199 5.40109C174.406 5.31391 174.706 5.26996 175.091 5.26996H175.645V3.94699H167.339Z" fill="#FF0033"/>
<path fill-rule="evenodd" clip-rule="evenodd" d="M163.802 3.94699H149.887V5.26996H150.443C150.804 5.26996 151.087 5.3097 151.289 5.38959C151.492 5.46359 151.637 5.56435 151.73 5.69717C151.819 5.82579 151.876 5.9707 151.897 6.12976C151.92 6.28766 151.929 6.45092 151.924 6.61799V19.3965C151.929 19.5462 151.924 19.6962 151.91 19.8553C151.903 20.0174 151.854 20.1634 151.77 20.3041C151.686 20.4421 151.54 20.5524 151.333 20.6396C151.126 20.7235 150.831 20.7671 150.443 20.7724H149.887V22.0941H164.676L164.729 17.6238H163.855C163.728 17.8585 163.098 19.6977 162.184 20.1288C161.755 20.3303 161.325 20.4153 160.932 20.4538C160.544 20.4989 160.205 20.5163 159.913 20.5071H157.665C157.282 20.5071 156.977 20.4631 156.757 20.3756C156.536 20.2827 156.382 20.1367 156.289 19.9341C156.197 19.7309 156.153 19.4668 156.157 19.1325V13.1533H158.987C159.473 13.1533 159.86 13.1928 160.156 13.2674C160.447 13.3429 160.667 13.44 160.822 13.5633C160.972 13.6826 161.077 13.8139 161.139 13.9561C161.2 14.0966 161.24 14.2333 161.263 14.3701C161.276 14.459 161.289 14.5372 161.303 14.6127C161.316 14.6831 161.329 14.7706 161.342 14.873H162.189V9.81994H161.342C161.329 9.9209 161.316 10.0096 161.303 10.0799C161.289 10.1556 161.276 10.2342 161.263 10.3228C161.232 10.4809 161.197 10.6268 161.157 10.7539C161.117 10.8868 161.046 11.0022 160.94 11.103C160.839 11.2039 160.672 11.2876 160.452 11.3591C160.226 11.4243 159.913 11.4772 159.513 11.513C159.11 11.5476 158.59 11.5661 157.956 11.5661H156.157V6.90981C156.157 6.52654 156.206 6.23582 156.307 6.03682C156.409 5.83368 156.571 5.70138 156.792 5.63106C157.013 5.56067 157.303 5.5303 157.665 5.53392H159.596C160.244 5.53922 160.804 5.63616 161.276 5.8205C161.747 6.01045 161.998 6.01575 162.476 6.53972C162.879 6.98278 162.931 8.23316 162.982 8.36029H163.829L163.802 3.94699Z" fill="#FF0033"/>
<path fill-rule="evenodd" clip-rule="evenodd" d="M147.536 3.94699H140.436H133.334L133.165 7.86255H134.01C134.522 6.6845 134.392 6.71617 135.249 5.95331C135.453 5.77008 135.919 5.67992 136.218 5.61748C136.514 5.55647 136.779 5.5303 137.013 5.53392C137.18 5.5303 137.338 5.53391 137.487 5.54329C137.643 5.55136 137.774 5.58704 137.894 5.64425C138.013 5.70655 138.106 5.80744 138.176 5.95713C138.247 6.10721 138.281 6.31972 138.281 6.59272V19.3965C138.286 19.5462 138.281 19.6962 138.269 19.8553C138.256 20.0174 138.211 20.1634 138.127 20.3041C138.043 20.4421 137.899 20.5524 137.691 20.6396C137.484 20.7235 137.184 20.7671 136.8 20.7724H136.244V22.0941H140.436H144.627V20.7724H144.07C143.687 20.7671 143.387 20.7235 143.18 20.6396C142.973 20.5524 142.827 20.4421 142.744 20.3041C142.66 20.1634 142.616 20.0174 142.603 19.8553C142.589 19.6962 142.584 19.5462 142.589 19.3965V6.59272C142.589 6.31972 142.624 6.10721 142.696 5.95713C142.766 5.80744 142.859 5.70655 142.977 5.64425C143.096 5.58704 143.229 5.55136 143.383 5.54329C143.533 5.53391 143.692 5.5303 143.86 5.53392C144.093 5.5303 144.357 5.55647 144.653 5.61748C144.953 5.67992 145.417 5.77008 145.623 5.95331C146.48 6.71617 146.349 6.6845 146.861 7.86255H147.708L147.536 3.94699Z" fill="#FF0033"/>
<path fill-rule="evenodd" clip-rule="evenodd" d="M113.917 19.3965C113.921 19.5462 113.917 19.6962 113.903 19.8553C113.894 20.0174 113.847 20.1634 113.763 20.3041C113.679 20.4421 113.533 20.5524 113.326 20.6396C113.119 20.7235 112.824 20.7671 112.435 20.7724H111.88V22.0952H120.186V20.7724H119.657C119.283 20.7764 118.983 20.7367 118.763 20.6568C118.542 20.5775 118.383 20.4368 118.286 20.2338C118.194 20.0359 118.146 19.7534 118.15 19.3965V6.9098C118.15 6.52653 118.197 6.23582 118.3 6.03681C118.4 5.83367 118.564 5.70137 118.784 5.63105C119.004 5.56067 119.296 5.53029 119.657 5.53391H123.097C123.457 5.53029 123.749 5.56067 123.969 5.63105C124.19 5.70137 124.353 5.83367 124.454 6.03681C124.556 6.23582 124.604 6.52653 124.604 6.9098V19.3965C124.609 19.7534 124.56 20.0359 124.467 20.2338C124.37 20.4368 124.216 20.5775 123.992 20.6568C123.771 20.7367 123.476 20.7764 123.097 20.7724H122.567V22.0952H130.847V20.7724H130.345C129.993 20.7764 129.706 20.7367 129.486 20.6568C129.26 20.5775 129.097 20.4368 128.992 20.2338C128.89 20.0359 128.837 19.7534 128.837 19.3965V6.64474C128.837 6.28765 128.89 6.00643 128.992 5.80743C129.097 5.60429 129.26 5.46359 129.486 5.3839C129.706 5.30453 129.993 5.26459 130.345 5.26995H130.847V3.94699H111.906V5.26995H112.409C112.774 5.26995 113.061 5.3097 113.26 5.38958C113.463 5.46359 113.608 5.56435 113.697 5.68398C113.784 5.80743 113.837 5.93495 113.854 6.07255C113.877 6.20944 113.89 6.33657 113.89 6.46041C113.89 6.56647 113.89 6.64054 113.894 6.67661C113.9 6.71086 113.9 6.73342 113.903 6.74292C113.908 6.7508 113.913 6.77336 113.913 6.80012C113.917 6.83049 113.917 6.893 113.917 6.98956V19.3965Z" fill="#FF0033"/>
<path fill-rule="evenodd" clip-rule="evenodd" d="M97.7746 14.3152L97.7761 14.3122L99.8339 8.68222H100.145L102.225 14.3734L102.687 15.5572C100.861 14.437 98.9026 14.2858 97.7746 14.3152ZM101.987 3.93471H99.8874C99.6259 4.68529 99.7798 4.24909 99.4995 4.98286L98.0694 8.69152L94.3073 18.645C94.2691 18.7521 94.2344 18.8425 94.2081 18.9248C94.1813 19.003 94.1467 19.0986 94.0952 19.2102C94.0434 19.3226 93.9572 19.4795 93.8406 19.6823C93.7409 19.8509 93.6412 20.0024 93.5458 20.131C93.4516 20.2612 93.3294 20.3699 93.1876 20.4638C93.0443 20.5557 92.8544 20.6286 92.6118 20.6853C92.3703 20.7414 92.0543 20.7799 91.6616 20.7972V22.0948H96.9016V20.7972H96.2527C96.1797 20.7972 96.1015 20.7931 96.0112 20.7852C95.9198 20.7757 95.8375 20.7546 95.7604 20.7242C95.6862 20.6938 95.6344 20.6513 95.6039 20.5899C95.5919 20.5635 95.5882 20.5342 95.5882 20.5C95.5882 20.4638 95.5919 20.435 95.6039 20.4082C95.6133 20.3431 95.6397 20.253 95.6743 20.131C95.7089 20.0103 95.7472 19.8895 95.7855 19.7688C95.8296 19.6481 95.8638 19.5484 95.8905 19.4743L96.8764 16.698H96.8842L97.0753 16.3054C97.8025 16.214 101.932 15.9485 104.111 19.4104L104.27 19.863C104.335 20.0408 104.373 20.1667 104.395 20.2356C104.417 20.3089 104.425 20.3485 104.425 20.3567C104.425 20.3831 104.429 20.4124 104.434 20.4467C104.439 20.4813 104.439 20.5117 104.425 20.5384C104.395 20.6724 104.339 20.7546 104.257 20.7757C104.175 20.7972 104.092 20.8063 104.01 20.7972H103.154V22.0948H109.9V20.7972C109.661 20.8103 109.454 20.8063 109.277 20.7852C109.1 20.7625 108.939 20.7149 108.792 20.6377C108.646 20.5595 108.495 20.4428 108.344 20.2781C108.197 20.1191 108.057 19.9374 107.941 19.7342C107.82 19.5311 107.716 19.3269 107.626 19.12C107.534 18.9169 107.456 18.7258 107.396 18.5625C107.331 18.394 107.289 18.2639 107.253 18.1778L101.987 3.93471Z" fill="#FF0033"/>
<path fill-rule="evenodd" clip-rule="evenodd" d="M192.83 14.3144L192.832 14.3115L194.888 8.68144H195.2L197.281 14.3729L197.743 15.5566C195.917 14.4364 193.958 14.2851 192.83 14.3144ZM197.042 3.93394H194.943C194.682 4.68477 194.835 4.24838 194.555 4.98228L193.125 8.69101L189.363 18.6443C189.323 18.7514 189.289 18.8417 189.264 18.924C189.237 19.0023 189.202 19.0978 189.151 19.2096C189.099 19.3221 189.013 19.4789 188.896 19.6815C188.797 19.8501 188.697 20.0017 188.601 20.1304C188.507 20.2605 188.385 20.3692 188.243 20.4631C188.1 20.5549 187.91 20.628 187.667 20.6848C187.426 20.7409 187.11 20.7792 186.717 20.7964V22.0941H191.957V20.7964H191.308C191.235 20.7964 191.157 20.7924 191.067 20.7845C190.975 20.775 190.893 20.7539 190.816 20.7235C190.742 20.6931 190.69 20.6506 190.66 20.5892C190.648 20.563 190.644 20.5335 190.644 20.4994C190.644 20.4631 190.648 20.4342 190.66 20.4076C190.669 20.3424 190.695 20.2522 190.73 20.1304C190.765 20.0097 190.803 19.8888 190.841 19.768C190.885 19.6473 190.919 19.5476 190.946 19.4736L191.931 16.6973H191.94L192.131 16.3046C192.858 16.2132 196.988 15.9477 199.166 19.4097L199.326 19.8622C199.391 20.0401 199.429 20.1662 199.45 20.2349C199.473 20.3083 199.481 20.3477 199.481 20.356C199.481 20.3824 199.485 20.4117 199.49 20.446C199.494 20.4805 199.494 20.511 199.481 20.5377C199.45 20.6716 199.394 20.7539 199.312 20.775C199.23 20.7964 199.148 20.8056 199.065 20.7964H198.21V22.0941H204.956V20.7964C204.717 20.8096 204.51 20.8056 204.332 20.7845C204.156 20.7619 203.995 20.7142 203.848 20.637C203.702 20.5588 203.55 20.4421 203.399 20.2774C203.252 20.1183 203.113 19.9366 202.997 19.7336C202.875 19.5304 202.772 19.3261 202.682 19.1193C202.59 18.9161 202.512 18.725 202.452 18.5618C202.387 18.3934 202.344 18.2632 202.308 18.177L197.042 3.93394Z" fill="#FF0033"/>
<path d="M90.4399 37.6067C90.4399 35.6802 91.0163 34.1066 92.169 32.8855C93.3218 31.6644 94.8538 31.054 96.7651 31.054C97.7661 31.054 98.6384 31.2057 99.3814 31.5091C100.383 31.9338 100.883 32.5708 100.883 33.4203C100.883 33.86 100.739 34.2318 100.451 34.5352C100.163 34.8385 99.7986 34.99 99.3588 34.99C99.0706 34.99 98.6952 34.8954 98.2325 34.7057C97.77 34.5161 97.2808 34.4214 96.7651 34.4214C95.9307 34.4214 95.2862 34.7398 94.8311 35.377C94.4216 35.9534 94.2168 36.6738 94.2168 37.5384C94.2168 38.4485 94.4291 39.1766 94.8538 39.7225C95.3391 40.3294 96.0218 40.6328 96.9016 40.6328C97.4173 40.6328 97.8951 40.5417 98.335 40.3598C98.7749 40.1776 99.1389 40.0866 99.4271 40.0866C99.8518 40.0866 100.197 40.2421 100.462 40.5531C100.728 40.864 100.86 41.2393 100.86 41.6792C100.86 42.4225 100.345 43.052 99.3133 43.5678C98.57 43.9318 97.6448 44.1137 96.5375 44.1137C94.6869 44.1137 93.2005 43.4844 92.078 42.2254C90.9859 41.012 90.4399 39.4723 90.4399 37.6067ZM109.572 37.6067C109.572 35.6802 110.148 34.1066 111.301 32.8855C112.454 31.6644 113.986 31.054 115.897 31.054C116.898 31.054 117.77 31.2057 118.514 31.5091C119.515 31.9338 120.015 32.5708 120.015 33.4203C120.015 33.86 119.871 34.2318 119.583 34.5352C119.295 34.8385 118.931 34.99 118.491 34.99C118.203 34.99 117.827 34.8954 117.365 34.7057C116.902 34.5161 116.413 34.4214 115.897 34.4214C115.063 34.4214 114.418 34.7398 113.963 35.377C113.554 35.9534 113.349 36.6738 113.349 37.5384C113.349 38.4485 113.561 39.1766 113.986 39.7225C114.471 40.3294 115.154 40.6328 116.034 40.6328C116.549 40.6328 117.027 40.5417 117.467 40.3598C117.907 40.1776 118.271 40.0866 118.559 40.0866C118.984 40.0866 119.329 40.2421 119.594 40.5531C119.86 40.864 119.993 41.2393 119.993 41.6792C119.993 42.4225 119.477 43.052 118.445 43.5678C117.702 43.9318 116.777 44.1137 115.67 44.1137C113.819 44.1137 112.333 43.4844 111.21 42.2254C110.118 41.012 109.572 39.4723 109.572 37.6067ZM124.336 38.6305C124.411 39.3435 124.707 39.8895 125.223 40.2687C125.739 40.648 126.368 40.8376 127.111 40.8376C127.733 40.8376 128.484 40.6366 129.364 40.2346C130.244 39.8327 130.79 39.6317 131.002 39.6317C131.973 39.6317 132.458 40.1095 132.458 41.065C132.458 41.429 132.322 41.793 132.048 42.1571C131.563 42.8245 130.79 43.3327 129.728 43.6815C128.833 43.9849 127.9 44.1366 126.929 44.1366C125.109 44.1366 123.592 43.5108 122.379 42.2595C121.165 41.0081 120.559 39.4648 120.559 37.6294C120.559 35.8092 121.139 34.2545 122.299 32.9652C123.46 31.676 124.942 31.0312 126.747 31.0312C127.642 31.0312 128.454 31.1982 129.182 31.5318C130.228 32.0171 131.085 32.7377 131.753 33.6933C132.42 34.6489 132.754 35.6879 132.754 36.8103C132.754 37.417 132.534 37.8796 132.094 38.1983C131.715 38.4865 131.214 38.6305 130.592 38.6305H124.336ZM124.29 36.2188H129.136C129.091 35.5817 128.844 35.0584 128.397 34.6489C127.949 34.2393 127.407 34.0346 126.77 34.0346C126.118 34.0346 125.572 34.2356 125.132 34.6376C124.692 35.0395 124.411 35.5666 124.29 36.2188ZM137.984 43.1354H137.893V46.3209C137.893 48.0802 137.309 48.96 136.141 48.96C134.897 48.96 134.275 48.0652 134.275 46.2752V33.8979C134.275 32.1234 134.897 31.2361 136.141 31.2361C136.869 31.2361 137.453 31.6228 137.893 32.3963C138.636 31.5622 139.645 31.1451 140.919 31.1451C142.618 31.1451 143.998 31.8125 145.06 33.1472C146.031 34.391 146.516 35.8775 146.516 37.6067C146.516 38.8959 146.22 40.0791 145.629 41.156C145.022 42.2936 144.165 43.1354 143.058 43.6815C142.36 44.0304 141.632 44.2048 140.874 44.2048C139.766 44.2048 138.803 43.8484 137.984 43.1354ZM137.893 37.8342C137.893 38.6684 138.083 39.351 138.466 39.8819C138.905 40.4886 139.531 40.792 140.339 40.792C141.147 40.792 141.772 40.4583 142.212 39.7909C142.595 39.1993 142.785 38.4865 142.785 37.6521C142.785 36.8332 142.588 36.1353 142.189 35.5589C141.75 34.8915 141.131 34.5579 140.339 34.5579C139.668 34.5579 139.091 34.7816 138.614 35.229C138.132 35.6766 137.893 36.545 137.893 37.8342ZM151.838 41.0878H155.796V34.1711H153.047C152.482 34.1711 152.202 34.4516 152.202 35.013V39.6088C152.202 40.0791 152.08 40.5721 151.838 41.0878ZM158.072 43.818H149.699C149.699 44.8798 149.684 45.494 149.653 45.661C149.517 46.389 149.123 46.7531 148.47 46.7531C147.333 46.7531 146.764 46.154 146.764 44.9556V42.6121C146.764 41.8386 146.946 41.3683 147.31 41.2014C147.628 41.1258 147.955 41.0574 148.288 40.9968C148.652 40.8299 148.834 40.3673 148.834 39.6088V34.9674C148.834 33.6023 149.198 32.6239 149.926 32.0323C150.594 31.5014 151.625 31.2361 153.021 31.2361H157.594C158.337 31.2361 158.845 31.4939 159.118 32.0096C159.315 32.3737 159.414 32.95 159.414 33.7388V41.0878C160.476 41.0878 161.007 41.6111 161.007 42.6576V44.9556C161.007 46.154 160.438 46.7531 159.3 46.7531C158.663 46.7531 158.276 46.3815 158.14 45.6382C158.094 45.4411 158.072 44.8343 158.072 43.818ZM165.941 41.0878H169.969V33.9208C169.969 32.1309 170.571 31.2361 171.777 31.2361C172.983 31.2361 173.586 32.1309 173.586 33.9208V41.0878C174.648 41.0878 175.179 41.6111 175.179 42.6576V44.9556C175.179 46.154 174.61 46.7531 173.472 46.7531C172.835 46.7531 172.448 46.3815 172.312 45.6382C172.267 45.4411 172.244 44.8343 172.244 43.818H164.599C163.871 43.818 163.302 43.5373 162.893 42.9762C162.513 42.4604 162.324 41.8309 162.324 41.0878V33.9208C162.324 32.1309 162.927 31.2361 164.133 31.2361C165.338 31.2361 165.941 32.1309 165.941 33.9208V41.0878ZM179.408 38.6305C179.484 39.3435 179.78 39.8895 180.295 40.2687C180.811 40.648 181.441 40.8376 182.184 40.8376C182.806 40.8376 183.556 40.6366 184.436 40.2346C185.316 39.8327 185.862 39.6317 186.074 39.6317C187.045 39.6317 187.531 40.1095 187.531 41.065C187.531 41.429 187.394 41.793 187.121 42.1571C186.636 42.8245 185.862 43.3327 184.8 43.6815C183.905 43.9849 182.973 44.1366 182.002 44.1366C180.182 44.1366 178.665 43.5108 177.451 42.2595C176.238 41.0081 175.631 39.4648 175.631 37.6294C175.631 35.8092 176.211 34.2545 177.372 32.9652C178.532 31.676 180.015 31.0312 181.82 31.0312C182.715 31.0312 183.526 31.1982 184.254 31.5318C185.301 32.0171 186.158 32.7377 186.825 33.6933C187.493 34.6489 187.826 35.6879 187.826 36.8103C187.826 37.417 187.607 37.8796 187.167 38.1983C186.787 38.4865 186.287 38.6305 185.665 38.6305H179.408ZM179.363 36.2188H184.209C184.163 35.5817 183.917 35.0584 183.469 34.6489C183.022 34.2393 182.48 34.0346 181.843 34.0346C181.19 34.0346 180.644 34.2356 180.204 34.6376C179.765 35.0395 179.484 35.5666 179.363 36.2188ZM196.89 38.4524L197.038 38.4485L199.002 33.0372C199.442 31.8352 200.314 31.2361 201.615 31.2361C202.81 31.2361 203.553 31.8731 203.841 33.1472L205.707 41.2925C205.843 41.884 205.912 42.3694 205.912 42.7486C205.912 43.1583 205.692 43.4994 205.252 43.7726C204.873 44 204.463 44.1137 204.023 44.1137C203.083 44.1137 202.476 43.4388 202.203 42.0889L200.993 36.3022L198.745 42.3392C198.305 43.5223 197.713 44.1137 196.97 44.1137C196.227 44.1137 195.635 43.5223 195.195 42.3392L192.969 36.3022L191.737 42.0889C191.449 43.4388 190.842 44.1137 189.917 44.1137C189.477 44.1137 189.067 44 188.688 43.7726C188.248 43.4994 188.028 43.1583 188.028 42.7486C188.028 42.3694 188.097 41.884 188.233 41.2925L190.099 33.1472C190.387 31.8731 191.127 31.2361 192.317 31.2361C193.618 31.2361 194.482 31.839 194.922 33.041L196.89 38.4524Z" fill="#FF0033"/>
</svg>
