<svg viewBox="0 0 513 163" fill="none" xmlns="http://www.w3.org/2000/svg">
<path fill-rule="evenodd" clip-rule="evenodd" d="M65.8129 0C29.4655 0 0 29.4655 0 65.8129V162.178H446.749C483.096 162.178 512.562 132.712 512.562 96.3648V0H65.8129ZM53.4007 73.5107V109.744H65.4784V73.5107H74.4326V64.6815H65.4784V61.0581C65.4784 56.8101 67.7413 54.6861 72.267 54.6861C73.7108 54.6861 74.9324 54.811 75.9319 55.0609L76.0569 45.7319C73.6413 45.1766 71.6006 44.8989 69.9347 44.8989C64.7149 44.8989 60.6473 46.3011 57.732 49.1053C54.8445 51.8818 53.4007 55.7967 53.4007 60.8499V64.6815H46.6954V73.5107H53.4007ZM104.234 109.744C103.679 108.661 103.276 107.315 103.026 105.704C100.111 108.953 96.3209 110.577 91.6564 110.577C87.2417 110.577 83.5768 109.3 80.6614 106.745C77.7739 104.191 76.3301 100.97 76.3301 97.0832C76.3301 92.3076 78.0932 88.6426 81.6193 86.0882C85.1732 83.5339 90.2959 82.2428 96.9872 82.215H102.526V79.6329C102.526 77.5505 101.985 75.8846 100.902 74.6352C99.847 73.3858 98.1672 72.7611 95.8627 72.7611C93.8359 72.7611 92.2394 73.2469 91.0733 74.2187C89.9349 75.1905 89.3657 76.5232 89.3657 78.2169H77.3296C77.3296 75.607 78.1348 73.1914 79.7452 70.9702C81.3556 68.749 83.6323 67.0137 86.5754 65.7643C89.5184 64.4871 92.8225 63.8485 96.4875 63.8485C102.04 63.8485 106.441 65.2506 109.69 68.0549C112.966 70.8314 114.604 74.7463 114.604 79.7995V99.3321C114.632 103.608 115.229 106.843 116.395 109.036V109.744H104.234ZM99.1945 100.207C97.6952 100.984 96.0571 101.373 94.2801 101.373C92.4477 101.373 91.0039 100.887 89.9488 99.9152C88.8937 98.9434 88.3662 97.7079 88.3662 96.2086L88.4079 95.5006C88.7966 91.3358 92.0034 89.2534 98.0284 89.2534H102.526V96.9999C101.804 98.3326 100.694 99.4015 99.1945 100.207ZM142.281 75.6347C143.531 75.6347 144.975 75.7458 146.613 75.9679L146.779 64.3899C145.613 64.029 144.364 63.8485 143.031 63.8485C138.755 63.8485 135.409 65.917 132.994 70.054L132.661 64.6815H121.291V109.744H133.327V80.2576C134.743 77.1757 137.728 75.6347 142.281 75.6347ZM161.171 64.6815L161.546 69.7208C164.739 65.8059 169.056 63.8485 174.498 63.8485C180.301 63.8485 184.285 66.1391 186.451 70.7203C189.616 66.1391 194.128 63.8485 199.986 63.8485C204.873 63.8485 208.51 65.2784 210.898 68.1382C213.286 70.9702 214.48 75.246 214.48 80.9656V109.744H202.402V81.0073C202.402 78.4529 201.902 76.5926 200.903 75.4265C199.903 74.2326 198.14 73.6357 195.613 73.6357C192.004 73.6357 189.505 75.3571 188.117 78.7999L188.158 109.744H176.122V81.0489C176.122 78.439 175.609 76.551 174.581 75.3848C173.554 74.2187 171.805 73.6357 169.334 73.6357C165.919 73.6357 163.448 75.0517 161.921 77.8837V109.744H149.884V64.6815H161.171ZM221.833 109.744H233.911V45.7735H221.833V109.744ZM262.046 110.577C255.438 110.577 250.052 108.55 245.887 104.496C241.75 100.443 239.681 95.0424 239.681 88.2956V87.1294C239.681 82.6037 240.556 78.5639 242.305 75.01C244.054 71.4283 246.525 68.6796 249.718 66.7638C252.939 64.8203 256.604 63.8485 260.713 63.8485C266.877 63.8485 271.722 65.7921 275.248 69.6792C278.802 73.5662 280.579 79.0776 280.579 86.2132V91.1276H251.884C252.273 94.0707 253.439 96.4307 255.382 98.2076C257.354 99.9846 259.839 100.873 262.837 100.873C267.474 100.873 271.097 99.1933 273.707 95.8337L279.621 102.456C277.816 105.01 275.373 107.009 272.291 108.453C269.209 109.869 265.794 110.577 262.046 110.577ZM254.841 76.0096C256.34 74.3992 258.284 73.594 260.672 73.594C263.226 73.594 265.197 74.3298 266.586 75.8013C267.974 77.2451 268.696 79.2997 268.751 81.9651V82.923H252.009C252.425 79.9244 253.369 77.6199 254.841 76.0096ZM296.345 69.8874L295.97 64.6815H284.642V109.744H296.678V77.967C298.372 75.0794 300.913 73.6357 304.3 73.6357C306.882 73.6357 308.728 74.2187 309.839 75.3848C310.95 76.5232 311.505 78.3696 311.505 80.924V109.744H323.541V80.6324C323.485 75.0517 322.292 70.8592 319.959 68.0549C317.627 65.2506 314.073 63.8485 309.298 63.8485C303.883 63.8485 299.566 65.8615 296.345 69.8874ZM328.27 86.8795C328.27 79.855 329.839 74.2604 332.977 70.0956C336.142 65.9309 340.459 63.8485 345.929 63.8485C350.316 63.8485 353.939 65.4866 356.799 68.7629V45.7735H368.877V109.744H358.007L357.424 104.955C354.425 108.703 350.566 110.577 345.846 110.577C340.543 110.577 336.281 108.495 333.06 104.33C329.867 100.137 328.27 94.3206 328.27 86.8795ZM342.514 97.458C341.042 95.209 340.307 91.9744 340.307 87.7541C340.307 78.3418 343.208 73.6357 349.011 73.6357C352.704 73.6357 355.3 75.2044 356.799 78.3418V96.1253C355.272 99.2627 352.648 100.831 348.928 100.831C346.123 100.831 343.985 99.707 342.514 97.458ZM441.163 110.577C446.411 110.577 450.52 108.772 453.491 105.163L453.824 109.744H465.152V64.6815H453.074V96.5834C451.547 99.4154 448.743 100.831 444.662 100.831C440.386 100.831 438.248 98.4853 438.248 93.793V64.6815H426.212V94.2095C426.267 99.5681 427.558 103.636 430.085 106.412C432.639 109.189 436.332 110.577 441.163 110.577ZM423.232 75.9679C421.593 75.7458 420.15 75.6347 418.9 75.6347C414.347 75.6347 411.362 77.1757 409.946 80.2576V109.744H397.91V64.6815H409.28L409.613 70.054C412.028 65.917 415.374 63.8485 419.65 63.8485C420.983 63.8485 422.232 64.029 423.398 64.3899L423.232 75.9679ZM378.187 99.1655C376.91 100.359 376.272 101.914 376.272 103.83C376.272 105.718 376.91 107.259 378.187 108.453C379.465 109.619 381.089 110.202 383.06 110.202C385.059 110.202 386.697 109.619 387.975 108.453C389.252 107.259 389.89 105.718 389.89 103.83C389.89 101.914 389.238 100.359 387.933 99.1655C386.656 97.9716 385.031 97.3747 383.06 97.3747C381.117 97.3747 379.492 97.9716 378.187 99.1655Z" fill="#00A052"/>
</svg>
