<?xml version="1.0" encoding="utf-8"?>
<!DOCTYPE svg PUBLIC "-//W3C//DTD SVG 1.1//EN" "http://www.w3.org/Graphics/SVG/1.1/DTD/svg11.dtd">
<svg version="1.1" id="Layer_1" xmlns="http://www.w3.org/2000/svg" xmlns:xlink="http://www.w3.org/1999/xlink" x="0px" y="0px"
	 width="220px" height="36px" viewBox="0 0 220 36" enable-background="new 0 0 220 36" xml:space="preserve">
<path   fill="#5BD240" d="M42.817,23.166c0.827,4.184,4.757,4.854,9.118,4.869
	c4.894,0.017,8.826-0.776,8.847-6.396c0.009-2.486-0.793-4.521-3.539-4.647v-0.223c2.651-0.337,3.311-2.453,3.32-4.854
	c0.021-5.546-5.06-5.847-8.548-5.864c-4.771-0.014-8.201,0.66-8.931,4.77l8.352,0.038c2.935,0.006,3.333,0.411,3.33,2.097
	c-0.009,1.467-0.538,1.932-3.343,1.919l-1.995-0.007l-0.014,3.994l1.995,0.006c3.02,0.011,3.612,0.576,3.609,2.039
	c-0.01,2.276-1.258,2.302-3.625,2.293L42.817,23.166L42.817,23.166z"/>
<path   fill="#5BD240" d="M83.813,22.943l0.06-16.613L67.231,6.269l-0.027,7.354
	c-0.023,6.583-1.592,7.853-3.093,9.248l-1.436-0.003l-0.033,9.476l5.456,0.021l0.016-4.459l12.287,0.047l-0.016,4.459l5.456,0.021
	l0.033-9.479L83.813,22.943z M78.046,22.921l-7.823-0.03c1.062-1.05,2.413-2.889,2.434-9.245l0.01-2.34l5.423,0.021L78.046,22.921z"
	/>
<path   fill="#5BD240" d="M97.252,6.219c-5.831-0.02-9.981,1.212-10.005,7.886l-0.023,6.105
	c-0.023,6.675,4.117,7.971,9.947,7.989c5.866,0.021,10.009-1.241,10.036-7.916l0.022-6.105
	C107.253,7.504,103.115,6.242,97.252,6.219z M101.282,19.645c-0.01,3.21-1.067,3.545-4.097,3.534
	c-2.989-0.01-4.043-0.358-4.033-3.568l0.013-4.859c0.017-3.216,1.074-3.521,4.07-3.511c3.023,0.011,4.077,0.328,4.07,3.538
	L101.282,19.645z"/>
<path   fill="#5BD240" d="M110.452,28.061l5.77,0.022l0.059-16.615l3.927,0.013
	c2.275,0.01,2.624,0.693,2.614,2.938c-0.011,2.775-0.36,3.116-2.638,3.11l-3.927-0.014l1.266,5.025l3.799,0.013
	c6.048,0.021,7.393-2.03,7.413-8.113c0.021-5.67-1.987-7.957-7.355-7.973l-10.85-0.041L110.452,28.061L110.452,28.061z"/>
<path   fill="#5BD240" d="M140.929,6.38c-5.828-0.021-9.978,1.211-10.005,7.886l-0.02,6.105
	c-0.023,6.673,4.117,7.967,9.943,7.989c5.857,0.021,10.016-1.244,10.04-7.92l0.022-6.104C150.935,7.662,146.79,6.399,140.929,6.38z
	 M144.966,19.802c-0.01,3.21-1.074,3.548-4.098,3.535c-2.992-0.008-4.057-0.354-4.044-3.562l0.018-4.867
	c0.01-3.214,1.077-3.522,4.07-3.508c3.023,0.009,4.082,0.324,4.069,3.539L144.966,19.802z"/>
<path   fill="#5BD240" d="M169.012,17.395v-0.216c2.868-0.46,3.407-2.233,3.41-4.979
	c0.02-4.739-2.5-5.556-6.805-5.577l-11.378-0.04l-0.077,21.636l11.502,0.044c4.579,0.013,7.045-0.69,7.069-5.996
	C172.74,19.558,172.222,17.626,169.012,17.395z M164.312,23.52l-4.368-0.016l0.032-8.227l-0.002-0.007h0.002l0.016-3.922
	l4.859,0.016c1.624,0.004,1.807,0.566,1.801,1.845c-0.007,1.747-0.506,2.084-2.497,2.078l-4.179-0.017v0.007l0.981,3.993
	l3.495,0.012c1.871,0.006,2.521,0.286,2.519,2.067C166.963,23.093,166.179,23.528,164.312,23.52z"/>
<path   fill="#5BD240" d="M185.998,34.821l4.958,0.016l0.064-17.301l2.74,0.014
	c2.092,0.006,2.463,0.067,2.448,3.245c-0.003,2.558-0.159,3.245-2.473,3.239l-2.744-0.012l1.703,4.338l2.712,0.012
	c4.181,0.012,5.74-1.822,5.757-6.431l0.013-3.125c0.018-4.019-2.064-5.585-5.713-5.596l-9.385-0.036L185.998,34.821L185.998,34.821z
	"/>
<path   fill="#5BD240" d="M205.769,35.047c0.558,0.032,1.116,0.098,1.681,0.102
	c4.208,0.018,5.584-1.445,6.532-5.371l4.022-16.477l-5.048-0.019l-2.38,10.964c-0.461,0-0.927-0.97-1.12-1.75l-2.02-9.235
	l-5.179-0.02l3.048,11.019c0.617,2.246,2.201,4.154,4.38,4.165c-0.565,1.74-0.665,3.27-2.725,3.264
	c-0.622-0.003-0.933-0.042-1.18-0.134L205.769,35.047z"/>
<rect x="176.047" y="23.294" transform="matrix(-1 -0.0036 0.0036 -1 357.9668 53.1873)"   fill="#ED1C24" width="5.968" height="5.955"/>
<path   fill="#ED1C24" d="M26.71,2.475c-2.73-0.011-5.214,1.017-7.086,2.717
	c-1.862-1.711-4.342-2.761-7.067-2.77C6.759,2.402,2.04,7.084,2.021,12.884C1.995,19.72,7.907,28.044,19.51,34.277
	c0,0,0.009,0,0.015,0c11.646-6.147,17.62-14.432,17.646-21.268C37.19,7.212,32.504,2.497,26.71,2.475z"/>
<path   fill="#FFFFFF" d="M18.988,29.686L8.812,19.435l2.929-2.616l5.966,4.254
	c4.44-5.378,9.517-9.488,15.114-12.916c0.354,0.27,1.056,1.374,1.246,1.871C27.75,15.582,22.983,22.176,18.988,29.686z"/>
</svg>
