<svg width="143" height="19" viewBox="0 0 143 19" fill="none" xmlns="http://www.w3.org/2000/svg">
<path d="M26.5082 1.69389C23.8232 0.79525 20.6269 0.281738 17.2175 0.281738C13.6376 0.281738 10.3561 0.79525 7.58593 1.82227C2.98323 3.44839 0 6.22991 0 9.35377C0 12.4348 2.98323 15.1736 7.58593 16.8425C10.3135 17.7839 13.6376 18.383 17.2175 18.383C20.6269 18.383 23.8232 17.8695 26.5082 16.9281C31.2387 15.3019 34.3924 12.5204 34.3924 9.35377C34.3924 6.14432 31.2387 3.32001 26.5082 1.69389ZM13.6803 16.9708C11.9329 16.6713 10.3987 16.0722 9.07755 15.3019L10.3987 14.7028C11.3363 15.3019 12.487 15.7727 13.6803 16.0722V16.9708ZM8.05473 12.5204C8.52352 13.2479 9.2054 13.8898 9.97252 14.4461L8.65137 15.088C8.56614 15.0452 8.52352 15.0024 8.43829 14.9596C6.30741 13.5047 4.98626 11.579 4.98626 9.43935C4.98626 7.29972 6.26479 5.33126 8.43829 3.87632L9.80205 4.47541C9.16278 4.94613 8.60876 5.50243 8.18258 6.14432H7.0319V12.5204H8.05473ZM13.6803 15.6871C12.6148 15.4303 11.6772 15.0024 10.8249 14.4889L12.7 13.633C12.7853 13.5902 12.8279 13.4619 12.7853 13.3763C12.7427 13.2907 12.6148 13.2479 12.5296 13.2907L10.4413 14.2321C9.71681 13.7186 9.07755 13.1623 8.60876 12.5204H13.7229V15.6871H13.6803ZM13.6803 6.10153H8.69399C9.12017 5.54523 9.63158 5.07451 10.2708 4.64658L12.5296 5.58802C12.6148 5.63081 12.7427 5.58802 12.7853 5.45964C12.8279 5.37406 12.7853 5.24568 12.7 5.20289L10.697 4.34703C11.592 3.79073 12.6148 3.3628 13.7229 3.06326V6.10153H13.6803ZM13.6803 2.63533C12.3591 2.97767 11.2084 3.49118 10.1856 4.13307L8.86446 3.57677C10.2282 2.76371 11.8477 2.16461 13.6803 1.82227V2.63533ZM13.6803 1.43714C8.4809 2.33578 4.6027 5.54523 4.6027 9.43935C4.6027 13.2907 8.4809 16.4573 13.6803 17.3988V17.4416C11.4641 17.142 9.37587 16.6285 7.62855 15.8582C3.96344 14.3177 1.61947 11.9641 1.61947 9.26818C1.61947 6.61504 3.96344 4.21866 7.62855 2.63533C9.37587 1.95065 11.4641 1.35155 13.6803 1.0948V1.43714ZM20.1155 1.82227C21.9055 2.16461 23.4823 2.76371 24.8461 3.57677L23.6102 4.17586C22.6299 3.49118 21.4367 2.97767 20.1155 2.63533V1.82227ZM25.5279 6.10153C25.1018 5.50243 24.5904 4.94613 23.9511 4.47541L25.2296 3.83352L25.2722 3.87632C27.4457 5.33126 28.7243 7.29972 28.7243 9.43935C28.7243 11.5362 27.4457 13.4619 25.3575 14.874L24.0789 14.2321C24.7182 13.7186 25.2296 13.1623 25.6558 12.5204H26.636V6.10153H25.5279ZM20.1155 3.06326C21.2662 3.3628 22.289 3.83352 23.184 4.38983L21.6924 5.1173C21.6071 5.16009 21.5645 5.28847 21.6071 5.37406C21.6497 5.45964 21.7776 5.50243 21.8628 5.45964L23.5675 4.60379C24.1216 5.03172 24.633 5.50244 25.0165 6.05874H20.1155V3.06326ZM20.1155 12.5204H25.1444C24.7608 13.0767 24.2494 13.5902 23.6528 14.0182L21.8628 13.2051C21.7776 13.1623 21.6497 13.2051 21.6071 13.2907C21.5645 13.3763 21.6071 13.5047 21.6924 13.5474L23.2692 14.2749C22.3742 14.874 21.3088 15.3447 20.1155 15.6443V12.5204ZM20.1155 16.115C21.4793 15.7727 22.6726 15.2164 23.6954 14.5317L25.0165 15.1308C23.6528 15.9866 21.9907 16.6285 20.1581 16.9708V16.115H20.1155ZM26.5082 16.0294C24.633 16.7141 22.4595 17.2704 20.1155 17.5272V17.3988C25.2722 16.4573 29.1504 13.2907 29.1504 9.43935C29.1504 7.08576 27.7014 4.98892 25.4427 3.49118C25.4001 3.44839 25.3575 3.4056 25.3149 3.4056C23.8659 2.50695 22.0759 1.82227 20.1155 1.43714V1.0948C22.4595 1.35155 24.633 1.82227 26.5082 2.59254C30.3437 4.13307 32.8582 6.57225 32.8582 9.31098C32.8582 12.0497 30.3437 14.4889 26.5082 16.0294Z" fill="#ED1C24"/>
<path d="M40.9453 13.092V12.1639L41.4968 12.0844L43.9522 5.37064H45.5378L47.9772 12.0844L48.5288 12.1639V13.092H45.8984V12.1639L46.434 12.0685L46.0946 11.0078H43.3794L43.04 12.0685L43.5757 12.1639V13.092H40.9453ZM43.7454 9.86768H45.7287L44.8272 7.22143L44.7529 6.98809H44.7211L44.6416 7.23734L43.7454 9.86768Z" fill="#ED1C24"/>
<path d="M48.9823 13.092V12.1639L49.8043 12.0048V6.46308L48.9823 6.30399V5.37064H56.8733V6.30399L56.0513 6.46308V12.0048L56.8733 12.1639V13.092H53.6808V12.1639L54.5028 12.0048V6.56384H51.3528V12.0048L52.18 12.1639V13.092H48.9823Z" fill="#ED1C24"/>
<path d="M59.0981 13.092V12.1639L59.9253 12.0048V6.56384H58.52L58.4352 7.48658H57.2632V5.37064H64.1519V7.48658H62.9746L62.8898 6.56384H61.4738V12.0048L62.3064 12.1639V13.092H59.0981Z" fill="#ED1C24"/>
<path d="M64.5842 13.092V12.1639L65.4062 12.0048V6.46308L64.5842 6.30399V5.37064H70.5767V7.45476H69.3888L69.3199 6.56384H66.9547V8.50478H69.5691V9.69798H66.9547V11.9041H69.4472L69.5161 10.9813H70.6934V13.092H64.5842Z" fill="#ED1C24"/>
<path d="M71.4121 13.092V12.1639L72.2341 12.0048V6.46308L71.4121 6.30399V5.37064H74.5674V6.30399L73.7826 6.46308V8.52599H74.4773L75.925 6.44187C76.2326 6.01055 76.5172 5.71181 76.7788 5.54564C77.0404 5.37948 77.3321 5.2964 77.6538 5.2964C77.8518 5.2964 78.0286 5.32115 78.1841 5.37064C78.3432 5.42014 78.4882 5.48554 78.619 5.56686L78.3591 6.72824C78.2849 6.71056 78.216 6.69642 78.1523 6.68581C78.0922 6.67167 78.0321 6.6646 77.972 6.6646C77.82 6.6646 77.6697 6.71056 77.5213 6.80248C77.3763 6.8944 77.2066 7.06587 77.0122 7.31688L75.8031 8.97145L77.9402 12.0313L78.7516 12.1639V13.092H75.6917V12.1639L76.1318 12.1003L76.1212 12.0844L74.6894 9.93131H73.7826V12.0048L74.5674 12.1639V13.092H71.4121Z" fill="#ED1C24"/>
<path d="M78.9877 13.092V12.1639L79.5392 12.0844L81.9945 5.37064H83.5802L86.0196 12.0844L86.5711 12.1639V13.092H83.9408V12.1639L84.4764 12.0685L84.137 11.0078H81.4218L81.0824 12.0685L81.618 12.1639V13.092H78.9877ZM81.7877 9.86768H83.7711L82.8695 7.22143L82.7953 6.98809H82.7635L82.6839 7.23734L81.7877 9.86768Z" fill="#ED1C24"/>
<path d="M90.7396 12.4768L89.2547 10.4086V10.3078L90.7396 8.23962H91.7312L90.4585 10.3609L91.7312 12.4768H90.7396ZM92.8343 12.4768L91.3494 10.4086V10.3078L92.8343 8.23962H93.826L92.5532 10.3609L93.826 12.4768H92.8343Z" fill="#ED1C24"/>
<path d="M98.0182 13.2033C97.4985 13.2033 97.0247 13.1061 96.597 12.9117C96.1692 12.7172 95.7997 12.445 95.4886 12.095C95.181 11.7414 94.9441 11.3278 94.778 10.8541C94.6118 10.3768 94.5287 9.8553 94.5287 9.28964V9.17297C94.5287 8.61084 94.6118 8.0929 94.778 7.61916C94.9441 7.14188 95.181 6.72647 95.4886 6.37293C95.7962 6.01939 96.1639 5.7454 96.5916 5.55095C97.0194 5.3565 97.4932 5.25928 98.0129 5.25928C98.5361 5.25928 99.0134 5.3565 99.4447 5.55095C99.876 5.7454 100.247 6.01939 100.558 6.37293C100.869 6.72647 101.108 7.14188 101.274 7.61916C101.444 8.0929 101.529 8.61084 101.529 9.17297V9.28964C101.529 9.8553 101.444 10.3768 101.274 10.8541C101.108 11.3278 100.869 11.7414 100.558 12.095C100.247 12.445 99.876 12.7172 99.4447 12.9117C99.0169 13.1061 98.5414 13.2033 98.0182 13.2033ZM98.0182 11.9995C98.4566 11.9995 98.8207 11.8864 99.1106 11.6601C99.4005 11.4339 99.618 11.1174 99.7629 10.7109C99.9114 10.3043 99.9856 9.83055 99.9856 9.28964V9.16236C99.9856 8.62852 99.9114 8.16008 99.7629 7.75704C99.6144 7.35047 99.3935 7.03405 99.1 6.80778C98.8101 6.58152 98.4477 6.46839 98.0129 6.46839C97.5816 6.46839 97.2227 6.58152 96.9363 6.80778C96.65 7.03051 96.4343 7.3434 96.2894 7.74643C96.148 8.14947 96.0772 8.62145 96.0772 9.16236V9.28964C96.0772 9.83055 96.148 10.3043 96.2894 10.7109C96.4343 11.1174 96.65 11.4339 96.9363 11.6601C97.2262 11.8864 97.5869 11.9995 98.0182 11.9995Z" fill="#ED1C24"/>
<path d="M104.894 13.2033C104.378 13.2033 103.902 13.1185 103.467 12.9488C103.036 12.7791 102.691 12.5298 102.433 12.201C102.175 11.8687 102.051 11.4621 102.062 10.9813L102.073 10.9495H103.579C103.579 11.1475 103.632 11.3278 103.738 11.4904C103.847 11.6531 104.003 11.7821 104.204 11.8776C104.406 11.9695 104.643 12.0154 104.915 12.0154C105.325 12.0154 105.659 11.9111 105.917 11.7025C106.179 11.4904 106.31 11.1935 106.31 10.8116C106.31 10.4758 106.198 10.2124 105.976 10.0215C105.756 9.83055 105.424 9.7351 104.979 9.7351H104.04V8.57372H104.979C105.392 8.57372 105.698 8.4818 105.896 8.29796C106.094 8.11058 106.193 7.86133 106.193 7.55022C106.193 7.21789 106.076 6.95274 105.843 6.75475C105.613 6.55324 105.267 6.45248 104.804 6.45248C104.489 6.45248 104.215 6.49844 103.982 6.59036C103.752 6.67874 103.568 6.79718 103.43 6.94567L103.271 7.90553H102.12V6.44717C102.421 6.0901 102.811 5.80373 103.292 5.58807C103.777 5.36887 104.317 5.25928 104.915 5.25928C105.781 5.25928 106.467 5.44665 106.973 5.82141C107.482 6.19262 107.736 6.70349 107.736 7.354C107.736 7.76411 107.63 8.12119 107.418 8.42523C107.206 8.72928 106.914 8.96261 106.543 9.12524C106.967 9.27726 107.293 9.50706 107.519 9.81464C107.745 10.1187 107.858 10.4917 107.858 10.9336C107.858 11.4038 107.733 11.8086 107.482 12.148C107.234 12.4874 106.888 12.749 106.442 12.9329C105.997 13.1132 105.481 13.2033 104.894 13.2033Z" fill="#ED1C24"/>
<path d="M108.423 13.092V12.1639L109.245 12.0048V6.46308L108.423 6.30399V5.37064H114.416V7.45476H113.228L113.159 6.56384H110.794V8.50478H113.408V9.69798H110.794V11.9041H113.286L113.355 10.9813H114.532V13.092H108.423Z" fill="#ED1C24"/>
<path d="M115.251 13.092V12.1639L116.073 12.0048V6.46308L115.251 6.30399V5.37064H116.073H118.926C119.516 5.37064 120.026 5.47494 120.453 5.68353C120.881 5.88858 121.21 6.17671 121.44 6.54793C121.669 6.91561 121.784 7.34517 121.784 7.83659C121.784 8.32801 121.669 8.75933 121.44 9.13054C121.21 9.49823 120.881 9.78459 120.453 9.98965C120.026 10.1912 119.516 10.2919 118.926 10.2919H117.621V12.0048L118.449 12.1639V13.092H115.251ZM117.621 9.09873H118.926C119.357 9.09873 119.683 8.98206 119.902 8.74872C120.124 8.51185 120.236 8.21134 120.236 7.84719C120.236 7.47598 120.124 7.17016 119.902 6.92976C119.683 6.68581 119.357 6.56384 118.926 6.56384H117.621V9.09873Z" fill="#ED1C24"/>
<path d="M122.174 13.092V12.1639L122.996 12.0048V6.46308L122.174 6.30399V5.37064H125.33V6.30399L124.545 6.46308V8.52599H125.239L126.687 6.44187C126.995 6.01055 127.279 5.71181 127.541 5.54564C127.803 5.37948 128.094 5.2964 128.416 5.2964C128.614 5.2964 128.791 5.32115 128.946 5.37064C129.105 5.42014 129.25 5.48554 129.381 5.56686L129.121 6.72824C129.047 6.71056 128.978 6.69642 128.914 6.68581C128.854 6.67167 128.794 6.6646 128.734 6.6646C128.582 6.6646 128.432 6.71056 128.283 6.80248C128.138 6.8944 127.969 7.06587 127.774 7.31688L126.565 8.97145L128.702 12.0313L129.514 12.1639V13.092H126.454V12.1639L126.894 12.1003L126.883 12.0844L125.452 9.93131H124.545V12.0048L125.33 12.1639V13.092H122.174Z" fill="#ED1C24"/>
<path d="M129.898 13.092V12.1639L130.726 12.0048V6.46308L129.898 6.30399V5.37064H130.726H132.269H133.096V6.30399L132.269 6.46308V10.0374L132.301 10.048L135.414 6.89263V6.46308L134.592 6.30399V5.37064H135.414H136.967H137.789V6.30399L136.967 6.46308V12.0048L137.789 12.1639V13.092H134.592V12.1639L135.414 12.0048V8.51538L135.382 8.50478L132.269 11.6654V12.0048L133.096 12.1639V13.092H129.898Z" fill="#ED1C24"/>
<path d="M138.28 12.2912L139.547 10.1753L138.28 8.05401H139.272L140.757 10.1222V10.223L139.272 12.2912H138.28ZM140.433 12.2912L141.7 10.1753L140.433 8.05401H141.425L142.91 10.1222V10.223L141.425 12.2912H140.433Z" fill="#ED1C24"/>
</svg>
