<svg width="185" height="44" viewBox="0 0 185 44" fill="none" xmlns="http://www.w3.org/2000/svg">
<path fill-rule="evenodd" clip-rule="evenodd" d="M21.6588 0C9.74647 0 0 9.74647 0 21.6588C0 33.5712 9.74647 43.3177 21.6588 43.3177C33.5712 43.3177 43.3177 33.5712 43.3177 21.6588C43.4079 9.74647 33.6614 0 21.6588 0ZM21.6588 4.51226C12.2733 4.51226 4.51226 12.2733 4.51226 21.6588C4.51226 31.1346 12.1831 38.8054 21.6588 38.8054C31.1346 38.8054 38.8054 31.1346 38.8054 21.6588C38.8956 12.2733 31.1346 4.51226 21.6588 4.51226Z" fill="#2AD1C5"/>
<path fill-rule="evenodd" clip-rule="evenodd" d="M22.4695 9.56641L26.9817 14.0787C25.628 14.9811 24.0939 15.5226 22.4695 15.7031V9.56641ZM22.6499 28.5179V35.0155H20.845V28.4276C19.6719 29.3301 18.3182 29.8716 16.6938 29.8716C15.8816 29.8716 15.1596 29.7813 14.4376 29.5106C15.8816 27.4349 18.2279 25.991 20.9353 25.7203V28.3374L20.845 28.4276H22.3792V25.7203C25.0866 25.991 27.4329 27.3447 28.8769 29.5106C28.1549 29.7813 27.4329 29.8716 26.6207 29.8716C25.1768 29.8716 23.7329 29.3301 22.6499 28.5179ZM28.0646 15.1616L31.5842 18.6812C31.9452 19.1324 32.3062 19.5836 32.5769 20.1251H22.4695V17.2372C24.5451 17.0568 26.5305 16.3348 28.0646 15.1616ZM33.2086 21.6593C33.2989 22.2007 33.3891 22.6519 33.3891 23.1934C33.3891 25.5398 32.2159 27.6154 30.411 28.7886C28.6964 26.1715 25.8085 24.4569 22.5597 24.1861V21.6593H33.2086ZM13.084 28.7886C11.2791 27.6154 10.0156 25.5398 10.0156 23.1934C10.0156 22.6519 10.1059 22.1105 10.1961 21.6593H20.9353V24.1861C17.6865 24.4569 14.7986 26.2618 13.084 28.7886ZM10.7376 20.1251C11.1888 19.3129 11.7303 18.5909 12.4522 18.0494L15.3401 15.1616C16.9645 16.3348 18.8596 17.0568 20.9353 17.2372V20.1251H10.7376ZM16.423 14.0787L20.9353 9.56641V15.7031C19.3109 15.5226 17.6865 14.9811 16.423 14.0787Z" fill="#2AD1C5"/>
<path fill-rule="evenodd" clip-rule="evenodd" d="M52.0712 19.4027H56.5835V7.12939H62.0884V19.4027H66.6007V3.24885H52.0712V19.4027ZM70.391 19.6735C70.9325 19.6735 71.3837 19.5832 71.8349 19.493C72.2861 19.4027 72.7374 19.132 73.0983 18.771C73.4593 18.41 73.8203 17.9588 74.1813 17.4173C74.452 16.8759 74.7227 16.1539 74.9935 15.2514C75.174 14.349 75.3545 13.3563 75.535 12.0929C75.6252 10.8294 75.7154 9.38552 75.7154 7.76111V7.12939H79.5057V19.4027H84.018V3.24885H71.5642V5.41473C71.5642 6.76841 71.5642 8.03184 71.4739 9.11478C71.3837 10.1977 71.3837 11.1002 71.2934 11.8221C71.2032 12.5441 71.1129 13.1758 71.0227 13.7173C70.9325 14.2588 70.752 14.6197 70.6617 14.8905C70.4812 15.1612 70.391 15.4319 70.2105 15.5222C70.03 15.7027 69.8495 15.7929 69.669 15.7929C69.4885 15.8832 69.308 15.8832 69.1276 15.8832C69.0373 15.8832 68.9471 15.8832 68.7666 15.8832C68.6763 15.8832 68.4958 15.8832 68.3153 15.8832C68.2251 15.8832 68.0446 15.8832 67.9544 15.7929L67.6836 19.3125C67.7739 19.3125 68.0446 19.4027 68.3153 19.493C68.5861 19.5832 68.8568 19.5832 69.308 19.6735C69.669 19.5832 70.03 19.6735 70.391 19.6735ZM85.5522 19.4027H90.2449L91.4181 16.5149H97.645L98.8182 19.4027H103.601L96.7426 3.06836H92.4108L85.5522 19.4027ZM92.7718 12.9953L94.5767 8.39282L96.3816 12.9953H92.7718ZM105.226 19.4027H109.738V13.2661H115.514V19.4027H120.026V3.24885H115.514V9.29527H109.738V3.24885H105.226V19.4027ZM122.823 19.4027H135.999V15.6124H127.336V13.0856H135.097V9.56601H127.336V7.03914H135.909V3.24885H122.914V19.4027H122.823ZM142.226 19.4027H146.738V7.12939H151.612V3.24885H137.443V7.21963H142.316V19.4027H142.226ZM150.619 19.4027H155.312L156.485 16.5149H162.712L163.885 19.4027H168.668L161.809 3.06836H157.478L150.619 19.4027ZM157.839 12.9953L159.643 8.39282L161.448 12.9953H157.839ZM58.3884 39.8884C59.3811 39.8884 60.2835 39.7981 61.0957 39.5274C61.9079 39.2566 62.5397 38.8957 63.0811 38.4444C63.6226 37.9932 64.0738 37.4517 64.3446 36.82C64.6153 36.1883 64.7958 35.5566 64.7958 34.8346C64.7958 34.1127 64.7055 33.5712 64.4348 33.12C64.1641 32.6688 63.8933 32.2175 63.4421 31.8566C62.9909 31.4956 62.5397 31.3151 61.9982 31.0443C62.4494 30.8639 62.9006 30.5029 63.2616 30.2321C63.6226 29.8712 63.8933 29.5102 64.0738 29.059C64.2543 28.6077 64.3446 28.0663 64.3446 27.4345C64.3446 26.8028 64.1641 26.2614 63.8933 25.7199C63.6226 25.1784 63.1714 24.7272 62.6299 24.3662C62.0884 24.0052 61.4567 23.6442 60.7348 23.4638C60.0128 23.2833 59.2006 23.1028 58.2981 23.1028C57.3054 23.1028 56.3127 23.193 55.5005 23.4638C54.6883 23.7345 53.9664 24.0052 53.2444 24.4565C52.6127 24.9077 51.981 25.3589 51.4395 25.9004L53.6956 28.5175C53.9664 28.2467 54.2371 28.0663 54.5981 27.8858C54.9591 27.7053 55.32 27.5248 55.681 27.3443C56.042 27.1638 56.403 27.0736 56.8542 26.9833C57.2152 26.8931 57.5762 26.8931 57.9372 26.8931C58.3884 26.8931 58.7494 26.9833 59.0201 27.0736C59.2908 27.1638 59.5616 27.3443 59.7421 27.5248C59.9225 27.7053 60.0128 27.976 60.0128 28.2467C60.0128 28.5175 59.9225 28.7882 59.7421 28.9687C59.5616 29.1492 59.3811 29.3297 59.0201 29.5102C58.6591 29.6004 58.2079 29.6907 57.6664 29.6907H56.042V33.0297H57.7567C58.6591 33.0297 59.2908 33.12 59.7421 33.3907C60.1933 33.6615 60.3738 34.0224 60.3738 34.4737C60.3738 34.7444 60.2835 35.0151 60.103 35.2859C59.9225 35.5566 59.6518 35.7371 59.2908 35.8273C58.9298 35.9176 58.4786 36.0078 57.9372 36.0078C57.3054 36.0078 56.6737 35.9176 56.1323 35.7371C55.5908 35.5566 55.0493 35.3761 54.5981 35.1054C54.1469 34.8346 53.6956 34.4737 53.3347 34.1127L50.9883 37.0908C51.4395 37.4517 51.8907 37.903 52.4322 38.1737C52.8834 38.5347 53.4249 38.8054 54.0566 38.9859C54.5981 39.2566 55.32 39.4371 56.042 39.5274C56.5835 39.7981 57.3957 39.8884 58.3884 39.8884ZM65.6982 42.7762H69.7593L70.03 39.5274H78.6033V42.7762H82.3936L82.9351 35.6468H81.1302V23.3735H68.7666V23.8247C68.7666 24.9979 68.7666 26.1711 68.6763 27.0736C68.5861 28.0663 68.5861 28.9687 68.4958 29.7809C68.4056 30.5931 68.3153 31.3151 68.1349 31.9468C68.0446 32.5785 67.8641 33.3005 67.6836 33.8419C67.5031 34.4737 67.3227 35.0151 67.0519 35.6468H65.608V42.7762H65.6982ZM71.8349 35.6468C72.0154 35.1054 72.1959 34.5639 72.3764 33.9322C72.5569 33.3907 72.6471 32.759 72.7374 32.037C72.8276 31.4053 72.9178 30.6834 73.0081 29.8712C73.0983 29.1492 73.0983 28.2467 73.0983 27.4345V27.2541H76.6179V35.5566H71.8349V35.6468ZM92.862 39.8884C93.8547 39.8884 94.8474 39.7079 95.6596 39.4371C96.5621 39.1664 97.3743 38.7152 98.0962 38.264C98.8182 37.7225 99.4499 37.181 99.9914 36.4591C100.533 35.7371 100.894 35.0151 101.165 34.1127C101.435 33.3005 101.616 32.398 101.616 31.4956C101.616 30.5931 101.435 29.6907 101.165 28.7882C100.894 27.976 100.443 27.1638 99.9914 26.4418C99.4499 25.7199 98.8182 25.1784 98.0962 24.6369C97.3743 24.0955 96.5621 23.7345 95.6596 23.4638C94.7572 23.193 93.8547 23.0125 92.862 23.0125C91.8693 23.0125 90.8766 23.193 90.0644 23.4638C89.162 23.7345 88.3498 24.1857 87.6278 24.6369C86.9058 25.1784 86.2741 25.7199 85.7327 26.4418C85.1912 27.1638 84.8302 27.8858 84.5595 28.7882C84.2887 29.6004 84.1082 30.5029 84.1082 31.4053C84.1082 32.3078 84.2887 33.2102 84.5595 34.1127C84.8302 34.9249 85.2814 35.7371 85.7327 36.4591C86.2741 37.181 86.9058 37.7225 87.6278 38.264C88.3498 38.8054 89.162 39.1664 90.0644 39.4371C90.9669 39.7079 91.8693 39.8884 92.862 39.8884ZM92.9523 35.8273C92.3205 35.8273 91.7791 35.7371 91.2376 35.4664C90.6961 35.1956 90.3352 34.9249 89.9742 34.4737C89.6132 34.1127 89.3425 33.5712 89.162 33.12C88.9815 32.5785 88.8912 32.037 88.8912 31.4053C88.8912 30.7736 88.9815 30.2321 89.162 29.6907C89.3425 29.1492 89.6132 28.698 89.9742 28.337C90.3352 27.976 90.7864 27.615 91.2376 27.4345C91.7791 27.1638 92.3205 27.0736 92.9523 27.0736C93.584 27.0736 94.1255 27.1638 94.6669 27.4345C95.2084 27.7053 95.5694 27.976 96.0206 28.4272C96.3816 28.7882 96.6523 29.3297 96.8328 29.7809C97.0133 30.3224 97.1035 30.8639 97.1035 31.4956C97.1035 32.1273 97.0133 32.6688 96.8328 33.2102C96.6523 33.7517 96.3816 34.2029 96.0206 34.5639C95.6596 34.9249 95.2084 35.2859 94.7572 35.4664C94.1255 35.7371 93.584 35.8273 92.9523 35.8273ZM103.962 39.5274H108.474V34.9249H110.731C111.723 34.9249 112.626 34.8346 113.528 34.5639C114.34 34.2932 115.153 33.9322 115.694 33.481C116.326 33.0297 116.777 32.398 117.138 31.6761C117.499 30.9541 117.679 30.1419 117.679 29.1492C117.679 28.2467 117.499 27.4345 117.228 26.7126C116.867 25.9906 116.416 25.3589 115.875 24.9077C115.333 24.4565 114.611 24.0052 113.709 23.8247C112.896 23.554 111.994 23.4638 110.911 23.4638H103.962V39.5274ZM108.474 31.4053V27.1638H110.55C111.092 27.1638 111.543 27.2541 111.904 27.4345C112.265 27.615 112.626 27.7955 112.806 28.1565C112.987 28.5175 113.077 28.8785 113.077 29.3297C113.077 29.7809 112.987 30.1419 112.806 30.5029C112.626 30.8639 112.265 31.0443 111.904 31.2248C111.543 31.4053 111.092 31.4956 110.55 31.4956H108.474V31.4053ZM127.697 39.8884C128.689 39.8884 129.682 39.7079 130.494 39.4371C131.397 39.1664 132.209 38.7152 132.931 38.264C133.653 37.7225 134.285 37.181 134.826 36.4591C135.367 35.7371 135.728 35.0151 135.999 34.1127C136.27 33.3005 136.45 32.398 136.45 31.4956C136.45 30.5931 136.27 29.6907 135.999 28.7882C135.728 27.976 135.277 27.1638 134.826 26.4418C134.285 25.7199 133.653 25.1784 132.931 24.6369C132.209 24.0955 131.397 23.7345 130.494 23.4638C129.592 23.193 128.689 23.0125 127.697 23.0125C126.704 23.0125 125.711 23.193 124.899 23.4638C123.997 23.7345 123.184 24.1857 122.462 24.6369C121.74 25.1784 121.109 25.7199 120.567 26.4418C120.026 27.1638 119.665 27.8858 119.394 28.7882C119.123 29.6004 118.943 30.5029 118.943 31.4053C118.943 32.3078 119.123 33.2102 119.394 34.1127C119.665 34.9249 120.116 35.7371 120.567 36.4591C121.109 37.181 121.74 37.7225 122.462 38.264C123.184 38.8054 123.997 39.1664 124.899 39.4371C125.711 39.7079 126.704 39.8884 127.697 39.8884ZM127.697 35.8273C127.065 35.8273 126.523 35.7371 125.982 35.4664C125.441 35.1956 125.08 34.9249 124.719 34.4737C124.358 34.1127 124.087 33.5712 123.906 33.12C123.726 32.5785 123.636 32.037 123.636 31.4053C123.636 30.7736 123.726 30.2321 123.906 29.6907C124.087 29.1492 124.358 28.698 124.719 28.337C125.08 27.976 125.531 27.615 125.982 27.4345C126.523 27.1638 127.065 27.0736 127.697 27.0736C128.328 27.0736 128.87 27.1638 129.411 27.4345C129.953 27.7053 130.314 27.976 130.765 28.4272C131.126 28.7882 131.397 29.3297 131.577 29.7809C131.758 30.3224 131.848 30.8639 131.848 31.4956C131.848 32.1273 131.758 32.6688 131.577 33.2102C131.397 33.7517 131.126 34.2029 130.765 34.5639C130.404 34.9249 129.953 35.2859 129.502 35.4664C128.87 35.7371 128.328 35.8273 127.697 35.8273ZM138.797 39.5274H147.19C148.453 39.5274 149.626 39.3469 150.529 38.9859C151.431 38.6249 152.153 38.0835 152.604 37.4517C153.056 36.82 153.326 36.0078 153.326 35.1054C153.326 34.3834 153.236 33.7517 152.965 33.2102C152.695 32.6688 152.334 32.3078 151.882 31.9468C151.431 31.5858 150.799 31.3151 150.168 31.1346C150.619 30.9541 151.07 30.6834 151.431 30.3224C151.792 29.9614 152.063 29.6004 152.334 29.1492C152.514 28.698 152.695 28.1565 152.695 27.5248C152.695 26.9833 152.604 26.4418 152.424 25.9906C152.243 25.5394 151.973 25.1784 151.702 24.8174C151.251 24.3662 150.619 24.0052 149.897 23.7345C149.175 23.4638 148.273 23.3735 147.28 23.3735H138.977V39.5274H138.797ZM143.129 35.9176V32.9395H146.558C147.28 32.9395 147.821 33.12 148.182 33.3005C148.543 33.5712 148.724 33.9322 148.724 34.3834C148.724 34.9249 148.543 35.2859 148.182 35.5566C147.821 35.8273 147.28 35.9176 146.558 35.9176H143.129ZM143.129 29.8712V26.9833H146.016C146.648 26.9833 147.19 27.0736 147.551 27.3443C147.912 27.615 148.092 27.8858 148.092 28.337C148.092 28.8785 147.912 29.2394 147.551 29.4199C147.19 29.6907 146.648 29.7809 146.016 29.7809H143.129V29.8712ZM155.312 39.5274H162.441C163.434 39.5274 164.336 39.4371 165.148 39.1664C165.961 38.8957 166.592 38.5347 167.224 38.0835C167.765 37.6322 168.217 37.0005 168.487 36.2786C168.758 35.5566 168.939 34.8346 168.939 33.9322C168.939 33.0297 168.758 32.2175 168.397 31.4956C168.036 30.7736 167.585 30.2321 166.953 29.7809C166.322 29.3297 165.6 28.9687 164.787 28.7882C163.975 28.5175 163.073 28.4272 162.08 28.4272H159.643V23.3735H155.131V39.5274H155.312ZM159.824 35.8273V32.037H162.17C162.621 32.037 163.073 32.1273 163.434 32.3078C163.795 32.4883 164.065 32.6688 164.246 32.9395C164.426 33.2102 164.517 33.5712 164.517 33.9322C164.517 34.5639 164.336 35.0151 163.885 35.3761C163.434 35.7371 162.892 35.8273 162.17 35.8273H159.824ZM170.112 39.5274H175.256L178.505 34.6542H180.49V39.5274H185.002V23.3735H177.331C176.429 23.3735 175.527 23.4638 174.714 23.7345C173.902 23.915 173.18 24.276 172.548 24.7272C171.917 25.1784 171.466 25.7199 171.105 26.4418C170.744 27.1638 170.563 27.976 170.563 28.8785C170.563 29.6907 170.744 30.5029 171.014 31.1346C171.285 31.7663 171.646 32.3078 172.187 32.759C172.729 33.2102 173.27 33.5712 173.902 33.8419L170.112 39.5274ZM177.602 31.2248C177.061 31.2248 176.7 31.1346 176.339 30.9541C175.978 30.7736 175.707 30.5931 175.527 30.2321C175.346 29.9614 175.256 29.6004 175.256 29.1492C175.256 28.698 175.346 28.337 175.527 28.0663C175.707 27.7955 175.978 27.5248 176.339 27.3443C176.7 27.1638 177.151 27.0736 177.602 27.0736H180.58V31.1346H177.602V31.2248Z" fill="#2AD1C5"/>
</svg>
