<svg width="149" height="56" viewBox="0 0 149 56" fill="none" xmlns="http://www.w3.org/2000/svg">
<path fill-rule="evenodd" clip-rule="evenodd" d="M20.3488 49.3911C37.6457 41.342 40.6957 31.7299 40.6957 26.3602V8.98855L20.3488 0.347595L0 8.98855V26.3602C0 31.7299 3.04652 41.342 20.3488 49.3911Z" fill="white"/>
<path fill-rule="evenodd" clip-rule="evenodd" d="M20.3484 42.4345C32.6018 36.5927 34.4347 29.8082 34.4347 26.2742V7.09867L20.3484 1.04321L6.26074 7.09867V26.2742C6.26074 29.8082 8.09632 36.5927 20.3484 42.4345Z" fill="#00C7B1"/>
<path fill-rule="evenodd" clip-rule="evenodd" d="M18.8076 19.8165C18.8848 19.2441 18.9439 18.1581 18.9949 17.1672L19.0056 16.962L19.1902 16.8932C19.9052 16.6077 20.6369 16.0643 21.2853 15.5871C22.0633 15.0174 22.8696 14.4227 23.6879 14.1575L24.1423 14.0211L24.09 14.4923C24.0799 14.6016 24.0799 14.7123 24.0926 14.8331L24.1148 15.0552L23.9154 15.1456C22.2889 15.9239 20.277 17.8604 19.7662 19.9009L19.7098 20.1128L19.4957 20.1297C19.3755 20.1425 19.256 20.1581 19.1392 20.1689L18.7606 20.1959L18.8076 19.8165ZM29.138 11.7255L28.6594 12.6226C28.4741 12.9681 28.3842 13.2442 28.3869 13.4811V13.6276L28.2741 13.7261C28.1257 13.8443 27.9485 13.9361 27.7505 13.9921L27.4021 14.0913L27.3598 13.7261C27.3249 13.4157 27.2578 13.1916 27.2027 13.0559L27.0966 12.7974L29.138 11.7255ZM8.27915 13.359C8.48523 13.8375 8.62285 14.229 8.74368 14.5712C9.05448 15.4433 9.24043 15.9745 10.2104 16.9829C11.5403 18.3741 11.7081 19.0484 11.498 22.131C11.4852 22.3268 11.353 22.9647 11.1194 24.077C10.8676 25.2643 10.5568 26.7358 10.3407 27.9919C10.393 28.0021 10.8965 28.0068 10.8965 28.0068L10.8703 28.3368C10.7428 30.1735 10.7877 31.3986 11.0026 32.0675C11.0744 32.2963 11.0408 32.4414 10.9542 32.7843L10.8978 33.0138C10.8569 33.1988 10.8609 33.3634 10.8676 33.5356C10.877 33.865 10.8898 34.2328 10.6146 34.8444C10.5387 35.0023 10.4716 35.2399 10.4125 35.5126C11.2818 36.467 12.3398 37.4397 13.6192 38.4123C13.8871 37.6874 14.0757 36.9206 14.0576 36.1626C14.0536 35.7475 14.0247 35.3918 14.0066 35.0752C13.9461 34.0357 13.9079 33.4667 14.4416 32.6648C14.9584 31.8933 15.4236 30.783 15.8613 29.2636L15.9164 29.0584L16.1305 29.0361C16.3782 29.0132 16.63 28.9774 16.8871 28.9092L17.1502 28.8431L17.2489 29.0982C17.5107 29.7644 18.2625 30.5764 18.9311 31.3054C19.4171 31.8346 19.8763 32.33 20.0716 32.6945L20.1871 32.9065L20.0072 33.0725C18.1007 34.8207 17.3207 37.0711 17.9121 39.0934C18.1444 39.8811 18.2061 40.6506 18.1719 41.3316C18.8546 41.7029 19.5749 42.0653 20.3321 42.4346C20.6067 41.4005 21.1584 39.6955 21.6149 38.278L21.8667 37.495L22.4735 37.5794C22.4916 38.0377 22.4916 38.3361 22.4916 38.4299C23.1918 38.7228 24.3612 39.5267 24.0457 40.5588C25.0197 39.979 25.9085 39.3998 26.7107 38.8146C26.4294 38.251 26.3401 37.5794 26.4905 36.8977C26.6375 36.222 27.0074 35.6084 27.5222 35.1866L28.0364 34.7634L28.0297 35.4356C28.0183 36.2045 27.917 36.9355 27.8565 37.3729L27.829 37.5571C27.8136 37.6415 27.8565 37.7454 27.9431 37.869C30.825 35.5268 32.4757 33.2062 33.3913 31.1488C33.206 30.8363 33.0503 30.511 32.9516 30.1586C32.5267 28.6595 31.5016 27.8306 30.5981 27.1016C29.9127 26.5468 29.2662 26.0264 29.042 25.2954L28.9702 25.0564L29.1917 24.9302C29.2595 24.8911 29.3334 24.8512 29.3998 24.806C30.3705 24.1816 31.0076 23.1415 31.2996 21.7065L31.3298 21.5573L31.4647 21.4898C32.2843 21.076 32.8603 20.314 33.0879 19.3548C33.3638 18.1851 33.0986 16.7987 32.434 15.9023L32.3474 15.795L32.3777 15.6607C32.5468 14.7568 32.5415 14.2479 32.3615 13.9442C32.2031 13.6776 31.8507 13.361 31.7064 13.2415L31.6077 13.1578L31.562 12.5517L31.5016 11.6782L31.8869 12.0907C32.4381 11.5257 32.7905 10.9965 32.7824 10.7218C32.7824 10.634 32.7449 10.5962 32.72 10.572C32.3052 10.2122 31.2996 9.4049 31.1593 9.29556C30.9995 9.32121 29.8744 9.53585 28.9071 10.0461L28.8796 10.061L28.8561 10.0664C28.0391 10.3411 26.9416 10.5497 25.8715 10.7576C24.6693 10.9965 23.4254 11.2328 22.548 11.5649L22.4487 11.6013L21.9794 11.4548L21.9217 11.363C21.5122 10.7549 20.5462 10.4606 18.3961 9.85242L18.2833 9.82204L18.2216 9.72552C17.8228 9.12074 16.6823 8.7387 16.3453 8.63407L16.0607 8.5497L16.301 7.5946L16.7139 7.73567L17.0925 6.19603L17.1663 6.12988C17.2737 6.03539 17.5268 5.78497 17.6302 5.43735V5.43128L17.6436 5.39753C17.6449 5.38335 17.6563 5.3361 17.6563 5.3361L17.6698 5.30708C17.6852 5.2713 17.7013 5.22945 17.7181 5.18356L17.7194 5.17546C17.843 4.82446 18.0537 3.91796 17.3106 3.09111C16.7609 2.4789 15.8325 2.08673 14.9423 2.08673C14.8222 2.08673 14.7067 2.09078 14.5926 2.10428C14.0401 2.17448 13.2722 2.45257 12.7526 3.3557L12.6875 3.47652L12.5573 3.50487C12.3908 3.5447 12.0478 3.61152 11.5859 3.61152C10.7978 3.61152 10.0299 3.4259 9.30353 3.06006C8.57988 3.96049 8.22679 5.19436 8.35165 6.36005C8.44361 7.19973 8.76583 7.95099 9.31226 8.58142L9.47941 8.77042L9.32434 8.97561C8.39327 10.1865 7.54275 11.6519 8.27915 13.359Z" fill="white"/>
<path fill-rule="evenodd" clip-rule="evenodd" d="M31.3167 13.5727C31.354 13.0995 31.3235 12.6882 31.3221 12.6612L31.3072 12.5217L31.0425 12.5424L31.0527 12.6882C31.0554 12.6882 31.1192 13.5123 30.9563 14.1456L31.1918 14.2609L31.652 13.5521L31.4307 13.3934L31.3167 13.5727Z" fill="#005F61"/>
<path fill-rule="evenodd" clip-rule="evenodd" d="M30.1058 11.4924L30.1074 11.6212C30.1255 12.1863 29.9432 12.9841 29.9408 12.9955L29.9131 13.1189L30.053 13.2174L30.0812 13.092C30.0885 13.0596 30.2805 12.2342 30.2593 11.6077L30.2566 11.4783L30.1058 11.4924Z" fill="#005F61"/>
<path fill-rule="evenodd" clip-rule="evenodd" d="M29.9129 11.5028L29.6721 11.4783L29.6642 11.6284C29.6392 11.9906 29.5008 12.555 29.2892 12.9195L29.2173 13.0374L29.4093 13.2174L29.4819 13.0995C29.7331 12.6699 29.877 12.0457 29.902 11.649L29.9129 11.5028Z" fill="#005F61"/>
<path fill-rule="evenodd" clip-rule="evenodd" d="M16.3479 5.847C16.0111 5.79377 15.599 5.68011 15.4728 5.565L15.3044 5.77578L15.7751 6.26065L15.9455 6.05707L15.9416 6.05131C16.1119 6.088 16.2641 6.10886 16.32 6.12325L16.3479 5.847Z" fill="#005F61"/>
<path fill-rule="evenodd" clip-rule="evenodd" d="M39.9693 26.3873C39.9693 31.2239 37.4289 40.497 20.5231 48.5506C3.61655 40.497 1.07287 31.2239 1.07287 26.3873V9.47145L5.33734 7.65083V26.2538C5.33734 30.0481 7.27973 37.3205 20.2934 43.4023L20.5231 43.5143L20.7501 43.4023C33.761 37.3205 35.7048 30.0481 35.7048 26.2538V7.65083L39.9693 9.47145V26.3873ZM6.41427 7.1901L8.09114 6.47035C8.22086 7.29331 8.55461 8.02925 9.09442 8.64917C8.0729 9.97198 7.21757 11.5464 8.00061 13.3421C8.20464 13.817 8.34314 14.1974 8.46475 14.5347C8.77756 15.413 8.98768 15.9978 10.0058 17.0562C11.274 18.3756 11.4233 18.9692 11.2145 21.9676C11.203 22.1504 11.0382 22.9457 10.8416 23.8618C10.5842 25.0659 10.2673 26.5674 10.0497 27.8417L9.99839 28.1344L10.295 28.158C10.3943 28.1601 10.4889 28.1601 10.5842 28.1601C10.4531 30.0623 10.501 31.292 10.7308 32.0084C10.7781 32.1514 10.7625 32.2222 10.6754 32.5615L10.622 32.7889C10.5666 33.0135 10.5733 33.2071 10.5787 33.3906C10.5909 33.7002 10.5997 34.0145 10.3544 34.5596C10.2896 34.6918 10.2328 34.8746 10.1788 35.0851C7.06623 31.5861 6.41427 28.3476 6.41427 26.2538V7.1901ZM8.74581 4.49795C9.34237 4.7138 9.99975 4.80082 10.5787 4.80082C10.8625 4.80082 11.128 4.78193 11.3543 4.75225L11.3179 4.48243C10.6524 4.57552 9.66802 4.55731 8.82756 4.25106C8.96336 3.86993 9.15388 3.52389 9.38426 3.20145C11.2125 4.0352 12.7164 3.56503 12.7866 3.55019L12.8839 3.51377L12.9339 3.42C13.4089 2.52419 14.1426 2.25909 14.6723 2.18624C15.6891 2.06549 16.7201 2.55792 17.216 3.10229C17.8456 3.80383 17.7227 4.54719 17.5923 4.93776C17.5315 5.02073 17.2876 5.25143 16.612 4.88784C15.3398 4.20789 14.5162 4.32324 14.1257 4.46287C14.0386 4.36236 13.9345 4.28344 13.8034 4.22475C13.4947 4.09456 13.1663 4.16067 12.9461 4.40688C12.6191 4.77451 12.5583 5.43086 12.8934 5.99749C12.5306 6.55467 11.4679 8.00497 9.93218 8.72674C9.44372 8.31661 9.12753 7.86331 8.92012 7.42148C10.0693 7.38033 11.0179 6.91421 11.6307 6.50745L11.4841 6.29294C10.8861 6.68891 9.9457 7.14491 8.80932 7.1584C8.68095 6.81235 8.60866 6.47642 8.58096 6.19446C8.5688 6.1243 8.5688 6.04875 8.56677 5.96915C8.83161 6.01165 9.10118 6.03998 9.37548 6.03998C10.0565 6.03998 10.7571 5.90575 11.3902 5.64874L11.2848 5.4005C10.4294 5.75262 9.44777 5.8565 8.56001 5.70001C8.56407 5.2946 8.62825 4.88717 8.74581 4.49795ZM22.0034 38.217C22.0946 37.9438 22.1804 37.6834 22.2608 37.4325C22.2844 37.9917 22.2844 38.2946 22.2844 38.2946L22.279 38.4788L22.4479 38.5428C22.4641 38.5536 24.2072 39.2788 23.8471 40.3358C23.814 40.439 23.7782 40.5442 23.7437 40.6434C22.8283 41.1729 21.8358 41.6923 20.7643 42.207C21.0453 41.1729 21.5656 39.5796 22.0034 38.217ZM20.3765 32.9609L20.5008 32.8489L20.4569 32.6917C20.3332 32.2587 19.7921 31.6705 19.1638 30.9966C18.5226 30.3078 17.8004 29.5287 17.5409 28.9108C19.1084 28.4022 20.8555 28.1216 21.321 28.0528C21.902 28.8852 22.5999 29.6913 23.3877 30.3497L23.5052 30.5905C24.0768 31.7494 24.1092 31.8175 23.6039 32.7214C23.4613 32.9663 23.3444 33.1686 23.2397 33.3434C22.8688 33.9585 22.6486 34.3323 22.2939 35.5599C22.1358 36.1023 21.8277 37.0467 21.5021 38.0565C21.0203 39.5311 20.4981 41.1446 20.2197 42.176C19.6083 41.8812 19.0171 41.5831 18.4604 41.291C18.5077 40.5638 18.451 39.7395 18.1915 38.868C17.6038 36.8841 18.4206 34.6716 20.3765 32.9609ZM11.7442 22.0014C11.7442 21.9872 11.7442 21.9744 11.7482 21.9676C12.5042 22.1477 13.4116 22.2401 14.4385 22.2401C14.9317 22.2401 15.4546 22.2152 15.9945 22.1707C16.2215 22.57 16.4532 22.9154 16.666 23.1481L16.716 23.2102L16.791 23.2243C16.8153 23.2324 17.9524 23.54 19.511 23.907C19.586 24.7819 20.1245 26.1775 21.0034 27.5637C20.5285 27.6393 19.6664 27.7884 18.7111 28.0312C18.8314 27.3472 18.8962 26.5573 18.8996 25.6581L18.3679 25.6527C18.3638 26.6369 18.2861 27.4862 18.1382 28.1742C17.8598 28.2558 17.5761 28.3381 17.2964 28.4353C17.066 28.5101 16.8518 28.5594 16.6498 28.5951C16.8505 28.0164 17.12 26.9074 17.1261 25.1353H16.5985C16.5903 27.1873 16.2107 28.3031 16.0512 28.6741C15.4094 28.7132 14.9533 28.5884 14.7169 28.4946L14.7736 28.3321C14.8716 28.158 15.3492 27.1428 15.358 24.6126H14.829C14.8169 26.4629 14.5561 27.443 14.4027 27.8531C13.5913 27.4295 12.8657 27.4909 12.0408 27.5664C11.6226 27.6062 11.1604 27.6487 10.6233 27.6373C10.8375 26.4345 11.124 25.0814 11.3611 23.9778C11.603 22.8223 11.732 22.2152 11.7442 22.0014ZM27.6197 12.8017L28.525 12.3356C28.3453 12.6648 28.2109 13.0048 28.2109 13.3421C28.0947 13.4352 27.9575 13.5053 27.7974 13.5505C27.7684 13.2436 27.7001 12.994 27.6197 12.8017ZM32.3301 15.4447C32.2038 15.4818 32.0639 15.506 31.9092 15.506C31.6085 15.506 31.3721 15.4244 31.3721 15.4244L30.6742 15.1661L31.0478 15.8015C31.2511 16.1523 31.2653 16.6103 31.091 16.9651C30.5965 17.1236 30.0911 17.0238 29.8472 16.7142C29.6871 16.5212 29.6412 16.2487 29.7094 15.9418L29.756 15.7448L29.5777 15.645C28.3359 14.9954 26.1746 14.5205 24.4092 14.5117C24.4092 13.8594 24.9301 13.4965 25.3659 13.3502C25.4861 13.5795 25.7354 13.8932 26.1786 13.9802L26.3354 14.0085C26.5941 14.0625 26.9569 14.138 27.336 14.138C27.8927 14.138 28.3453 13.9748 28.6737 13.6382L28.7703 13.5471L28.7514 13.4183C28.6973 13.0216 29.0338 12.4955 29.3297 12.0274C29.5 11.7656 29.6581 11.512 29.756 11.2813C29.9844 11.253 30.2418 11.2462 30.5249 11.2462C30.8829 11.2462 31.2086 11.2624 31.4173 11.2813L31.5558 13.1343L31.6498 13.2045C31.7829 13.3117 32.1828 13.6591 32.3342 13.9181C32.5233 14.2244 32.4395 14.8753 32.3301 15.4447ZM19.1942 19.7133C19.2692 19.1439 19.3286 18.1085 19.3827 17.0339C20.1245 16.7486 20.8541 16.2143 21.5656 15.6942C22.3331 15.1377 23.1201 14.5617 23.8903 14.3181C23.8762 14.445 23.8762 14.5839 23.893 14.7242C22.0973 15.5742 20.0637 17.6167 19.5462 19.6728C19.4252 19.691 19.3077 19.7058 19.1942 19.7133ZM16.46 17.0339C16.7187 17.1533 17.0748 17.3199 17.5761 17.552L17.6686 17.5951L17.7639 17.5634C17.8747 17.5378 17.9787 17.4771 18.074 17.4177C18.2057 17.3449 18.3328 17.2666 18.4726 17.2599C18.5949 17.2518 18.7219 17.2349 18.8428 17.2079C18.7888 18.2265 18.726 19.2586 18.6543 19.7321C18.6098 19.7321 18.5598 19.7389 18.5185 19.7362L16.46 17.0339ZM15.7121 21.6627C14.1811 21.7713 12.8049 21.689 11.782 21.4313C11.7996 21.1345 11.8138 20.8681 11.8151 20.6138C12.661 20.8067 13.59 20.8775 14.4237 20.8775C14.7405 20.8775 15.0364 20.8681 15.3188 20.856C15.4411 21.1271 15.5783 21.401 15.7121 21.6627ZM14.7763 18.2393L14.7338 18.1226L14.6203 18.0788C14.1379 17.9068 14.0203 17.4427 13.998 17.3503V15.7421C14.3635 15.9418 14.677 16.3634 14.677 16.8639H14.9439C14.9439 16.1961 14.4939 15.6565 13.998 15.4399V14.7424C14.4426 15.0406 14.6507 15.2025 14.829 15.6565L15.0743 15.5546C14.8473 14.9812 14.5649 14.7951 14.0055 14.4335L13.998 14.4274V13.8615C15.1168 14.4355 15.7343 15.4946 15.7438 16.8828V16.9719L18.2442 20.2455L18.3591 20.259C18.8314 20.294 19.4056 20.236 20.0664 20.1504C21.1825 20.0236 22.5587 19.8745 24.0978 20.1443C24.9146 21.5946 24.5423 23.1063 24.2004 24.3056C21.1751 23.8449 17.5761 22.887 17.0106 22.738C16.0722 21.6371 14.7885 18.2697 14.7763 18.2393ZM31.214 18.6677L30.9762 18.783C31.062 18.9625 31.4532 19.8765 31.2613 21.4199C31.0295 22.6172 30.5519 23.54 29.8391 24.1633C30.7296 21.9818 30.1006 19.7571 29.604 18.5591L29.3574 18.6623C29.8695 19.9035 30.533 22.2691 29.3959 24.4898C28.9878 24.7448 28.5223 24.9249 28.0021 25.0315C28.9507 23.028 28.8061 20.1504 27.6258 18.5308L27.4083 18.6859C28.575 20.2873 28.675 23.1582 27.6792 25.0814C27.2103 25.1468 26.7022 25.1637 26.1509 25.1178C27.2556 22.8472 27.0786 20.0458 25.7023 18.6313L25.5044 18.8147C26.8333 20.1787 26.9732 22.8965 25.8699 25.0888C25.4605 25.047 25.0369 24.9721 24.5896 24.8716C24.6085 24.796 24.6349 24.7171 24.6585 24.6382C25.0936 23.1346 25.7496 20.858 23.7931 18.8599L23.41 19.2309C23.5093 19.3369 23.5965 19.4421 23.6856 19.5453C22.327 19.3787 21.1197 19.5008 20.1137 19.6161C20.7116 17.6464 22.8242 15.6754 24.491 15.0453C26.0597 15.0683 27.994 15.4777 29.1581 16.0322C29.1162 16.4201 29.2108 16.7708 29.4283 17.0467C29.6993 17.3833 30.1303 17.5722 30.6201 17.5722C30.8681 17.5722 31.1214 17.5297 31.3721 17.4299L31.4592 17.3975L31.5045 17.3199C31.7342 16.9334 31.7997 16.4626 31.6984 16.0261C31.7639 16.0295 31.8369 16.0369 31.9092 16.0369C32.1044 16.0369 32.2882 16.0032 32.4598 15.9499C33.0577 16.7864 33.2976 18.0754 33.0388 19.1594C32.8922 19.7935 32.5071 20.6273 31.564 21.1211C31.6761 19.7443 31.3342 18.9092 31.214 18.6677ZM13.2035 8.6006C13.7852 9.16858 14.5757 9.48225 15.3107 9.48225C15.5864 9.48225 15.8519 9.4384 16.0958 9.34599L16.2302 9.29405L16.262 9.16048C16.2938 9.0249 16.3309 8.8684 16.3674 8.71595C16.893 8.87515 17.8814 9.26774 18.1463 9.76624L18.2334 9.87416L18.3442 9.90047C20.5258 10.5211 21.5176 10.797 21.8757 11.4088L21.9284 11.4978L22.558 11.6982L22.6486 11.6597C23.5079 11.3251 24.793 11.0735 26.0361 10.8314C27.1231 10.627 28.246 10.4084 29.0905 10.1291L29.1277 10.1103C29.9607 9.67922 30.9302 9.45459 31.2613 9.39051C31.5383 9.61244 32.3821 10.2823 32.7287 10.5811C32.7645 10.7288 32.4308 11.2199 31.9808 11.6982L31.9119 10.7956H31.9065C31.9186 10.6614 31.8991 10.5453 31.8383 10.4462C31.7038 10.2094 31.3896 10.1386 31.116 10.0792C30.9424 10.0367 30.7573 9.99828 30.6823 9.92745L30.4972 10.1103C30.6255 10.2391 30.835 10.2843 31.0559 10.3376C31.2903 10.3902 31.5308 10.4462 31.6139 10.5811C31.6403 10.6297 31.6444 10.6911 31.6376 10.7646C31.4856 10.7531 31.0464 10.7153 30.5249 10.7153C30.1479 10.7153 29.8141 10.7315 29.5223 10.7733L29.3506 10.7956L29.3034 10.9656C29.2648 11.1046 29.1703 11.2739 29.0595 11.4567L27.3583 12.3417C27.3238 12.2918 27.2961 12.2634 27.2934 12.2628L27.2556 12.2203L25.3841 11.512L23.7599 12.1838C22.7884 12.283 20.7197 12.6985 19.0266 13.1876C18.9212 12.8274 18.7584 12.5009 18.6692 12.3397C18.83 11.7373 18.6543 10.6533 18.6307 10.5211L18.1084 10.6135C18.1888 11.0836 18.2665 11.9505 18.1361 12.2634L18.0868 12.3862L18.1517 12.5009C18.1557 12.5103 18.3942 12.9097 18.5172 13.3421C18.2861 13.4163 18.0686 13.4864 17.8598 13.566L17.6038 13.4378C17.1768 12.4267 16.2161 12.0388 15.1155 11.595C14.7527 11.4499 14.3818 11.2988 13.998 11.1187C13.9149 10.3848 13.317 9.72576 12.9515 9.43301L12.6191 9.84583C12.8562 10.034 13.4805 10.6688 13.4805 11.2894V11.454L13.6271 11.5289C14.0703 11.7494 14.4993 11.9194 14.9162 12.0881C15.9823 12.5184 16.8214 12.8537 17.1464 13.7272L17.1829 13.823L17.8274 14.138L17.9355 14.1016C19.6664 13.454 22.6702 12.8206 23.8471 12.708L25.3909 12.0827L26.9502 12.6743C27.0259 12.7694 27.2171 13.0689 27.2725 13.6092C26.9732 13.6018 26.6813 13.539 26.4388 13.4905L26.2827 13.4601C25.9003 13.3852 25.78 12.9765 25.7719 12.9636L25.7091 12.7174L25.4605 12.7694C24.9105 12.884 24.3612 13.2179 24.0768 13.7272C23.1053 13.9195 22.1608 14.5967 21.25 15.2672C20.3089 15.958 19.3381 16.6649 18.4368 16.7317C18.174 16.7499 17.9706 16.868 17.8071 16.9597C17.7679 16.9847 17.7281 16.9995 17.6936 17.0238C17.2045 16.7911 16.5471 16.4848 16.2329 16.3378C16.0553 14.8693 15.2067 13.738 13.8291 13.2045L13.467 13.0641V15.2416C12.6319 14.9185 11.8827 14.2662 11.1314 13.2105L11.0773 13.1343L10.9868 13.1087C10.4511 12.9636 9.8903 12.708 9.40183 11.8209L8.93295 12.0725C9.49304 13.0803 10.1578 13.4183 10.7531 13.5916C11.603 14.7694 12.4752 15.4737 13.467 15.7988V17.3786L13.471 17.4157C13.4764 17.4488 13.5994 18.1995 14.321 18.5281C14.4264 18.8033 14.7101 19.5224 15.0743 20.3291C13.8061 20.3797 12.6954 20.294 11.8219 20.0748C11.8009 18.5665 11.4679 17.8076 10.3875 16.6879C9.44642 15.7064 9.26603 15.1998 8.96336 14.3566C8.84107 14.0085 8.70392 13.624 8.4884 13.1289C7.94858 11.8918 8.24315 10.6492 9.47277 9.02625C9.55722 9.10045 9.63762 9.176 9.72477 9.2475L9.85314 9.34599L9.99839 9.28528C11.153 8.78138 12.057 7.91458 12.6596 7.20629C12.661 7.69265 12.7995 8.20734 13.2035 8.6006ZM16.0154 7.03968C15.9985 6.99583 16.0059 6.94794 16.0296 6.90814L15.8107 6.75569C15.737 6.87171 15.7175 7.00797 15.7675 7.13142C15.5796 7.11927 15.3884 7.1132 15.1945 7.1132C14.7365 7.10646 14.3027 7.10241 14.1703 6.89532C14.0771 6.74894 14.123 5.68112 14.6203 4.89728C14.977 4.8649 15.5519 4.92427 16.3613 5.35666C16.6843 5.53137 16.9802 5.61501 17.2423 5.61501C17.2572 5.61501 17.2673 5.61231 17.2876 5.61231C17.17 5.77083 17.0457 5.85988 17.0457 5.86527L16.968 5.92194L16.6207 7.31287L16.2039 7.17391L16.2066 7.16987C16.1113 7.14761 16.0417 7.09971 16.0154 7.03968ZM13.3461 4.75832C13.4292 4.66861 13.5278 4.6794 13.594 4.7138C13.698 4.75833 13.8034 4.87165 13.7933 5.01128L14.2325 5.04771C13.842 5.85988 13.8061 6.8191 13.946 7.03968C14.1521 7.36751 14.6574 7.37223 15.1945 7.37696C15.5229 7.38033 15.8546 7.3864 16.1289 7.45723C16.1289 7.48488 16.0917 7.62047 16.0417 7.81339C15.906 7.77967 15.7222 7.75538 15.5046 7.75538V8.01913C15.6931 8.01913 15.8593 8.03937 15.9823 8.07175C15.9147 8.32066 15.8424 8.62286 15.7816 8.89336C15.1641 9.05593 14.2561 8.88392 13.5731 8.21745C12.9643 7.62519 13.2258 6.5432 13.4332 6.14049C13.4636 6.09462 13.4805 6.06629 13.4913 6.05078L13.5514 5.98939C13.0805 5.53946 13.1663 4.95867 13.3461 4.75832ZM13.8311 34.9346C13.8541 35.2463 13.8778 35.5991 13.8872 36.0099C13.9014 36.7155 13.7271 37.4298 13.4778 38.1152C12.359 37.2585 11.4138 36.4038 10.6159 35.5599C10.6828 35.2206 10.7571 34.9495 10.8375 34.7768C11.1368 34.1211 11.124 33.711 11.1132 33.3791C11.1064 33.2105 11.101 33.0702 11.1395 32.9096L11.1936 32.6877C11.2834 32.3194 11.326 32.1325 11.2361 31.8526C11.0287 31.1996 10.9902 29.9901 11.1199 28.1601C11.4679 28.154 11.7955 28.1216 12.0881 28.0919C12.9076 28.0164 13.5163 27.9631 14.2034 28.3476L14.0676 28.751L14.2514 28.8623C14.2838 28.8825 14.7858 29.1712 15.6614 29.2076C15.2418 30.6188 14.7986 31.663 14.3081 32.3909C13.7312 33.2469 13.7683 33.8843 13.8311 34.9346ZM17.6821 39.0197C17.8902 39.7186 17.9524 40.3992 17.9409 41.0009C16.414 40.1611 15.0743 39.3071 13.9149 38.4497C14.2129 37.6733 14.4385 36.8389 14.4203 36.0018C14.4095 35.5775 14.3845 35.2179 14.3649 34.9023C14.3027 33.8978 14.2737 33.396 14.7473 32.6904C15.2898 31.8823 15.7702 30.7396 16.2161 29.1968C16.464 29.1746 16.7383 29.1361 17.0275 29.0606C17.3099 29.7797 18.0868 30.6188 18.7733 31.3608C19.2313 31.8526 19.7036 32.3565 19.8819 32.6904C17.8693 34.5205 17.0457 36.8814 17.6821 39.0197ZM26.6617 38.7837C25.9712 39.2741 25.2247 39.7618 24.416 40.2515C24.595 39.102 23.289 38.358 22.8134 38.132C22.81 37.8224 22.7911 37.106 22.7067 36.0382C22.7398 35.9141 22.7742 35.8075 22.806 35.705C23.137 34.5427 23.335 34.2169 23.6964 33.6206C23.8045 33.4378 23.9221 33.2354 24.0687 32.9798C24.5646 32.0947 24.6072 31.7426 24.289 31.004C24.8078 31.3271 25.3564 31.5861 25.928 31.7325C27.315 32.1062 27.7515 33.3602 27.8346 34.6392C27.1157 35.0716 26.5941 35.8136 26.3989 36.6959C26.2381 37.4325 26.3394 38.1698 26.6617 38.7837ZM27.8386 37.9054C27.5995 38.0936 27.3502 38.2825 27.0941 38.4747C26.8556 37.9883 26.7894 37.4008 26.9191 36.8092C27.059 36.1961 27.3941 35.6476 27.8515 35.2746C27.8413 36.0072 27.7501 36.6979 27.6805 37.1789L27.6589 37.3388C27.6197 37.5135 27.688 37.6949 27.8386 37.9054ZM26.0651 31.2239C22.8479 30.3591 20.3461 25.9772 20.0596 24.0338C21.296 24.3178 22.7242 24.6153 24.0525 24.823C24.0356 24.8797 24.0174 24.9384 24.0025 24.995L23.9356 25.2588L24.195 25.3195C25.1429 25.5596 26.0192 25.6817 26.8029 25.6817C27.6258 25.6817 28.3595 25.5468 29.0027 25.2851C29.2621 26.0379 29.9195 26.5674 30.6107 27.1199C31.4977 27.8255 32.5004 28.6329 32.9111 30.0637C33.03 30.4866 33.2266 30.8704 33.453 31.2327C32.5335 33.1835 30.9383 35.3684 28.246 37.5728C28.2109 37.5189 28.1818 37.4656 28.1818 37.4298L28.2095 37.247C28.4088 35.8116 28.9433 31.9956 26.0651 31.2239ZM20.5231 1.16698L34.6265 7.18875V26.2538C34.6265 27.4106 34.4245 28.9183 33.7198 30.631C33.5969 30.4023 33.4915 30.1675 33.4205 29.922C32.9665 28.3253 31.8937 27.4626 30.9437 26.7098C30.2729 26.1721 29.6797 25.6952 29.4804 25.0598C29.5581 25.0146 29.6358 24.9674 29.7121 24.9249C30.7654 24.2537 31.4505 23.1434 31.7619 21.6209C32.6733 21.1669 33.3111 20.3399 33.5577 19.2809C33.8583 18.0107 33.5678 16.5428 32.8463 15.5742C33.0321 14.5873 33.0206 14.0159 32.7922 13.6422C32.6085 13.34 32.2409 13.0102 32.0693 12.8652L32.0308 12.3862L32.0416 12.3957C32.3274 12.1177 33.2753 11.1774 33.2618 10.5811C33.2618 10.4226 33.1976 10.2958 33.0915 10.1973C32.6456 9.81143 31.5383 8.93721 31.4923 8.89943L31.3984 8.8259L31.2829 8.84209C31.2295 8.85491 29.9898 9.06672 28.898 9.63605C28.0947 9.90047 26.9941 10.1103 25.9368 10.3147C24.7099 10.5453 23.4431 10.7956 22.5378 11.1336L22.2756 11.0472C21.7899 10.3342 20.7514 10.0307 18.5544 9.41614C18.1084 8.73619 16.943 8.3328 16.4944 8.20261C16.5262 8.07175 16.5539 7.95707 16.5802 7.86331L16.993 7.99687L17.4389 6.22616C17.5882 6.09462 17.9132 5.77083 18.0226 5.2946C18.0395 5.25143 18.0618 5.20488 18.0794 5.15429C18.0794 5.15429 18.0821 5.14485 18.0821 5.14012C18.2929 4.55326 18.3652 3.58729 17.6092 2.74545C17.5355 2.6645 17.4497 2.59097 17.3693 2.51475L20.5231 1.16698ZM20.5231 0L16.8451 1.56834C16.1154 1.2142 15.2986 1.04894 14.5426 1.14472C13.842 1.23107 12.8839 1.56092 12.1968 2.59772C11.732 2.67327 10.7571 2.71981 9.66194 2.16735L9.09848 1.87999L8.69716 2.37174C7.97291 3.25136 7.55673 4.39271 7.51214 5.5516L0 8.7598V26.3873C0 31.8236 3.07336 41.579 20.5231 49.7391C37.9688 41.579 41.0435 31.8236 41.0435 26.3873V8.7598L20.5231 0Z" fill="#005F61"/>
<path fill-rule="evenodd" clip-rule="evenodd" d="M13.6623 52.5876V55.9318H13.1813V53.1283L12.6518 53.3956L12.5217 53.0407L13.3156 52.5834L13.6623 52.5876Z" fill="#1BB5C2"/>
<path fill-rule="evenodd" clip-rule="evenodd" d="M18.5791 53.973C18.5791 53.63 18.5116 53.3691 18.378 53.1902C18.2437 53.0121 18.0482 52.9223 17.7894 52.9223C17.5729 52.9223 17.4069 52.9791 17.2895 53.0934C17.1728 53.2056 17.1151 53.3789 17.1151 53.611C17.1151 53.8285 17.1699 53.9933 17.2817 54.1083C17.3928 54.2233 17.5574 54.2802 17.7747 54.2802C17.9497 54.2802 18.0995 54.2549 18.2261 54.2037C18.3512 54.1532 18.4687 54.0754 18.5791 53.973ZM16.9281 55.5826C17.1531 55.5826 17.364 55.5581 17.5637 55.5076C17.7627 55.4585 17.9364 55.3834 18.0862 55.2817C18.2359 55.1807 18.3555 55.0566 18.4455 54.9079C18.5348 54.7613 18.5826 54.5902 18.5896 54.3952C18.4729 54.4969 18.3428 54.5726 18.2001 54.6238C18.0573 54.6729 17.8914 54.6975 17.7022 54.6975C17.5511 54.6975 17.4097 54.6729 17.2789 54.6238C17.1488 54.5726 17.0356 54.5032 16.9386 54.4092C16.843 54.3173 16.767 54.2037 16.7122 54.0697C16.658 53.9358 16.6306 53.7864 16.6306 53.6223C16.6306 53.4266 16.6623 53.2589 16.7305 53.1208C16.7973 52.9826 16.8866 52.869 16.9984 52.7813C17.1102 52.6936 17.2374 52.6291 17.3802 52.5877C17.5229 52.547 17.6692 52.526 17.8211 52.526C18.0074 52.526 18.1755 52.5576 18.3295 52.6193C18.482 52.6803 18.6135 52.7778 18.7239 52.9111C18.8329 53.0429 18.918 53.2113 18.9785 53.4224C19.0389 53.6314 19.0685 53.8846 19.0685 54.1827C19.0685 54.4913 19.0157 54.7606 18.9103 54.9879C18.802 55.2165 18.6543 55.4052 18.4659 55.5539C18.2767 55.704 18.0552 55.8155 17.8007 55.8891C17.5447 55.9628 17.2698 56 16.9695 56L16.9281 55.5826Z" fill="#1BB5C2"/>
<path fill-rule="evenodd" clip-rule="evenodd" d="M23.3369 53.973C23.3369 53.63 23.2686 53.3691 23.135 53.1902C23.0007 53.0121 22.806 52.9223 22.5479 52.9223C22.3306 52.9223 22.164 52.9791 22.048 53.0934C21.9298 53.2056 21.8715 53.3789 21.8715 53.611C21.8715 53.8285 21.9277 53.9933 22.0395 54.1083C22.1513 54.2233 22.3159 54.2802 22.5324 54.2802C22.7068 54.2802 22.8573 54.2549 22.9839 54.2037C23.109 54.1532 23.2265 54.0754 23.3369 53.973ZM21.6858 55.5826C21.9101 55.5826 22.1218 55.5581 22.3215 55.5076C22.5205 55.4585 22.6949 55.3834 22.8446 55.2817C22.9937 55.1807 23.1132 55.0566 23.2025 54.9079C23.2918 54.7613 23.3404 54.5902 23.3467 54.3952C23.2293 54.4969 23.1006 54.5726 22.9571 54.6238C22.8144 54.6729 22.6485 54.6975 22.46 54.6975C22.3081 54.6975 22.1675 54.6729 22.0367 54.6238C21.9066 54.5726 21.7927 54.5032 21.6964 54.4092C21.6 54.3173 21.5248 54.2037 21.47 54.0697C21.4144 53.9358 21.3877 53.7864 21.3877 53.6223C21.3877 53.4266 21.4207 53.2589 21.4875 53.1208C21.555 52.9826 21.6436 52.869 21.7554 52.7813C21.868 52.6936 21.9945 52.6291 22.1373 52.5877C22.2807 52.547 22.4277 52.526 22.5781 52.526C22.7652 52.526 22.9332 52.5576 23.0872 52.6193C23.2398 52.6803 23.3713 52.7778 23.4817 52.9111C23.5914 53.0429 23.6765 53.2113 23.7362 53.4224C23.7974 53.6314 23.8255 53.8846 23.8255 54.1827C23.8255 54.4913 23.7735 54.7606 23.6666 54.9879C23.5598 55.2165 23.4114 55.4052 23.2236 55.5539C23.0338 55.704 22.8123 55.8155 22.5585 55.8891C22.3032 55.9628 22.0269 56 21.7273 56L21.6858 55.5826Z" fill="#1BB5C2"/>
<path fill-rule="evenodd" clip-rule="evenodd" d="M27.3665 53.9015C27.5318 53.9015 27.6633 53.8545 27.7589 53.7598C27.8545 53.6644 27.9037 53.5466 27.9037 53.4028C27.9037 53.2443 27.8475 53.1257 27.7357 53.043C27.6239 52.9637 27.4903 52.9223 27.3363 52.9223C27.164 52.9223 27.0171 52.9434 26.8947 52.9827C26.7731 53.0226 26.6486 53.0942 26.5213 53.1952L26.309 52.8613C26.4714 52.7351 26.6338 52.6467 26.797 52.5983C26.9601 52.5471 27.145 52.5219 27.3518 52.5219C27.5029 52.5219 27.6408 52.5422 27.7659 52.5843C27.8925 52.6243 28.0001 52.6832 28.0915 52.7568C28.1822 52.8298 28.2532 52.9174 28.3031 53.0184C28.3524 53.1201 28.3777 53.2317 28.3777 53.3558C28.3777 53.4926 28.346 53.6237 28.2828 53.7486C28.2188 53.8741 28.1161 53.9674 27.9748 54.0298V54.0509C28.1506 54.1119 28.2919 54.2136 28.4016 54.356C28.5099 54.4977 28.564 54.6765 28.564 54.8932C28.564 55.044 28.5352 55.1871 28.4782 55.3197C28.4213 55.4536 28.3411 55.5722 28.2363 55.6725C28.1316 55.7749 28.0008 55.8541 27.8468 55.9123C27.6921 55.9706 27.5163 56 27.3201 56C27.0621 56 26.8427 55.9685 26.6599 55.9067C26.4777 55.845 26.3132 55.744 26.1655 55.6037L26.3919 55.2075C26.5431 55.3484 26.6866 55.4466 26.8237 55.5013C26.9587 55.556 27.1148 55.5827 27.2899 55.5827C27.4024 55.5827 27.5086 55.568 27.607 55.5357C27.7041 55.5048 27.7891 55.4614 27.8594 55.3996C27.9298 55.34 27.986 55.2685 28.0268 55.185C28.0683 55.1001 28.0887 55.0069 28.0887 54.9038C28.0887 54.6877 28.0226 54.5327 27.8904 54.438C27.7582 54.3441 27.5922 54.2971 27.3925 54.2971H26.8511V53.9015H27.3665Z" fill="#1BB5C2"/>
<path fill-rule="evenodd" clip-rule="evenodd" d="M62.8527 6.72035C64.3314 6.72035 66.3472 7.58658 67.1231 8.75896L68.1572 6.81477C66.7954 5.97 64.4002 5.26471 62.7566 5.26471C57.0513 5.26471 54.261 9.66954 54.261 13.3254C54.261 17.256 56.958 21.2174 62.6892 21.2174C64.7043 21.2174 66.8908 20.4198 67.6165 19.7639L66.9324 18.4778C65.8811 19.2009 65.1066 19.7396 63.1324 19.7396C59.1675 19.7396 57.46 16.5057 57.46 13.2418C57.46 9.97497 58.9308 6.72035 62.8527 6.72035Z" fill="#1BB5C2"/>
<path fill-rule="evenodd" clip-rule="evenodd" d="M111.32 6.72035C112.797 6.72035 114.817 7.58658 115.593 8.75896L116.624 6.81477C115.261 5.97 112.871 5.26471 111.227 5.26471C105.522 5.26471 102.727 9.66954 102.727 13.3254C102.727 17.256 105.426 21.2174 111.155 21.2174C113.175 21.2174 115.359 20.4198 116.087 19.7639L115.408 18.4778C114.348 19.2009 113.571 19.7396 111.602 19.7396C107.635 19.7396 105.928 16.5057 105.928 13.2418C105.928 9.97497 107.4 6.72035 111.32 6.72035Z" fill="#1BB5C2"/>
<path fill-rule="evenodd" clip-rule="evenodd" d="M72.5672 14.917L74.7996 8.28758H74.9653L77.1116 14.917H72.5672ZM73.7189 6.22464V7.09302L68.981 20.7639H70.5973L72.1269 16.2239H77.5347L79.0012 20.7639H82.1959L76.8871 5.26471L73.7189 6.22464Z" fill="#1BB5C2"/>
<path fill-rule="evenodd" clip-rule="evenodd" d="M95.9293 5.66827L92.3366 16.224H92.2176L88.7195 5.66827H84.7087L84.2598 20.764H85.8338L86.2333 7.86997L86.396 7.84208L90.6012 20.2805H92.4994L96.8193 7.86997H96.9856L97.4554 20.764H100.411L99.9402 5.66827H95.9293Z" fill="#1BB5C2"/>
<path fill-rule="evenodd" clip-rule="evenodd" d="M125.765 19.8153C122.077 19.8153 120.906 15.7338 120.906 13.1108C120.906 10.4914 121.79 6.72031 125.765 6.72031C129.309 6.72031 130.627 10.4914 130.627 13.2167C130.627 15.9441 129.709 19.8153 125.765 19.8153ZM125.928 5.31403C121.398 5.31403 117.713 8.75892 117.713 13.4184C117.713 18.0757 121.305 21.1894 125.648 21.1894C129.984 21.1894 133.818 17.7023 133.818 13.2167C133.818 8.73102 130.647 5.31403 125.928 5.31403Z" fill="#1BB5C2"/>
<path fill-rule="evenodd" clip-rule="evenodd" d="M145.736 12.3463H139.348V5.66827H136.344V20.764H139.348V13.7197H145.736V20.764H148.699V5.66827H145.736V12.3463Z" fill="#1BB5C2"/>
<path fill-rule="evenodd" clip-rule="evenodd" d="M77.6598 36.8298L79.89 30.2004H80.0556L82.1991 36.8298H77.6598ZM78.8143 28.1375V29.0059L74.0728 42.6767H75.6891L77.218 38.1367H82.6265L84.0922 42.6767H87.2877L81.9782 27.1776L78.8143 28.1375Z" fill="#1BB5C2"/>
<path fill-rule="evenodd" clip-rule="evenodd" d="M124.757 36.8298L126.992 30.2004H127.156L129.301 36.8298H124.757ZM131.196 42.6767H134.383L129.082 27.1776L125.91 28.1375V29.0059L121.17 42.6767H122.79L124.319 38.1367H129.725L131.196 42.6767Z" fill="#1BB5C2"/>
<path fill-rule="evenodd" clip-rule="evenodd" d="M114.761 27.5811L111.168 38.1368H111.053L107.555 27.5811H103.541L103.095 42.6768H104.667L105.064 29.7828L105.232 29.7549L109.431 42.1932H111.332L115.653 29.7828H115.819L116.292 42.6768H119.245L118.776 27.5811H114.761Z" fill="#1BB5C2"/>
<path fill-rule="evenodd" clip-rule="evenodd" d="M94.0384 35.6286C93.3743 35.6286 92.8903 35.5814 92.5152 35.4734V28.9062H93.7666C96.085 28.9062 97.421 30.148 97.421 32.2345C97.421 34.3239 96.0535 35.6286 94.0384 35.6286ZM94.5145 27.5099C93.654 27.5099 90.6235 27.5815 89.512 27.5815V42.6772H92.5152V36.8496C93.2438 36.9104 93.9444 36.9655 94.2406 36.9655C98.8817 36.9655 100.586 34.1894 100.586 31.8175C100.586 29.7438 98.9829 27.5099 94.5145 27.5099Z" fill="#1BB5C2"/>
<path fill-rule="evenodd" clip-rule="evenodd" d="M67.2047 40.1451C66.6196 40.1451 66.1233 40.0643 65.6837 39.8897V29.799H66.9337C69.2514 29.799 70.5917 31.9556 70.5917 34.972C70.5917 37.992 69.217 40.1451 67.2047 40.1451ZM61.1552 40.1451C59.1422 40.1451 57.7726 37.992 57.7726 34.972C57.7726 31.9556 59.1071 29.799 61.4291 29.799H62.6783V39.8897C62.2423 40.0643 61.7432 40.1451 61.1552 40.1451ZM67.6816 28.4013C67.3094 28.4013 66.5349 28.4163 65.6837 28.432V27.1302H62.6783V28.432C61.8285 28.4163 61.0519 28.4013 60.6812 28.4013C56.2107 28.4013 54.6086 32.4327 54.6086 34.972C54.6086 37.8089 56.3111 41.4791 60.9544 41.4791C61.5245 41.4791 62.1304 41.4183 62.6783 41.3482V43.1301H65.6837V41.3482C66.2352 41.4183 66.8361 41.4791 67.4077 41.4791C72.0467 41.4791 73.7534 37.8089 73.7534 34.972C73.7534 32.4327 72.1514 28.4013 67.6816 28.4013Z" fill="#1BB5C2"/>
<path fill-rule="evenodd" clip-rule="evenodd" d="M59.4303 51.872C59.1874 51.6957 58.9511 51.5676 58.7215 51.4866C58.4908 51.4062 58.239 51.3652 57.9661 51.3652C57.6731 51.3652 57.4063 51.4151 57.1667 51.5132C56.926 51.6119 56.7209 51.7483 56.5519 51.923C56.3829 52.0966 56.2528 52.3039 56.1611 52.5446C56.0705 52.7841 56.0249 53.0458 56.0249 53.3286C56.0249 53.6469 56.0755 53.9264 56.1766 54.1665C56.2773 54.406 56.4151 54.609 56.5897 54.7725C56.7642 54.9367 56.9688 55.0592 57.2039 55.1402C57.4396 55.2206 57.6903 55.2616 57.9588 55.2616C58.1106 55.2616 58.2524 55.2544 58.3835 55.2389C58.5153 55.2239 58.6415 55.1973 58.7627 55.1596C58.8844 55.1219 59.005 55.072 59.1268 55.0126C59.248 54.9511 59.3742 54.8762 59.5059 54.7853L59.7188 55.4047C59.4448 55.5915 59.1662 55.7202 58.8805 55.7906C58.5948 55.8616 58.2618 55.897 57.8832 55.897C57.5542 55.897 57.2345 55.8455 56.9232 55.7418C56.6125 55.6387 56.3373 55.4817 56.0966 55.2727C55.8564 55.0636 55.6647 54.7975 55.5207 54.4742C55.3762 54.1515 55.3044 53.7717 55.3044 53.3325C55.3044 52.9538 55.375 52.6072 55.5168 52.2917C55.6585 51.9768 55.8509 51.7084 56.0933 51.4866C56.3362 51.2643 56.6191 51.0924 56.9427 50.9676C57.2656 50.8445 57.6075 50.7824 57.9661 50.7824C58.3352 50.7824 58.6554 50.8246 58.9261 50.9099C59.1963 50.9942 59.4603 51.1317 59.7188 51.3208L59.4303 51.872Z" fill="#1BB5C2"/>
<path fill-rule="evenodd" clip-rule="evenodd" d="M61.0686 50.8809H64.2389V51.4787H61.789V52.9464H63.9882V53.5286H61.789V55.201H64.3445V55.7982H61.0686V50.8809Z" fill="#1BB5C2"/>
<path fill-rule="evenodd" clip-rule="evenodd" d="M65.4751 50.8809H69.1379V51.4559H67.6664V55.7982H66.946V51.4637H65.4751V50.8809Z" fill="#1BB5C2"/>
<path fill-rule="evenodd" clip-rule="evenodd" d="M71.155 55.2154H72.3152C72.4819 55.2154 72.6365 55.1987 72.7777 55.166C72.92 55.1328 73.0423 55.0784 73.1462 55.0019C73.2496 54.9259 73.3302 54.8272 73.388 54.7047C73.4464 54.5822 73.4759 54.433 73.4759 54.255C73.4759 54.0776 73.4464 53.9273 73.388 53.8048C73.3302 53.6833 73.2496 53.5852 73.1462 53.5114C73.0423 53.4377 72.9183 53.3845 72.7738 53.3512C72.6298 53.3179 72.4719 53.3013 72.3002 53.3013H71.155V55.2154ZM71.155 50.8809V52.7191H72.3457C72.6187 52.7191 72.8677 52.7512 73.0923 52.8139C73.3174 52.8771 73.5126 52.9725 73.6771 53.1011C73.8411 53.2297 73.969 53.3906 74.0596 53.5819C74.1513 53.7731 74.1958 53.9977 74.1958 54.255C74.1958 54.5073 74.1513 54.7285 74.0596 54.9209C73.969 55.1117 73.8422 55.2725 73.6804 55.4011C73.5181 55.5292 73.3236 55.6274 73.0962 55.6956C72.8694 55.7638 72.6187 55.7982 72.3457 55.7982H70.4346V50.8809H71.155Z" fill="#1BB5C2"/>
<path fill-rule="evenodd" clip-rule="evenodd" d="M79.5658 53.7183H81.3708L80.5058 51.5774H80.4374L79.5658 53.7183ZM80.8855 50.8809L82.994 55.7982H82.2424L81.5981 54.3082H79.3306L78.7164 55.7982H77.9731L80.0894 50.8809H80.8855Z" fill="#1BB5C2"/>
<path fill-rule="evenodd" clip-rule="evenodd" d="M88.1734 50.8809V55.7982H87.453V51.4637H84.9504V55.7982H84.2305V50.8809H88.1734Z" fill="#1BB5C2"/>
<path fill-rule="evenodd" clip-rule="evenodd" d="M89.4634 50.8809H93.1267V51.4559H91.6553V55.7982H90.9348V51.4637H89.4634V50.8809Z" fill="#1BB5C2"/>
<path fill-rule="evenodd" clip-rule="evenodd" d="M94.4229 50.8809H97.5931V51.4787H95.1439V52.9464H97.343V53.5286H95.1439V55.201H97.6999V55.7982H94.4229V50.8809Z" fill="#1BB5C2"/>
<path fill-rule="evenodd" clip-rule="evenodd" d="M99.8235 50.8813V52.6901H100.877L101.666 51.4258C101.792 51.2246 101.94 51.071 102.109 50.9645C102.278 50.8591 102.465 50.8059 102.667 50.8059C102.844 50.8059 103.019 50.8309 103.191 50.8813L103.084 51.4868C102.998 51.4613 102.91 51.4486 102.819 51.4486C102.687 51.4486 102.571 51.4752 102.47 51.5279C102.369 51.5816 102.27 51.6837 102.174 51.835L101.454 52.9618L103.305 55.7985H102.477L100.877 53.2873H99.8235V55.7985H99.0947V50.8813H99.8235Z" fill="#1BB5C2"/>
</svg>
