<svg width="222" height="56" viewBox="0 0 222 56" fill="none" xmlns="http://www.w3.org/2000/svg">
    <g clip-path="url(#clip0_11767_298111)">
        <path fill-rule="evenodd" clip-rule="evenodd" d="M183.666 22.7734L176.694 37.0843H45.2442L38.5234 22.8309C87.6755 30.0582 134.531 30.4152 183.662 22.7734" fill="#C82B2B"></path>
        <path fill-rule="evenodd" clip-rule="evenodd" d="M49.1974 35.5207C48.8008 35.7218 48.3547 35.8285 47.8673 35.8326C47.0411 35.8367 46.3596 35.5576 45.8226 34.9954C45.2773 34.4249 45.0088 33.6903 45.0088 32.7874C45.0088 31.9214 45.2732 31.2032 45.8019 30.6328C46.3472 30.05 47.037 29.7627 47.8879 29.7627C48.3258 29.7627 48.7595 29.8735 49.1974 30.0951V32.0199C48.8917 31.7655 48.5736 31.6383 48.2432 31.6383C47.9334 31.6383 47.6814 31.745 47.4873 31.9543C47.2807 32.1718 47.1774 32.4632 47.1774 32.8284C47.1774 33.1691 47.2807 33.444 47.4873 33.6492C47.6938 33.8503 47.9623 33.9488 48.2928 33.9488C48.6439 33.9488 48.9413 33.838 49.1974 33.6123V35.5166V35.5207ZM55.9677 33.2265H52.1385C52.1385 33.5302 52.2087 33.7888 52.3533 34.0063C52.5268 34.2608 52.7746 34.388 53.0968 34.388C53.5306 34.388 53.8115 34.2074 53.9395 33.8462L55.7694 34.2279C55.2985 35.2991 54.3815 35.8367 53.0266 35.8367C52.1178 35.8367 51.3991 35.5412 50.8704 34.9502C50.3747 34.3921 50.1268 33.6698 50.1268 32.7874C50.1268 31.8845 50.3953 31.154 50.9282 30.5999C51.4611 30.0418 52.1674 29.7668 53.0514 29.7668C54.0634 29.7668 54.8235 30.1156 55.3316 30.8092C55.7571 31.3838 55.9677 32.1102 55.9677 32.9844V33.2306V33.2265ZM54.0139 32.0692C53.9932 31.8188 53.9023 31.6054 53.7495 31.4289C53.5801 31.2402 53.3695 31.1417 53.1175 31.1417C52.6011 31.1417 52.2913 31.4536 52.1881 32.0692H54.018H54.0139ZM61.3005 31.7285H60.0241V35.611H57.9092V31.7285H56.6286V29.9761H61.3005V31.7285ZM67.3934 33.7683C67.3934 34.3469 67.1952 34.7984 66.7945 35.1185C66.3773 35.4509 65.7742 35.6192 64.9852 35.6192H62.3043V29.9802H64.411V31.8476H65.0843C65.8981 31.8476 66.4971 32.0405 66.8895 32.4262C67.2241 32.7587 67.3934 33.206 67.3934 33.7683ZM65.3652 33.6903C65.3652 33.3373 65.1752 33.165 64.7869 33.165H64.411V34.2567H64.791C65.1752 34.2567 65.3652 34.0679 65.3652 33.6903ZM75.2295 35.5207C74.8288 35.7218 74.3868 35.8285 73.8994 35.8326C73.0691 35.8367 72.3917 35.5576 71.8547 34.9954C71.3094 34.4249 71.0368 33.6903 71.0368 32.7874C71.0368 31.8845 71.3011 31.2032 71.8299 30.6328C72.3751 30.05 73.065 29.7627 73.9159 29.7627C74.3497 29.7627 74.7875 29.8735 75.2254 30.0951V32.0199C74.9197 31.7655 74.6016 31.6383 74.2712 31.6383C73.9614 31.6383 73.7094 31.745 73.5111 31.9543C73.3046 32.1718 73.2013 32.4632 73.2013 32.8284C73.2013 33.1691 73.3046 33.444 73.5111 33.6492C73.7176 33.8503 73.9861 33.9488 74.3166 33.9488C74.6636 33.9488 74.9651 33.838 75.2212 33.6123V35.5166L75.2295 35.5207ZM82.3799 32.7833C82.3799 33.6451 82.0948 34.3675 81.5289 34.9461C80.9424 35.533 80.1864 35.8326 79.257 35.8326C78.3276 35.8326 77.5675 35.5371 76.981 34.9461C76.415 34.3675 76.13 33.6492 76.13 32.7833C76.13 31.9214 76.415 31.2073 76.981 30.641C77.5675 30.0541 78.3234 29.7627 79.257 29.7627C80.1864 29.7627 80.9424 30.0541 81.5289 30.641C82.0948 31.2073 82.3799 31.9214 82.3799 32.7833ZM80.2112 32.7833C80.2112 32.4919 80.1286 32.2457 79.9592 32.0322C79.7775 31.7983 79.542 31.6834 79.257 31.6834C78.972 31.6834 78.7365 31.7983 78.5506 32.0322C78.3854 32.2416 78.3028 32.4919 78.3028 32.7833C78.3028 33.0788 78.3854 33.3332 78.5548 33.5466C78.7407 33.7765 78.9761 33.8955 79.2653 33.8955C79.5544 33.8955 79.7899 33.7806 79.9675 33.5466C80.1327 33.3291 80.2153 33.0788 80.2153 32.7833H80.2112ZM89.6789 36.8792H87.8986V35.6151H83.5447V29.9802H85.6597V33.8668H86.9485V29.9802H89.0676V33.8668H89.6789V36.8792ZM96.3212 35.6151H94.2558V32.7874L92.6035 35.6151H90.6249V29.9802H92.682V32.7546L94.3343 29.9802H96.3253V35.6151H96.3212ZM103.695 35.6151H101.65V34.8928C101.291 35.5166 100.725 35.8326 99.9522 35.8326C99.2582 35.8326 98.6716 35.5535 98.1966 34.9954C97.7092 34.4167 97.4696 33.6821 97.4696 32.7874C97.4696 31.8927 97.7092 31.1211 98.1925 30.5589C98.651 30.0295 99.2293 29.7627 99.9315 29.7627C100.65 29.7627 101.204 30.0623 101.592 30.6574V29.9761H103.691V35.611L103.695 35.6151ZM101.666 32.7833C101.666 32.4385 101.567 32.1595 101.373 31.9461C101.179 31.7326 100.931 31.6259 100.638 31.6259C100.316 31.6259 100.064 31.7285 99.8778 31.9379C99.6919 32.1472 99.6011 32.4303 99.6011 32.7874C99.6011 33.1403 99.6961 33.4194 99.8778 33.6328C100.064 33.8421 100.312 33.9488 100.63 33.9488C100.948 33.9488 101.187 33.8421 101.381 33.6328C101.571 33.4194 101.666 33.1362 101.666 32.7792V32.7833ZM110.577 35.6151H108.462V31.7326H107.35V33.5877C107.35 35.0446 106.694 35.7711 105.384 35.7711C105.111 35.7711 104.818 35.7177 104.504 35.6069L104.612 33.8257C104.711 33.8668 104.822 33.8873 104.95 33.8873C105.116 33.8873 105.235 33.8298 105.302 33.7067C105.376 33.5713 105.413 33.3209 105.413 32.9475V29.9802H110.581V35.6151H110.577ZM117.198 33.7683C117.198 34.3469 117 34.7984 116.599 35.1185C116.186 35.4509 115.583 35.6192 114.794 35.6192H112.113V29.9802H114.22V31.8476H114.893C115.703 31.8476 116.306 32.0405 116.698 32.4262C117.033 32.7587 117.202 33.206 117.202 33.7683H117.198ZM115.17 33.6903C115.17 33.3373 114.98 33.165 114.592 33.165H114.216V34.2567H114.592C114.976 34.2567 115.17 34.0679 115.17 33.6903ZM123.948 35.6151H121.833V33.5138H120.445V35.6151H118.33V29.9802H120.445V31.9379H121.833V29.9802H123.948V35.6151ZM133.019 35.6151H130.937V29.9802H133.019V35.6151ZM130.45 33.7683C130.45 34.3469 130.256 34.7984 129.867 35.1185C129.454 35.4509 128.855 35.6192 128.07 35.6192H125.447V29.9802H127.525V31.8476H128.169C128.942 31.8476 129.528 32.0405 129.929 32.4262C130.28 32.7669 130.454 33.2142 130.454 33.7683H130.45ZM128.438 33.6903C128.438 33.3373 128.248 33.165 127.872 33.165H127.521V34.2567H127.872C128.248 34.2567 128.438 34.0679 128.438 33.6903ZM141.066 35.6151H138.443L137.385 34.0925L136.336 35.6151H133.709L136.055 32.5945L134.089 29.9802H136.658L137.381 31.1745L138.1 29.9802H140.706L138.715 32.5945L141.062 35.6151H141.066ZM150.488 35.6151H148.443V34.8928C148.088 35.5166 147.522 35.8326 146.746 35.8326C146.052 35.8326 145.465 35.5535 144.994 34.9954C144.507 34.4167 144.263 33.6821 144.263 32.7874C144.263 31.8599 144.503 31.1211 144.986 30.5589C145.444 30.0295 146.027 29.7627 146.729 29.7627C147.448 29.7627 148.001 30.0623 148.39 30.6574V29.9761H150.488V35.611V35.6151ZM148.464 32.7833C148.464 32.4385 148.365 32.1595 148.171 31.9461C147.977 31.7326 147.729 31.6259 147.431 31.6259C147.109 31.6259 146.857 31.7285 146.671 31.9379C146.489 32.1472 146.394 32.4303 146.394 32.7874C146.394 33.1403 146.489 33.4194 146.671 33.6328C146.857 33.8421 147.105 33.9488 147.423 33.9488C147.741 33.9488 147.981 33.8421 148.175 33.6328C148.365 33.4194 148.46 33.1362 148.46 32.7792L148.464 32.7833ZM157.556 35.6151H155.437V31.7326H154.098V35.6151H151.983V29.9802H157.556V35.6151ZM163.219 31.7285H161.943V35.611H159.828V31.7285H158.547V29.9761H163.219V31.7285ZM169.725 33.2265H165.896C165.896 33.5302 165.966 33.7888 166.111 34.0063C166.288 34.2608 166.536 34.388 166.858 34.388C167.292 34.388 167.569 34.2074 167.701 33.8462L169.531 34.2279C169.06 35.2991 168.143 35.8367 166.788 35.8367C165.879 35.8367 165.16 35.5412 164.632 34.9502C164.136 34.3921 163.888 33.6698 163.888 32.7874C163.888 31.8845 164.157 31.154 164.69 30.5999C165.222 30.0418 165.929 29.7668 166.813 29.7668C167.821 29.7668 168.581 30.1156 169.093 30.8092C169.518 31.3838 169.729 32.1102 169.729 32.9844V33.2306L169.725 33.2265ZM167.771 32.0692C167.75 31.8188 167.66 31.6054 167.507 31.4289C167.337 31.2402 167.127 31.1417 166.875 31.1417C166.354 31.1417 166.049 31.4536 165.941 32.0692H167.771ZM177.028 35.6151H174.492L172.988 32.9598V35.6151H170.894V29.9802H172.988V32.4098L174.463 29.9802H176.917L174.942 32.6273L177.028 35.6151Z" fill="#FEFEFE"></path>
        <path fill-rule="evenodd" clip-rule="evenodd" d="M73.2136 10.9948C73.573 10.8553 73.9572 10.7814 74.3496 10.7773C75.8738 10.7773 76.7702 11.8115 76.7743 13.289C76.7743 13.6912 76.7206 14.118 76.6669 14.5161C76.6008 14.9963 76.5224 15.4764 76.4356 15.9525C76.7289 15.5667 77.0263 15.1851 77.3196 14.7993L77.3402 14.7705L77.365 14.7418C78.1044 13.8717 79.0669 13.1905 80.2566 13.1864C80.7357 13.1864 81.186 13.3054 81.566 13.5557H81.7106L82.0906 14.0359C82.4789 14.5284 82.6235 15.1358 82.6235 15.7473C82.6235 16.1495 82.5905 16.5558 82.5492 16.9539C82.4955 17.4669 82.4211 17.9758 82.3385 18.4847C82.2683 18.9362 82.2022 19.3917 82.1526 19.8514C82.1237 20.1428 82.0948 20.4424 82.0948 20.7296C82.0948 20.9923 82.1072 21.4889 82.1939 21.8295C82.5492 21.6941 82.9911 21.3453 83.1894 21.1688C83.966 20.4998 84.6765 19.6298 85.2961 18.8007C85.7092 17.8773 86.2008 16.9867 86.7378 16.129C86.7378 16.1003 86.7336 16.0715 86.7295 16.0469V15.9894H86.7254C86.7088 15.7719 86.6964 15.5503 86.6964 15.3328C86.6964 14.0195 87.0558 12.8006 87.6754 11.6761C86.7915 11.713 85.8868 11.6268 85.0194 11.4791L84.7715 11.438L84.6145 11.356C84.5691 11.3436 84.5237 11.3354 84.4824 11.3272C84.2965 11.2862 84.1064 11.2616 83.9164 11.241C83.6108 11.2287 83.2968 11.1631 83.0035 11.0851C82.6607 10.9948 82.322 10.8799 81.9874 10.7609C80.2896 10.3628 78.4473 10.0468 76.6959 10.0755C75.6177 10.0919 74.3991 10.2479 73.4408 10.7814L73.4036 10.8019C73.3664 10.8265 73.3293 10.8553 73.2962 10.8881L73.2838 10.9004C73.2549 10.9291 73.2301 10.962 73.2053 10.9948M149.166 24.9774C148.955 25.1661 148.741 25.3508 148.522 25.5232C147.064 26.6846 145.362 27.4931 143.461 27.4931C140.359 27.4931 138.93 25.4452 138.93 22.519C138.93 21.218 139.161 19.9376 139.562 18.6981C139.756 18.0989 139.988 17.5079 140.252 16.9334C140.083 16.8595 139.917 16.7733 139.76 16.6789C139.393 17.2945 139.004 17.8978 138.612 18.497L138.595 18.5217C138.443 18.7597 138.286 18.9977 138.129 19.2317L137.55 20.114C137.53 20.151 137.509 20.1879 137.484 20.2248L137.402 20.3603L137.393 20.3685C137.133 20.7871 136.861 21.1934 136.576 21.5915L136.278 22.0429V21.9937C135.526 22.991 134.692 23.9226 133.767 24.768L132.87 25.5848L132.837 25.5519C132.242 26.0116 131.61 26.4261 130.937 26.7544C128.636 27.3454 126.356 28.2811 124.505 25.9829C124.096 25.4781 123.832 24.8912 123.663 24.2756C123.341 24.5752 122.998 24.8542 122.634 25.0923C121.936 25.5519 121.147 25.8638 120.3 25.8638C119.23 25.8638 118.338 25.4001 117.752 24.5423C117.475 24.8091 117.19 25.0594 116.892 25.2975C115.513 26.3974 113.914 27.1238 112.121 27.1238C110.746 27.1238 109.498 26.6723 108.631 25.5848C107.891 24.6572 107.611 23.4753 107.553 22.3138C107.392 22.5067 107.231 22.6955 107.065 22.8843C106.66 23.3521 106.239 23.8159 105.797 24.255L105.731 24.3207L105.715 24.333C105.504 24.53 105.289 24.727 105.066 24.9117L105.099 24.9732L104.112 25.6217C103.571 25.9787 102.984 26.2783 102.36 26.4753C101.807 26.6477 101.229 26.7585 100.65 26.7544C100.064 26.7462 99.4894 26.6231 98.9607 26.3604C97.8661 25.8187 97.2134 24.8255 96.8664 23.6887C96.8499 23.6312 96.8334 23.5779 96.8168 23.5204C96.697 23.5656 96.5773 23.6025 96.4533 23.6394L95.3504 23.976L95.3132 23.8857C95.0613 23.9185 94.8051 23.9349 94.549 23.9349C94.0905 23.9349 93.632 23.8816 93.1859 23.7667C92.5828 24.5793 91.8888 25.3467 91.0916 25.9582L89.3525 26.9268C88.7949 27.1279 88.2042 27.2387 87.5887 27.2387C85.9033 27.2387 84.8417 26.4015 84.3997 25.0923C84.0982 25.3057 83.7925 25.5027 83.4744 25.6791C82.7144 26.0978 81.8717 26.4015 80.996 26.4015C80.4755 26.4015 79.9716 26.2989 79.5006 26.0731C77.964 25.3385 77.3361 23.5943 77.0924 21.8624C76.5926 22.6462 76.1258 23.4588 75.6838 24.2715C75.1633 25.4083 74.3867 26.1634 73.3004 26.4589C73.0608 26.5246 72.8088 26.5615 72.5486 26.5615C72.2346 26.5615 71.9248 26.5 71.6357 26.3727C71.3093 26.2291 71.0284 26.0075 70.8136 25.7202L70.636 25.4781L70.5575 25.2031C70.4749 24.9035 70.4212 24.5998 70.3882 24.292C70.3551 23.9678 70.3386 23.6435 70.3386 23.3152C70.3386 22.5436 70.4253 21.7392 70.5203 20.9718C70.574 20.545 70.6319 20.1222 70.6938 19.6954C70.1031 20.4875 69.529 21.2878 68.963 22.0963C68.1534 23.2577 67.3644 24.4397 66.592 25.6299L66.5755 25.6545L66.5672 25.6668C66.4102 25.8967 66.2367 26.1183 66.0261 26.303C65.6667 26.6231 65.2247 26.8201 64.7373 26.8201C63.94 26.8201 63.2998 26.3686 62.9817 25.6504C62.7958 25.2318 62.738 24.7598 62.738 24.3043C62.738 24.1894 62.7421 24.0786 62.7545 23.9636V23.9554L62.7628 23.8816C62.7834 23.7174 62.8165 23.5491 62.8702 23.3932V23.3809L62.9032 23.307L62.9197 23.2701C63.056 22.9499 63.1882 22.6216 63.3122 22.2974C60.9617 23.9678 60.0447 24.5177 57.0251 25.9336C55.1621 26.8078 53.2207 27.5588 51.2214 28.0759C49.4699 28.5315 47.6648 28.8106 45.8514 28.8106C44.5543 28.8106 43.2407 28.6874 41.9809 28.3673C40.8325 28.0759 39.7378 27.6245 38.7506 26.9719C37.4577 26.1142 36.9041 25.6258 36.1234 24.0991C32.2901 16.6174 40.1137 8.75808 46.1158 4.96182L46.7188 4.58835C49.0486 3.16834 51.5312 1.97816 54.1418 1.16556C56.5666 0.410407 59.0575 0 61.5855 0C63.3948 0 65.4271 0.254452 66.9514 1.30099C68.4508 2.32701 69.1241 3.87014 69.1241 5.6554C69.1241 7.16981 68.6904 8.58571 67.9097 9.88259C66.5713 11.7171 67.1703 11.4052 64.9769 13.1166C64.8447 13.2233 64.7084 13.33 64.572 13.4326L64.5638 13.4408C63.3122 14.4176 61.9407 15.2548 60.4578 15.8294C59.0781 16.3629 57.6323 16.6584 56.1535 16.6584C53.167 16.6584 50.7216 15.4108 50.7257 12.1562C50.7257 11.4257 50.8 10.6172 51.1016 9.94005C51.5023 9.05357 52.2623 8.49132 53.2537 8.49132C54.4599 8.49132 55.1993 9.36548 55.1993 10.531C55.1993 10.6542 55.1911 10.7773 55.1745 10.8963C55.1621 11.0153 55.1415 11.1384 55.125 11.2575C55.1126 11.3313 55.096 11.4134 55.0919 11.475C55.0919 11.5365 55.1002 11.6802 55.1374 11.7335C55.2737 11.9182 56.0089 11.951 56.2031 11.951C57.0127 11.951 57.8265 11.7212 58.5659 11.4093C59.6399 10.9538 60.6519 10.2971 61.5772 9.59941C62.4116 8.96739 63.2874 8.19582 63.8698 7.32166C64.2209 6.79634 64.4894 6.19304 64.4894 5.5528C64.4894 5.44199 64.477 5.31887 64.4192 5.22037C64.0805 4.61708 62.2547 4.55551 61.6846 4.55551C61.4203 4.55551 61.16 4.56372 60.8957 4.58014C60.6437 4.59656 60.3917 4.61708 60.1397 4.64991L59.9993 4.66632H59.9828C58.4998 4.83049 57.0293 5.23679 55.6372 5.7498C53.8196 6.41466 52.0682 7.28882 50.3911 8.24918C48.2596 9.47219 46.1116 10.9538 44.2776 12.5831C42.6005 14.0687 40.1592 16.6256 40.2087 19.0306C40.2335 20.4013 41.0886 21.4684 42.1172 22.2933L42.2411 22.3918C42.6624 22.7201 43.1457 22.9541 43.6538 23.11L43.7612 23.1428C44.4841 23.3521 45.2607 23.4219 46.0125 23.4219C49.0775 23.4219 52.0434 22.8104 54.8813 21.6736C58.0702 20.3972 60.9907 18.5176 63.6302 16.3383L63.655 16.3178L63.6922 16.289C63.8739 16.1536 64.0763 16.0387 64.2911 15.9607C64.5349 15.8663 64.791 15.8212 65.0553 15.8171C65.1214 15.8171 65.1875 15.8171 65.2536 15.8253C65.2701 15.7555 65.2867 15.6898 65.3032 15.6201C65.3486 15.3205 65.4065 15.0168 65.4643 14.7213C65.5469 14.3027 65.6419 13.8882 65.7369 13.4737V13.4572L65.7534 13.408V13.3916C65.8691 13.0017 66.088 12.661 66.3689 12.3697C66.6044 12.1275 66.877 11.9264 67.1662 11.7499C67.4347 11.5858 67.7197 11.4421 68.0171 11.3395C68.3393 11.2246 68.6739 11.1549 69.0167 11.1549C69.087 11.1549 69.1572 11.1549 69.2233 11.1631C69.2605 10.8758 69.3142 10.5926 69.3885 10.3176C69.4918 9.91953 69.6364 9.52964 69.8305 9.16438C70.0784 8.61854 70.4129 8.12195 70.8343 7.69102C71.2556 7.2601 71.7472 6.91125 72.2842 6.63628C73.2673 6.06581 74.3496 5.71286 75.4731 5.51997C76.7124 5.30656 77.9888 5.29425 79.2404 5.39274C79.9426 5.40095 80.7688 5.53228 81.4586 5.63078C82.7763 5.81546 84.0899 6.02477 85.3994 6.23818H85.4118L85.8249 6.30385C86.399 6.40235 88.576 6.73888 89.1501 6.48443C89.2369 6.43518 89.3319 6.3613 89.3815 6.27512L89.3938 6.24639C89.4104 6.20945 89.4393 6.14789 89.4475 6.09864C89.3443 5.76621 89.2864 5.41737 89.2947 5.06852C89.3071 4.67864 89.398 4.30106 89.5715 3.94811L89.811 3.47615L90.2778 3.25042L90.3233 3.2299C90.7983 2.95493 91.3394 2.85643 91.8682 3.05753C92.9422 3.46794 93.0826 4.69916 93.062 5.68003C93.0537 6.13968 93.0207 6.60755 92.9422 7.059C92.8802 7.41605 92.7811 7.77721 92.6365 8.11374V8.14657L92.5456 8.31074L92.5332 8.33126C92.5745 8.33126 92.6158 8.33126 92.6571 8.33126C93.3966 8.33126 94.0823 8.55288 94.6812 8.9838C95.2389 9.386 95.6602 9.93595 95.9824 10.5351L95.9989 10.5639L96.032 10.6377C96.5153 11.6432 96.7673 12.7144 96.7673 13.8307C96.7673 14.947 96.5731 15.9648 96.2922 16.9949V17.0073L96.1435 17.5038C95.8957 18.3082 95.5941 19.1003 95.2554 19.876C95.4578 19.8391 95.652 19.7816 95.8461 19.6995C96.2509 19.5313 96.6186 19.2809 96.9449 18.9936C96.9945 18.813 97.0564 18.6366 97.1308 18.4642C97.3084 18.0497 97.5562 17.6721 97.8991 17.3725C98.1593 17.1427 98.4526 16.958 98.7748 16.8267C99.1135 16.6871 99.4688 16.6174 99.8323 16.6174C100.159 16.6174 100.485 16.6707 100.795 16.7733C101.105 16.88 101.394 17.036 101.65 17.2371C101.881 17.4177 102.088 17.627 102.261 17.8609C102.443 18.1112 102.583 18.3944 102.67 18.694L102.819 19.1988L102.629 19.6913C102.41 20.2536 102.203 20.8405 102.067 21.4273C101.993 21.7433 101.927 22.0963 101.918 22.4287C101.956 22.4041 101.993 22.3836 102.03 22.359L102.17 22.2646C102.563 21.9978 102.926 21.6449 103.248 21.3001C103.736 20.7789 104.178 20.2084 104.595 19.6298L104.603 19.6133L105.099 18.9526L105.826 17.9676C106.173 17.4956 106.545 17.0401 106.921 16.5886L107.577 15.8089L107.59 15.8171C107.825 15.5503 108.065 15.2835 108.305 15.0209C108.474 14.8198 108.647 14.6187 108.821 14.4176C108.99 14.2247 109.16 14.0318 109.329 13.843C109.833 13.2849 110.341 12.7349 110.845 12.1809L110.874 12.1439L110.915 12.1029C111.44 11.5858 112.097 11.2903 112.84 11.278H112.861H112.993H113.009C114.352 11.3231 115.257 12.0372 115.554 13.1782L115.525 14.8403C115.455 15.0537 115.356 15.2589 115.244 15.4559L115.224 15.497L115.207 15.5175C114.422 16.7979 113.67 18.1646 113.129 19.5641C112.803 20.4095 112.493 21.4191 112.493 22.3302C112.493 22.4164 112.501 22.6175 112.534 22.7283C112.617 22.7488 112.753 22.7529 112.811 22.7529C113.1 22.7529 113.398 22.6545 113.654 22.5313C114.079 22.3261 114.48 22.0265 114.835 21.7146L114.848 21.6982L114.947 21.612C115.319 21.2919 115.666 20.9348 115.988 20.5655C116.397 20.1017 116.777 19.6092 117.136 19.1085V19.1003L117.182 19.047C117.268 18.9239 117.359 18.8048 117.45 18.6858C117.657 18.0333 117.913 17.3971 118.202 16.7774L118.231 16.7159C118.623 15.8376 119.127 14.9183 119.8 14.2206C120.474 13.5229 121.316 13.0591 122.308 13.055C122.77 13.055 123.233 13.1289 123.646 13.3464C124.295 13.6912 124.679 14.3068 124.679 15.0414C124.679 15.4888 124.39 15.9607 124.179 16.3465C123.836 16.9744 123.481 17.5941 123.126 18.2097C122.791 18.7925 122.461 19.4122 122.225 20.0402C122.196 20.1181 122.163 20.2043 122.134 20.2987C122.304 20.1017 122.452 19.9211 122.535 19.8144C123.857 18.1441 125.034 16.1454 126.092 14.2986C126.24 14.0031 126.397 13.7117 126.554 13.4203C126.769 13.0263 126.988 12.6323 127.207 12.2424L127.281 12.1029L127.393 11.9716C127.628 11.7007 127.909 11.4668 128.231 11.2985C128.644 11.1508 128.929 11.0112 129.38 11.0112C131.693 11.0112 132.746 13.252 131.573 15.4682C131.255 16.0674 130.635 17.2371 130.169 18.1236C129.673 19.0634 129.202 20.0525 128.859 21.058C128.669 21.6161 128.475 22.3056 128.475 22.9007C128.475 22.9582 128.475 23.0772 128.496 23.1593C128.545 23.1675 128.603 23.1675 128.636 23.1675C129.392 23.1675 130.392 22.3877 130.937 21.9116H130.941L130.974 21.8788C131.404 21.5094 131.804 21.0949 132.184 20.6763C132.511 20.3151 132.829 19.9417 133.135 19.56C133.213 19.3999 133.304 19.244 133.407 19.0962L133.415 19.0757L133.482 18.9854C134.2 18.0169 134.853 16.9908 135.456 15.9484C136.109 14.8198 136.716 13.6665 137.286 12.4928C137.282 12.4435 137.274 12.3943 137.269 12.3491C137.245 12.0947 137.236 11.8361 137.236 11.5776C137.236 11.0564 137.29 10.5351 137.377 10.018C137.472 9.45988 137.608 8.90993 137.773 8.36819C137.955 7.69102 138.215 6.97281 138.624 6.39824C139.124 5.70055 139.835 5.24089 140.71 5.24089C141.33 5.24089 141.888 5.48303 142.338 5.90575C142.685 6.22997 142.941 6.64448 143.139 7.07541C143.466 7.72796 143.664 8.43386 143.664 9.16849C143.664 10.0016 143.325 10.8306 142.92 11.5488C142.639 12.0454 142.309 12.5256 141.958 12.9853C142.131 12.8827 142.297 12.7185 142.429 12.5708C142.722 12.2383 143.04 11.8977 143.387 11.6186C143.817 11.2698 144.317 11.0112 144.882 11.0112C145.324 11.0112 145.738 11.1179 146.105 11.3108C148.026 13.4326 147.914 13.1535 146.803 15.7022C146.65 16.01 146.506 16.3178 146.357 16.6256C146.126 17.1099 145.899 17.5982 145.667 18.0825L145.659 18.103L145.647 18.1236C145.159 19.0634 144.692 20.0566 144.358 21.058C144.168 21.6202 143.978 22.3097 143.978 22.9089C143.978 22.9664 143.982 23.0854 143.999 23.1675C144.048 23.1757 144.106 23.1757 144.139 23.1757C144.911 23.1757 145.928 22.3754 146.465 21.8952C146.886 21.5176 147.282 21.099 147.662 20.6804C148.171 20.1181 148.658 19.5354 149.129 18.9444L149.162 18.9033C149.484 18.4929 149.81 18.0784 150.141 17.6721C150.546 17.1755 151.033 16.6748 151.731 16.6707C151.781 16.6707 151.83 16.6707 151.88 16.6748C154.102 11.5119 156.874 4.58835 161.72 1.78937C162.641 1.25584 163.665 0.906999 164.743 0.906999C165.755 0.906999 166.763 1.14503 167.544 1.8181C168.415 2.56504 168.882 3.67724 168.812 4.81407C168.746 5.89344 168.143 7.04668 166.966 7.21905C165.945 7.3668 165.181 6.71015 164.665 5.91807C164.442 6.00835 164.194 6.13968 164.07 6.20945C161.67 7.6705 160.162 10.7075 158.952 13.5106C159.836 12.7924 160.807 12.1768 161.831 11.6843C163.017 11.1138 164.64 10.5516 165.97 10.5516C166.689 10.5516 167.362 10.7896 167.903 11.2657C168.283 11.6022 168.556 12.0331 168.729 12.5092C168.882 12.9319 168.952 13.3834 168.952 13.8307C168.952 14.9224 168.539 16.0469 167.808 16.8636L167.337 17.3889H161.451L162.595 15.9977C162.492 16.051 162.397 16.1044 162.31 16.1577C161.769 16.4737 161.253 16.8554 160.765 17.2658C160.786 17.3315 160.807 17.3971 160.819 17.4628L160.976 18.1318V18.1441L160.984 18.1646C161.203 19.166 161.587 20.467 162.261 21.2714C162.637 21.7228 163.066 21.965 163.661 21.965C164.479 21.965 165.297 21.5299 165.945 21.0662C166.404 20.742 166.829 20.3685 167.23 19.9745C167.436 18.8623 167.845 17.7665 168.32 16.7487L168.337 16.7159C168.729 15.8376 169.233 14.9183 169.907 14.2206C170.58 13.5229 171.423 13.0591 172.414 13.055C172.877 13.055 173.339 13.1289 173.752 13.3464C174.401 13.6912 174.785 14.3068 174.785 15.0373C174.785 15.4846 174.496 15.9566 174.285 16.3424C173.942 16.9662 173.587 17.5859 173.232 18.2056C173.071 18.4847 172.918 18.7638 172.773 19.0511C172.749 19.1578 172.711 19.2645 172.67 19.3671C172.641 19.441 172.608 19.5148 172.571 19.5846V19.6544L172.377 19.9252C172.36 19.9622 172.348 19.9991 172.336 20.0361C172.307 20.114 172.274 20.2002 172.245 20.2946C172.414 20.0976 172.563 19.917 172.645 19.8103C173.967 18.14 175.145 16.1413 176.202 14.2945C176.351 13.999 176.508 13.7076 176.665 13.4162C176.879 13.0222 177.098 12.6282 177.317 12.2383L177.392 12.0988L177.503 11.9675C179.424 9.75947 182.307 11.9182 182.332 13.843C182.336 14.2822 181.894 15.0701 181.679 15.4682C181.208 16.3506 180.742 17.2371 180.279 18.1236C179.787 19.0634 179.312 20.0525 178.97 21.058C178.78 21.6161 178.585 22.3056 178.585 22.9007C178.585 22.9582 178.59 23.0772 178.606 23.1593C178.656 23.1675 178.714 23.1675 178.747 23.1675C179.515 23.1675 180.539 22.3631 181.076 21.887L181.093 21.8706H181.101C181.527 21.4971 181.923 21.0867 182.299 20.6722C182.799 20.1222 183.27 19.5436 183.724 18.9567L183.774 18.891H183.778C184.108 18.4683 184.439 18.0456 184.782 17.6434C185.199 17.155 185.699 16.6707 186.393 16.6666C187.054 16.6666 187.619 17.0155 187.917 17.5941L187.925 17.6106C188.07 17.9019 188.132 18.2221 188.132 18.5463C188.132 18.8705 188.07 19.1783 187.962 19.4738C187.876 19.72 187.756 19.9581 187.624 20.1879V20.1961L187.586 20.2495C186.562 21.9239 185.331 23.4547 183.877 24.7845C181.655 26.816 176.941 28.8844 174.616 25.9993C174.207 25.4904 173.938 24.9076 173.773 24.292C172.835 25.1661 171.695 25.8802 170.415 25.8802C169.378 25.8802 168.506 25.4452 167.92 24.6326C167.242 25.2072 166.515 25.7571 165.755 26.1922C164.95 26.6559 164.024 27.0335 163.079 27.0335C160.852 27.0335 159.125 25.3919 157.899 23.7133L157.523 23.1962V23.188C157.138 22.6298 156.783 22.0429 156.486 21.4355L155.87 22.1497C155.556 22.5642 155.292 23.0074 155.085 23.4835C154.867 23.9883 154.705 24.5136 154.61 25.0553L154.47 25.872L153.718 26.2086C153.425 26.344 153.115 26.4466 152.801 26.5164C152.487 26.582 152.165 26.619 151.843 26.619C151.331 26.619 150.789 26.5615 150.323 26.344C149.724 26.0731 149.307 25.5971 149.162 24.9938L149.166 24.9774Z" fill="#FEFEFE"></path>
        <path fill-rule="evenodd" clip-rule="evenodd" d="M93.3099 14.9469C93.3099 14.5735 93.281 14.2 93.2232 13.8265C93.1653 13.449 93.0745 13.0673 92.9588 12.6774C92.7936 12.1562 92.6118 11.7704 92.4094 11.52C92.2442 11.3148 92.0666 11.2163 91.8848 11.2163C91.5502 11.2163 91.2528 11.3189 90.9925 11.52C90.7158 11.7335 90.4721 12.0618 90.2655 12.505C90.1003 12.8662 89.9805 13.2479 89.9062 13.6419C89.8772 13.8019 89.8525 13.9702 89.8359 14.1343C89.9557 14.0358 90.0755 13.9538 90.1953 13.884C90.5258 13.687 90.8604 13.5926 91.1991 13.5926C91.5048 13.5926 91.7774 13.646 92.0129 13.7527C92.2566 13.8635 92.459 14.0276 92.6118 14.2493L92.6696 14.3313V14.6432C92.682 14.6925 92.6944 14.7335 92.7027 14.7746C92.7151 14.8402 92.7233 14.9018 92.7233 14.951C92.7233 15.1563 92.6035 15.2958 92.3681 15.3656C92.2524 15.3984 92.0872 15.4189 91.8848 15.4189C91.6535 15.4189 91.4015 15.5543 91.1289 15.8252C90.8356 16.1166 90.534 16.5516 90.2201 17.1262C90.4349 17.709 90.7199 18.2466 91.0793 18.7268C91.3891 19.1372 91.7526 19.5189 92.1698 19.8554C92.5292 18.9156 92.806 18.0578 92.996 17.2781C93.2108 16.4039 93.3182 15.6282 93.3182 14.951M91.48 21.181C90.976 20.8281 90.5258 20.4505 90.1292 20.0524C89.8153 19.7323 89.5303 19.3958 89.2865 19.0428C88.8817 19.917 88.5678 20.6885 88.3489 21.3493C88.0969 22.1126 87.9688 22.7242 87.9688 23.1797C87.9688 23.4588 88.0143 23.6599 88.1051 23.783C88.1754 23.8733 88.291 23.9225 88.448 23.9225C88.8528 23.9225 89.4311 23.5327 90.1788 22.7611L90.1912 22.7488C90.5299 22.4287 90.8191 22.1168 91.0545 21.813C91.2239 21.5955 91.3643 21.3862 91.48 21.1851V21.181ZM67.8644 5.47476C67.8644 6.71829 67.5174 7.91257 66.8275 9.0535C66.1501 10.178 65.1339 11.2492 63.7832 12.2711C62.5274 13.252 61.2675 13.9866 59.9953 14.4791C58.7188 14.9757 57.4342 15.2219 56.1495 15.2219C53.3736 15.2219 51.9857 14.1384 51.9857 11.9756C51.9857 11.2328 52.0766 10.6664 52.2501 10.2765C52.4649 9.80455 52.7953 9.57061 53.2456 9.57061C53.6958 9.57061 53.9271 9.82917 53.9271 10.3504C53.9271 10.4078 53.923 10.4858 53.9106 10.5802C53.9024 10.6664 53.8858 10.7649 53.8693 10.8757C53.8363 11.0645 53.8197 11.204 53.8197 11.2984C53.8197 12.4558 54.6129 13.0344 56.2032 13.0344C57.0954 13.0344 58.0497 12.821 59.0617 12.3901C60.0944 11.951 61.189 11.2984 62.3457 10.4243C63.4981 9.5542 64.3573 8.69234 64.9274 7.8387C65.4809 7.00557 65.7577 6.18476 65.7577 5.37215C65.7577 3.86596 64.3987 3.11081 61.6889 3.11081C61.3914 3.11081 61.0982 3.11902 60.8214 3.13544C60.5446 3.15185 60.2638 3.17648 59.9829 3.21341H59.9787C58.4958 3.36526 56.8972 3.75926 55.1994 4.38307C53.4893 5.011 51.6759 5.87695 49.7592 6.97274C45.3393 9.50905 33.9012 17.315 41.4522 23.2002C42.0016 23.6311 42.6543 23.9554 43.4019 24.1688C44.162 24.3863 45.0295 24.4971 46.0085 24.4971C49.1726 24.4971 52.2872 23.8856 55.3523 22.6585C58.4256 21.4314 61.4575 19.5845 64.44 17.1221L64.4524 17.1139C64.5474 17.0441 64.6424 16.9908 64.7415 16.9538C64.8489 16.9128 64.9563 16.8923 65.0596 16.8923C65.3611 16.8923 65.5966 16.9826 65.7618 17.1631C65.9064 17.3191 65.9849 17.5325 66.0014 17.7993C66.1831 17.1262 66.3649 16.4203 66.5508 15.6775C66.588 15.423 66.6417 15.1275 66.7119 14.7787C66.7821 14.4339 66.8689 14.0276 66.9763 13.5639V13.5475C67.03 13.3751 67.1332 13.2109 67.2861 13.0509C67.4265 12.9072 67.6041 12.7677 67.8272 12.6322C68.0461 12.4968 68.2527 12.3983 68.4468 12.3285C68.6533 12.2547 68.8475 12.2177 69.021 12.2177C69.4754 12.2177 69.7026 12.427 69.7026 12.8416C69.7026 13.0468 69.4919 13.8265 69.0664 15.185C68.7525 16.1905 68.3311 17.4997 67.7983 19.1208L68.5914 18.066L70.5659 15.4353L72.466 12.9195L72.4743 12.9072C72.7635 12.5666 73.0568 12.3039 73.3624 12.1316C73.6846 11.9469 74.011 11.8525 74.3497 11.8525C75.118 11.8525 75.5063 12.2711 75.5063 13.1042C75.5063 13.3381 75.4732 13.6911 75.4113 14.159C75.3493 14.6063 75.2584 15.1768 75.1304 15.858C75.0106 16.5147 74.8784 17.3396 74.738 18.3328C74.643 18.9894 74.5438 19.7241 74.4406 20.5326C74.7917 20.0483 75.1841 19.5148 75.622 18.9361C76.3903 17.9101 77.2908 16.724 78.3276 15.382L78.3359 15.3697C78.9596 14.6309 79.604 14.2616 80.2608 14.2616C80.6243 14.2616 80.9052 14.3847 81.0994 14.6309C81.2729 14.8526 81.3637 15.1686 81.3637 15.5667C81.3637 15.8498 81.3389 16.211 81.2935 16.6419C81.2522 17.0564 81.182 17.5489 81.0911 18.1071C81.0043 18.6488 80.9383 19.1249 80.8969 19.5394C80.8556 19.9375 80.8309 20.2781 80.8309 20.549C80.8309 21.4067 80.9383 22.0429 81.1531 22.4533C81.3307 22.7939 81.5992 22.9663 81.9462 22.9663C82.5369 22.9663 83.2308 22.6257 84.0281 21.9403C84.751 21.3165 85.5441 20.4259 86.4074 19.2562C86.8246 18.3 87.374 17.2945 88.0597 16.2356C88.0349 16.0756 88.0101 15.9114 87.9977 15.7513C87.9771 15.5379 87.9688 15.3368 87.9688 15.148C87.9688 13.8224 88.4108 12.542 89.2948 11.3025C89.7409 10.6705 90.2449 10.1985 90.8067 9.87432C91.3767 9.55009 91.9922 9.38593 92.6614 9.38593C93.1323 9.38593 93.5578 9.52137 93.9378 9.80044C94.3054 10.0631 94.6194 10.4571 94.8879 10.9701V10.9783C95.3009 11.8237 95.5033 12.7102 95.5033 13.6295C95.5033 14.6022 95.3133 15.7021 94.9333 16.9292C94.5822 18.0701 94.0658 19.3219 93.3843 20.6844C93.5495 20.7624 93.7189 20.824 93.8965 20.8691C94.1691 20.9389 94.4583 20.9758 94.7681 20.9758C95.3092 20.9758 95.8297 20.8691 96.3378 20.6598C96.8541 20.4464 97.3539 20.1222 97.8331 19.6954L98.0892 19.4696C98.1429 19.1947 98.2131 18.9607 98.2958 18.7555C98.4114 18.4846 98.556 18.2712 98.7336 18.1194C98.8988 17.9716 99.0765 17.8649 99.2541 17.7911C99.4441 17.7131 99.6341 17.6761 99.8324 17.6761C100.027 17.6761 100.208 17.7049 100.382 17.7664C100.555 17.8239 100.716 17.9142 100.869 18.0291C101.014 18.144 101.134 18.2671 101.233 18.3985C101.336 18.538 101.406 18.6857 101.452 18.8417L101.481 18.9402L101.443 19.0346C101.167 19.7405 100.96 20.3725 100.828 20.9348C100.7 21.4888 100.638 21.9731 100.646 22.3794C100.654 22.7734 100.708 23.0812 100.816 23.3028C100.902 23.4875 101.026 23.6106 101.183 23.6681C101.357 23.7296 101.571 23.7214 101.836 23.6435C102.137 23.5532 102.484 23.3726 102.881 23.1017C103.282 22.8268 103.715 22.441 104.174 21.9485C104.641 21.4437 105.136 20.8322 105.653 20.1099V20.1017L106.115 19.486L106.846 18.5011C107.14 18.103 107.491 17.6638 107.892 17.1837C108.288 16.7117 108.747 16.1905 109.255 15.6323C109.436 15.4148 109.61 15.2137 109.771 15.0249C109.949 14.8197 110.114 14.635 110.263 14.4709C110.572 14.1302 111.08 13.5721 111.795 12.7923L111.808 12.78C112.109 12.4804 112.456 12.3285 112.853 12.3244H112.968C113.918 12.3573 114.397 12.8621 114.397 13.8388C114.397 13.9538 114.373 14.0851 114.327 14.2246C114.286 14.3519 114.224 14.4832 114.146 14.6227V14.6309C113.167 16.2233 112.435 17.6474 111.948 18.9074C111.469 20.1468 111.229 21.2221 111.229 22.1291C111.229 22.7118 111.361 23.1387 111.617 23.4095C111.874 23.6763 112.274 23.8117 112.82 23.8117C113.266 23.8117 113.732 23.6968 114.216 23.4629C114.716 23.2207 115.24 22.8596 115.777 22.3712V22.363C116.157 22.0429 116.545 21.653 116.95 21.1892C117.359 20.7214 117.781 20.1878 118.21 19.5886C118.351 19.3916 118.483 19.2152 118.603 19.0551C118.789 18.419 119.053 17.7459 119.396 17.0195C119.817 16.0756 120.259 15.3656 120.722 14.8854C121.226 14.3642 121.754 14.1097 122.316 14.1097C122.63 14.1097 122.878 14.159 123.056 14.2534C123.299 14.3806 123.419 14.5776 123.419 14.8402C123.419 14.9264 122.956 15.776 122.031 17.3807C121.589 18.144 121.259 18.8212 121.044 19.3999C120.833 19.9621 120.726 20.4341 120.726 20.8199C120.726 21.3206 120.796 21.6899 120.932 21.9198C121.04 22.0962 121.201 22.1865 121.416 22.1865C121.878 22.1865 122.585 21.5873 123.535 20.3889C124.539 19.1249 125.765 17.2247 127.215 14.6884C127.347 14.4298 127.5 14.1343 127.678 13.8101C127.864 13.4654 128.079 13.0755 128.326 12.6446L128.343 12.6199L128.368 12.5912C128.516 12.4229 128.673 12.2957 128.839 12.2095C129.016 12.1151 129.202 12.07 129.392 12.07C129.797 12.07 130.156 12.2301 130.483 12.5543C130.644 12.7102 130.764 12.8867 130.846 13.0755C130.875 13.1412 130.9 13.2109 130.916 13.2848C130.949 13.3587 130.966 13.4859 130.97 13.6624V13.687C130.859 13.884 130.797 14.0482 130.466 14.6843C130.123 15.3245 129.657 16.211 129.062 17.3437C128.446 18.5175 127.984 19.5558 127.674 20.4587C127.372 21.3411 127.224 22.0921 127.224 22.7077C127.224 23.7255 127.703 24.2344 128.653 24.2344C129.562 24.2344 130.615 23.7009 131.825 22.6339C132.234 22.2768 132.676 21.8377 133.143 21.3206C133.498 20.9266 133.87 20.4915 134.254 20.0114C134.267 19.9826 134.279 19.9498 134.291 19.917C134.341 19.8021 134.419 19.6789 134.518 19.5394C135.2 18.6119 135.886 17.5612 136.571 16.3793C137.245 15.2219 137.926 13.925 138.612 12.4927C138.583 12.3491 138.563 12.2013 138.55 12.0372C138.529 11.8279 138.521 11.6103 138.521 11.3805C138.521 10.9619 138.563 10.5146 138.645 10.0303C138.728 9.5542 138.848 9.04529 139.009 8.51177C139.195 7.81407 139.413 7.28875 139.674 6.9276C139.975 6.50488 140.326 6.29967 140.731 6.29967C141.008 6.29967 141.26 6.40638 141.487 6.61979C141.681 6.80037 141.855 7.06713 142.012 7.41188C142.28 7.9454 142.417 8.46252 142.417 8.96732C142.417 9.4557 142.222 10.0467 141.834 10.7321C141.483 11.3518 140.967 12.0659 140.285 12.8662C140.421 13.2725 140.611 13.5803 140.843 13.7855C141.091 14.003 141.404 14.1138 141.785 14.1138C142.049 14.1138 142.309 14.0399 142.569 13.9004C142.846 13.7445 143.123 13.5146 143.396 13.1986C143.705 12.8457 143.974 12.5748 144.197 12.3942C144.465 12.1767 144.697 12.07 144.895 12.07C145.3 12.07 145.659 12.2342 145.965 12.5625C146.114 12.7184 146.225 12.8949 146.304 13.0837C146.382 13.2766 146.419 13.4777 146.419 13.6911C146.279 13.5967 145.151 16.0468 144.536 17.3437C143.928 18.5175 143.47 19.5599 143.168 20.4587C142.875 21.3411 142.722 22.0921 142.722 22.7077C142.722 23.7255 143.201 24.2344 144.151 24.2344C145.056 24.2344 146.118 23.7009 147.324 22.6339C147.72 22.2727 148.15 21.8377 148.621 21.3206C149.092 20.7993 149.6 20.2002 150.137 19.5271C150.579 18.9607 150.914 18.5421 151.141 18.2671C151.434 17.9101 151.636 17.7336 151.752 17.7336C151.934 17.7336 152.07 17.8075 152.169 17.9511C152.239 18.0537 152.273 18.1892 152.273 18.3574C152.273 18.5298 152.239 18.7104 152.173 18.891C152.111 19.0633 152.021 19.2398 151.901 19.4204C150.513 21.6119 149.125 23.2618 147.733 24.3658C146.312 25.4944 144.887 26.0608 143.462 26.0608C141.285 26.0608 140.194 24.8213 140.194 22.3425C140.194 21.2303 140.384 20.0811 140.764 18.9074C141.082 17.9224 141.533 16.9128 142.119 15.8868H142.036C141.727 15.8868 141.417 15.8375 141.111 15.7431C140.814 15.6446 140.52 15.5051 140.235 15.3163C139.884 15.1029 139.62 14.8731 139.438 14.6186L139.397 14.5612C139.252 14.8443 139.079 15.1521 138.889 15.4846C138.521 16.1166 138.075 16.8307 137.546 17.6351C137.187 18.1974 136.856 18.6816 136.563 19.0921C136.514 19.1905 136.46 19.2973 136.394 19.4081C135.394 21.0415 134.233 22.4615 132.907 23.6722C132.04 24.4602 131.197 25.0553 130.379 25.4534C129.545 25.8556 128.731 26.0608 127.946 26.0608C126.864 26.0608 126.042 25.716 125.489 25.0265C124.952 24.3576 124.679 23.3767 124.679 22.0839C124.679 21.7433 124.77 21.218 124.952 20.5121L124.522 21.1195C124.121 21.6735 123.828 22.0634 123.646 22.2809C123.047 22.9868 122.473 23.5162 121.932 23.8733C121.362 24.2468 120.817 24.4355 120.296 24.4355C119.598 24.4355 119.074 24.1401 118.722 23.5491C118.479 23.1387 118.33 22.5887 118.272 21.891C117.558 22.8062 116.831 23.5573 116.095 24.1442C114.798 25.1743 113.472 25.6955 112.113 25.6955C111.014 25.6955 110.18 25.3425 109.614 24.6325C109.069 23.9472 108.796 22.9376 108.796 21.6119C108.796 20.4874 108.928 19.4163 109.189 18.4026C109.238 18.2179 109.288 18.0332 109.346 17.8526L109.184 18.0578C108.689 18.6857 108.152 19.3711 107.553 20.1222C107.02 20.7952 106.533 21.3862 106.095 21.891C105.644 22.4081 105.244 22.8432 104.893 23.192H104.888C104.385 23.6763 103.889 24.0785 103.406 24.3945C102.914 24.7146 102.435 24.9527 101.968 25.1004C101.497 25.2482 101.059 25.322 100.654 25.3179C100.237 25.3138 99.8572 25.2235 99.5185 25.0553C98.841 24.7187 98.3577 24.0785 98.0686 23.1387C97.9281 22.679 97.8538 22.1619 97.8496 21.575V21.415C97.7753 21.4601 97.7009 21.5093 97.6266 21.5545C97.1061 21.8623 96.5856 22.0962 96.0734 22.2522C95.5529 22.4081 95.0407 22.4902 94.5368 22.4902C94.1609 22.4902 93.7932 22.441 93.4421 22.3507C93.186 22.2809 92.934 22.1865 92.6903 22.0675C91.9137 23.2536 91.1165 24.1565 90.3068 24.7762C89.4146 25.4534 88.5017 25.7981 87.5723 25.7981C86.1348 25.7981 85.416 24.9773 85.416 23.3398C85.416 22.995 85.4408 22.6421 85.4904 22.2809C85.3293 22.4451 85.1599 22.6133 84.9905 22.7734C84.214 23.4916 83.4993 24.0333 82.8425 24.3945C82.161 24.768 81.5413 24.9609 80.9754 24.9609C79.1166 24.9609 78.183 23.0402 78.183 19.1988C78.183 18.9402 78.1872 18.6406 78.1996 18.2959L78.2078 18.0701C77.7534 18.5462 77.2784 19.1331 76.7827 19.8308C76.0805 20.824 75.3328 22.0388 74.548 23.4834C74.2671 24.0046 73.9614 24.4027 73.6433 24.6736C73.2963 24.965 72.9246 25.1127 72.5321 25.1127C72.3834 25.1127 72.2512 25.0881 72.1315 25.0347C72.0034 24.9773 71.896 24.8952 71.8093 24.7803L71.7762 24.731L71.7597 24.6736C71.7019 24.4643 71.6605 24.2303 71.6316 23.9718C71.6027 23.7091 71.5903 23.43 71.5903 23.1263C71.5903 22.6051 71.6482 21.8787 71.7638 20.9389C71.8795 20.0155 72.0488 18.8745 72.2802 17.5202C72.4 16.8471 72.4908 16.2931 72.5528 15.8498C72.5982 15.5338 72.623 15.2876 72.6354 15.107C72.0488 15.7062 71.2144 16.7158 70.1363 18.1235C69.4217 19.0592 68.674 20.0852 67.9015 21.1933C67.1332 22.2932 66.336 23.4834 65.5057 24.7639C65.3859 24.9445 65.2744 25.084 65.1628 25.1784C65.0183 25.3097 64.8654 25.3754 64.7167 25.3754C64.4441 25.3754 64.2417 25.2358 64.1178 24.9568C64.031 24.7557 63.9856 24.4807 63.9856 24.1236C63.9856 24.0292 63.9897 23.939 64.0021 23.8487C64.0104 23.7625 64.031 23.6804 64.0558 23.6065L64.0641 23.5819C64.4647 22.6462 64.8696 21.5217 65.2785 20.2043C65.452 19.642 65.6255 19.051 65.8031 18.4231C65.7659 18.4764 65.7246 18.5257 65.6751 18.5749L65.6668 18.5831C64.3739 19.761 62.957 20.8568 61.4162 21.8664C59.8837 22.8719 58.2273 23.7871 56.4552 24.612C54.5013 25.5272 52.6425 26.2167 50.8704 26.6764C49.0941 27.136 47.4088 27.37 45.8184 27.37C44.509 27.37 43.3235 27.2345 42.2577 26.9678C41.1879 26.6969 40.2378 26.2906 39.4158 25.7447C38.4409 25.1004 37.7056 24.3042 37.214 23.348C33.5872 16.2685 42.0842 8.63078 47.3468 5.47476C49.7427 4.0096 52.122 2.91382 54.4889 2.17919C56.86 1.44456 59.2145 1.0752 61.5484 1.0752C63.6014 1.0752 65.1505 1.43635 66.1955 2.15457C67.2778 2.8974 67.8231 4.0055 67.8231 5.47476H67.8644ZM180.614 14.6802C180.271 15.3245 179.804 16.2069 179.209 17.3396C178.594 18.5134 178.131 19.5517 177.825 20.4546C177.524 21.337 177.375 22.088 177.375 22.7036C177.375 23.7214 177.854 24.2303 178.804 24.2303C179.713 24.2303 180.771 23.6968 181.977 22.6298C182.386 22.2727 182.828 21.8336 183.295 21.3165C183.77 20.7952 184.265 20.196 184.782 19.5271C185.232 18.9525 185.575 18.5298 185.806 18.2589C186.108 17.906 186.322 17.7295 186.451 17.7295C186.632 17.7295 186.76 17.8116 186.847 17.9757C186.897 18.0742 186.917 18.1974 186.917 18.3492C186.917 18.5011 186.884 18.6734 186.818 18.8581C186.76 19.0223 186.669 19.207 186.554 19.3999C185.554 21.0333 184.389 22.4533 183.067 23.664C182.2 24.452 181.357 25.0471 180.539 25.4451C179.705 25.8514 178.895 26.0525 178.106 26.0525C177.024 26.0525 176.202 25.7078 175.649 25.0183C175.112 24.3494 174.839 23.3685 174.839 22.0757C174.839 21.7351 174.93 21.2097 175.112 20.5039L174.678 21.1113C174.281 21.6653 173.988 22.0552 173.806 22.2727C172.584 23.7091 171.464 24.4273 170.456 24.4273C169.758 24.4273 169.233 24.1318 168.882 23.5409C168.688 23.2125 168.552 22.7939 168.478 22.285C168.23 22.5148 167.974 22.7529 167.705 22.9868C166.755 23.8405 165.908 24.4807 165.161 24.9116C164.384 25.359 163.702 25.5847 163.12 25.5847C161.711 25.5847 160.328 24.649 158.964 22.7816C158.353 21.9608 157.874 21.1646 157.523 20.393C157.275 19.8431 157.089 19.3096 156.969 18.7842L156.143 19.7405L154.92 21.1605C154.532 21.6653 154.214 22.207 153.958 22.7857C153.706 23.3685 153.516 23.9882 153.396 24.6449L153.367 24.8008L153.218 24.8665C153.004 24.965 152.785 25.0388 152.566 25.084C152.343 25.1332 152.111 25.1579 151.88 25.1579C151.451 25.1579 151.116 25.1045 150.885 24.9978C150.571 24.8542 150.41 24.6325 150.41 24.3247C150.41 23.8897 150.6 23.1346 150.984 22.0593C151.356 21.0128 151.913 19.6502 152.653 17.9634C154.887 12.8785 157.634 5.4214 162.401 2.67168C163.244 2.1874 164.045 1.96167 164.789 1.96167C165.681 1.96167 166.321 2.1915 166.763 2.56497C168.048 3.66486 167.672 5.64302 166.825 5.76614C166.441 5.8195 165.954 5.49528 165.487 4.52261C165.4 4.4118 165.256 4.36255 165.053 4.36255C164.648 4.36255 164.12 4.55134 163.467 4.92481C159.948 7.05893 158.328 11.7458 156.721 15.4066C156.387 16.1125 156.077 16.8061 155.796 17.4833C155.685 17.7582 155.577 18.0332 155.474 18.3C155.937 17.8567 156.37 17.4627 156.8 17.0687C157.473 16.449 158.138 15.8375 159.018 14.9634L159.026 14.9552C160.15 13.8963 161.335 13.1412 162.426 12.6158C163.934 11.8894 165.268 11.6103 166.016 11.6103C166.466 11.6103 166.825 11.7581 167.102 12.0043C167.317 12.1931 167.478 12.4476 167.581 12.7349C167.68 13.0098 167.73 13.3176 167.73 13.6295C167.73 14.3888 167.449 15.226 166.908 15.8252L166.817 15.9278H164.169L164.586 15.423C164.76 15.2137 164.847 14.9141 164.847 14.6268C164.847 14.4873 164.826 14.3601 164.785 14.2493C164.752 14.1508 164.698 14.0728 164.636 14.0235C164.586 13.9825 164.516 13.9579 164.434 13.9579C164.029 13.9579 163.083 14.0687 161.707 14.8731C160.922 15.3327 160.001 16.0181 158.973 17.0359C159.258 17.0564 159.53 17.1385 159.625 17.553L159.786 18.2343C160.146 19.8677 160.658 21.0866 161.331 21.8828C161.972 22.6462 162.765 23.0279 163.707 23.0279C164.648 23.0279 165.669 22.6503 166.73 21.891C167.296 21.4888 167.874 20.9799 168.465 20.3684C168.597 19.3875 168.957 18.2753 169.543 17.0236C169.96 16.0797 170.407 15.3697 170.869 14.8895C171.369 14.3683 171.902 14.1138 172.464 14.1138C172.778 14.1138 173.026 14.1631 173.203 14.2575C173.447 14.3847 173.567 14.5817 173.567 14.8443C173.567 14.9305 173.104 15.7801 172.179 17.3848C171.964 17.7582 171.77 18.1153 171.609 18.4477C171.6 18.5298 171.576 18.616 171.538 18.7063C171.493 18.813 171.431 18.932 171.348 19.051L171.299 19.1208C171.262 19.2152 171.225 19.3096 171.191 19.3999C170.981 19.9621 170.873 20.4341 170.873 20.8199C170.873 21.3206 170.944 21.6899 171.08 21.9198C171.187 22.0962 171.348 22.1865 171.563 22.1865C172.026 22.1865 172.732 21.5873 173.682 20.3889C174.686 19.1249 175.913 17.2247 177.363 14.6884C177.495 14.4298 177.648 14.1343 177.825 13.8101C178.011 13.4654 178.226 13.0755 178.474 12.6446L178.486 12.6199L178.511 12.5912C178.66 12.4229 178.817 12.2957 178.982 12.2095C179.16 12.1151 179.346 12.07 179.536 12.07C179.936 12.07 180.3 12.2301 180.626 12.5543C180.783 12.7102 180.907 12.8867 180.99 13.0755C181.019 13.1412 181.043 13.2109 181.06 13.2848C181.093 13.3587 181.109 13.4859 181.114 13.6624C181.114 13.6706 180.829 14.2698 180.61 14.6843L180.614 14.6802Z" fill="#C82B2B"></path>
        <path fill-rule="evenodd" clip-rule="evenodd" d="M82.3637 9.36948C80.1744 8.85237 78.2825 8.61023 76.688 8.63485C75.1142 8.65948 73.8295 8.95086 72.834 9.50081C72.6688 9.5911 72.52 9.70601 72.3837 9.84965C72.2474 9.9933 72.1235 10.1657 72.0161 10.3627C71.9748 10.4612 71.9459 10.5761 71.9252 10.7074C71.9004 10.851 71.8922 11.0234 71.8922 11.2245C71.8922 11.6883 71.8302 12.0535 71.7022 12.308L71.6691 12.3737L71.6113 12.4188L71.4006 12.5748L71.3924 12.583C71.2932 12.6527 71.1941 12.6979 71.0991 12.7184C70.9421 12.7512 70.8058 12.7184 70.6901 12.6199C70.5992 12.5419 70.5332 12.4352 70.496 12.2916C70.4464 12.1151 70.4381 11.8689 70.4588 11.5528C70.4877 11.1589 70.5455 10.7936 70.6323 10.453C70.7232 10.1164 70.8388 9.80451 70.9875 9.52543C71.1776 9.0904 71.4337 8.71283 71.7559 8.3804C72.0739 8.05207 72.4581 7.7771 72.9042 7.55548C73.7097 7.08351 74.6433 6.75519 75.7007 6.57461C76.7458 6.39403 77.9107 6.3612 79.1954 6.4638C79.8563 6.4638 81.996 6.7675 85.6187 7.35849H85.6229C87.7585 7.72785 89.1505 7.74016 89.7949 7.39542C90.1584 7.18201 90.4146 6.91525 90.5633 6.59102C90.6541 6.38993 90.712 6.20524 90.7285 6.02877C90.745 5.8605 90.7285 5.70044 90.683 5.54859C90.6128 5.32697 90.5798 5.11356 90.5839 4.91246C90.5922 4.69905 90.6376 4.50205 90.7285 4.32148L90.7739 4.22708L90.8689 4.18194L90.9598 4.13679C91.5546 3.77563 91.8397 4.21477 91.8149 5.46241C91.8066 5.91796 91.7694 6.31605 91.7116 6.64848C91.6497 6.99733 91.5588 7.29282 91.439 7.53086C91.1663 8.05618 90.8813 8.50352 90.588 8.86878C90.2865 9.24636 89.9684 9.53774 89.6462 9.74705L89.6297 9.75526C89.1505 10.022 88.5392 10.1821 87.7956 10.2272C87.0769 10.2724 86.2301 10.2149 85.2593 10.0549L85.2139 10.0466L85.1726 10.022C85.0941 9.98098 84.9578 9.94405 84.7719 9.90711C84.5778 9.86607 84.3299 9.82913 84.0325 9.7963C83.8673 9.7963 83.6401 9.75526 83.3551 9.68139C83.0907 9.61162 82.7644 9.50491 82.3761 9.36537" fill="#C82B2B"></path>
        <path d="M30.452 44.156L26.6765 35.0367L22.8721 44.156H30.452ZM53.32 55.6597H35.2437L33.1949 50.7799H20.154L18.0969 55.6597H0L13.9951 27.3252H39.3291L53.3241 55.6597H53.32Z" fill="#006239"></path>
        <path d="M199.128 44.156L195.352 35.0367L191.548 44.156H199.128ZM222 55.6597H203.924L201.875 50.7799H188.834L186.773 55.6597H168.676L182.671 27.3252H208.005L222 55.6597Z" fill="#006239"></path>
        <path d="M83.0369 55.6595H70.6074V43.5238H66.0016V55.6595H53.5474V38.4512H83.0369V55.6595Z" fill="#006239"></path>
        <path d="M108.875 43.5238H102.959V55.6595H90.406V43.5238H84.4907V38.4512H108.875V43.5238Z" fill="#006239"></path>
        <path d="M125.889 44.9968C125.889 43.7409 124.914 43.113 122.973 43.113C121.031 43.113 120.044 43.745 120.044 44.9968H125.885H125.889ZM136.658 47.529H120.048C120.048 48.4401 120.346 49.146 120.936 49.6549C121.461 50.1022 122.139 50.328 122.977 50.328C124.353 50.328 125.261 49.9052 125.695 49.0639L136.241 49.7657C135.7 51.711 134.2 53.246 131.747 54.3664C129.359 55.458 126.439 56.0039 122.977 56.0039C119.28 56.0039 116.108 55.179 113.476 53.5414C110.7 51.8054 109.312 49.6056 109.312 46.9421C109.312 44.2786 110.696 42.1321 113.456 40.47C116.05 38.8981 119.226 38.1143 122.973 38.1143C126.72 38.1143 129.888 38.9228 132.461 40.5398C135.258 42.2881 136.658 44.6233 136.658 47.5331V47.529Z" fill="#006239"></path>
        <path d="M170.841 55.6595H156.866L150.815 47.1723V55.6595H138.497V38.4512H150.815V46.1299L156.788 38.4512H170.126L162.707 46.6101L170.841 55.6595Z" fill="#006239"></path>
    </g>
    <defs>
        <clipPath id="clip0_11767_298111">
            <rect width="222" height="56" fill="white"></rect>
        </clipPath>
    </defs>
</svg>