<svg width="168" height="48" viewBox="0 0 168 48" fill="none" xmlns="http://www.w3.org/2000/svg">
    <g clip-path="url(#clip0_4512_15330)">
        <path d="M39.1752 6.06055H38.8591L38.7448 6.3553L33.8003 19.1138V6.52209V6.06055H33.3387H20.5715H20.1099V6.52209V19.1608L15.0426 6.35229L14.9271 6.06055H14.6134H1.84611H1.11743L1.42884 6.71933L9.08191 22.9095C6.74749 23.4469 5.00285 24.5063 4.01854 25.9462C2.96687 27.4846 2.47891 29.8515 2.47891 32.8472V46.247V46.7085H2.94044H15.7078H16.1693V46.247V33.6773C16.1693 32.6745 16.3975 32.1077 16.7595 31.7547C17.1708 31.3536 17.545 31.1742 18.1396 31.1742C18.5691 31.1742 19.0596 31.4307 19.5011 31.8553C19.8988 32.349 20.1099 32.9474 20.1099 33.7959V46.3655V46.827H20.5715H33.2172H33.6787V46.3655V33.7959C33.6787 32.793 33.907 32.2263 34.2689 31.8732C34.6706 31.4814 35.1636 31.2929 35.649 31.2929C36.1344 31.2929 36.6274 31.4814 37.0291 31.8732C37.3868 32.222 37.6193 32.9025 37.6193 33.7959V46.4841V46.9457H38.0808H50.8481H51.3096V46.4841V32.9658C51.3096 29.8538 50.8224 27.4856 49.77 25.9462L49.7628 25.9355L49.7549 25.9253C48.668 24.512 47.0374 23.4502 44.7065 22.9098L52.3597 6.71933L52.6712 6.06055H51.9425H39.1752Z" fill="#FFF500" stroke="#00913A"/>
        <path d="M90.4874 18.3801H56.9277V43.7566H90.4874V18.3801Z" fill="url(#paint0_linear_4512_15330)"/>
        <path d="M56.1982 28.9339C53.4016 28.341 48.9027 22.6491 53.6448 14.5855C58.3869 6.52199 73.3429 -2.84596 97.5396 3.67603C121.737 10.1981 146.298 14.3484 167.456 0C155.905 28.341 142.165 38.8948 127.695 41.7407C113.104 44.5867 90.9739 44.231 81.8544 42.9266C72.6133 41.6222 59.7245 39.4877 56.1982 28.9339Z" fill="#0E6A39"/>
        <path d="M89.7581 43.1637V43.638C86.5967 43.4009 83.8001 43.2823 81.733 42.9265C73.4646 41.7407 61.9133 39.8434 57.2928 31.4241C57.2928 31.3055 57.1712 31.0684 57.0496 30.8312C57.1712 30.594 57.4144 30.4755 57.536 30.2383C62.3997 24.3092 66.4122 20.5146 69.6953 18.3801C74.4375 29.764 81.3682 37.709 89.7581 43.1637Z" fill="url(#paint1_linear_4512_15330)"/>
        <path d="M69.6951 18.3806C67.9928 19.4478 66.1689 20.9894 64.1019 22.8867C62.0347 24.784 59.846 27.2742 57.4142 30.2388C57.2926 30.4759 57.0494 30.5945 56.9278 30.8317C56.563 30.1202 56.1983 29.1715 56.0766 28.9344C53.28 28.3415 48.7811 22.6495 53.5232 14.586C57.0494 8.65689 66.0473 2.01632 80.1521 1.54199C73.7077 5.09945 68.9656 12.0958 69.6951 18.3806Z" fill="url(#paint2_linear_4512_15330)"/>
        <path d="M105.809 5.8109C101.31 8.77545 97.4189 12.4515 95.473 16.839C86.2319 14.8231 79.4228 13.8744 72.4919 16.839C71.6408 17.1948 70.668 17.669 69.6953 18.3805C69.0873 12.0958 73.7079 5.21799 80.2739 1.54197C85.3809 1.42338 91.0957 2.01629 97.4189 3.67644C100.215 4.38792 103.012 5.09941 105.809 5.8109Z" fill="url(#paint3_linear_4512_15330)"/>
        <path d="M126.966 9.36796V20.7518H112.496C111.644 20.6333 110.793 20.396 109.942 20.1589C104.471 18.9731 99.7283 17.7872 95.5947 16.8386C97.5396 12.4511 101.43 8.77508 105.93 5.81055C112.861 7.47069 119.913 8.77508 126.966 9.36796Z" fill="url(#paint4_linear_4512_15330)"/>
        <path d="M144.84 8.89355C142.772 14.2297 139.854 18.1429 135.964 21.3446C128.79 22.7676 121.251 22.4119 112.496 20.7517C117.36 18.8544 122.953 14.8226 126.966 9.36786C133.045 9.84223 139.003 9.72361 144.84 8.89355Z" fill="url(#paint5_linear_4512_15330)"/>
        <path d="M167.334 0C163.808 4.98043 159.309 10.4352 153.716 13.5183C147.758 17.5501 142.043 20.0403 135.964 21.3447C139.854 18.143 142.772 14.2298 144.84 8.89363C152.621 7.58923 160.16 4.86185 167.334 0Z" fill="url(#paint6_linear_4512_15330)"/>
        <path d="M111.037 43.6377C103.863 43.9934 96.4458 43.9934 90.6091 43.7563C81.8544 38.3015 74.6804 30.238 69.6951 18.3798C70.6678 17.7869 71.6405 17.3125 72.4917 16.8382C79.4225 13.9923 86.3534 14.8223 95.4728 16.8382C97.9051 27.5106 102.403 36.7599 111.037 43.6377Z" fill="url(#paint7_linear_4512_15330)"/>
        <path d="M138.882 37.7091C135.234 39.725 131.343 41.0294 127.574 41.7408C122.71 42.6894 116.874 43.2824 111.037 43.6381C102.403 36.7604 97.9043 27.511 95.4729 16.9573C99.7283 17.7873 104.471 18.9731 109.942 20.159C110.793 20.3961 111.645 20.5147 112.496 20.7519C118.94 29.0525 128.546 35.2188 138.882 37.7091Z" fill="url(#paint8_linear_4512_15330)"/>
        <path d="M153.716 24.6649C148.974 30.7126 143.989 34.863 138.882 37.7089C128.546 35.2187 118.94 29.171 112.496 20.7517C121.129 22.4119 128.79 22.7676 135.964 21.3447C141.678 23.7163 147.636 24.9021 153.716 24.6649Z" fill="url(#paint9_linear_4512_15330)"/>
        <path d="M167.334 0C163.079 10.4352 158.458 18.4987 153.716 24.665C147.636 24.9021 141.8 23.7163 135.964 21.3447C142.043 20.1589 147.758 17.6687 153.594 13.6369C160.525 9.24942 164.295 4.15036 167.334 0Z" fill="url(#paint10_linear_4512_15330)"/>
        <path d="M153.716 13.5181C139.368 23.4789 125.75 23.7161 109.942 20.1586C94.0134 16.6012 82.5838 12.5695 72.4916 16.8384C68.6006 18.4985 63.7369 22.5303 57.4141 30.2381C53.8878 34.507 51.3344 38.0645 46.5922 40.3175H44.6467V31.0682C49.2673 31.0682 52.3072 29.1709 54.9821 27.0364C63.6153 20.2772 66.5335 13.8739 81.2463 13.0437C97.2968 12.2137 123.317 30.831 153.716 13.5181Z" fill="url(#paint11_linear_4512_15330)"/>
        <path d="M44.7685 31.0684C44.7685 31.0684 49.2675 40.6734 45.8628 40.5549C42.2151 40.4363 44.7685 31.0684 44.7685 31.0684Z" fill="#0E6A39"/>
        <path d="M124.777 17.4311C124.777 16.9568 124.777 16.4825 124.899 16.1267C124.899 15.6524 125.02 15.2967 125.02 14.8223C125.02 14.7038 125.02 14.7038 125.02 14.5852C125.02 14.4665 125.02 14.4665 125.02 14.348C125.02 14.2294 125.02 14.1109 125.02 14.1109C125.02 13.9923 125.02 13.8737 125.02 13.8737C125.02 13.3994 125.02 13.0436 125.142 12.8065C125.142 12.5693 125.263 12.4507 125.385 12.4507H125.506C125.506 12.4507 125.628 12.4507 125.75 12.4507C125.872 12.4507 125.872 12.5693 125.993 12.5693C126.236 12.6879 126.357 12.8065 126.479 12.925C126.601 13.0436 126.723 13.1621 126.723 13.2808C126.723 13.2808 126.844 13.3994 126.844 13.5179C126.844 13.6365 126.844 13.6365 126.844 13.7551C126.844 13.8737 126.844 13.8737 126.844 13.9923C126.844 14.1109 126.844 14.2294 126.844 14.348C126.844 14.5852 126.723 14.8223 126.723 15.1781C126.723 15.5338 126.601 16.0082 126.601 16.4825C126.723 16.3639 126.844 16.2453 126.966 16.1267C127.087 16.0082 127.209 15.8896 127.33 15.7709C127.33 15.7709 127.33 15.7709 127.452 15.6524C127.452 15.6524 127.452 15.6524 127.574 15.5338C127.939 15.0595 128.303 14.5852 128.668 14.2294C129.032 13.7551 129.276 13.5179 129.398 13.2808C129.519 13.1621 129.641 13.0436 129.763 12.925C129.884 12.8065 130.005 12.8065 130.127 12.8065H130.249C130.37 12.8065 130.37 12.8065 130.492 12.8065C130.614 12.8065 130.735 12.925 130.735 12.925C130.735 12.925 130.735 12.925 130.856 13.0436C130.856 13.0436 130.856 13.0436 130.978 13.1621C130.978 13.1621 130.978 13.2808 131.1 13.2808V13.3994C131.1 13.5179 131.1 13.6365 130.978 13.6365C130.978 13.7551 130.856 13.8737 130.856 13.8737C130.856 13.9923 130.856 14.1109 130.856 14.2294C130.856 14.348 130.856 14.4665 130.856 14.5852V14.7038V14.8223V16.1267C130.856 16.6011 130.856 16.9568 130.856 17.3126C130.856 17.6683 130.978 18.024 130.978 18.3797C130.978 18.4984 131.1 18.7355 131.1 18.8541C131.1 18.9727 131.222 19.2099 131.222 19.3284C131.222 19.447 131.222 19.447 131.222 19.5656C131.222 19.6841 131.222 19.6841 131.222 19.6841V19.8028H131.1H130.978C130.856 19.8028 130.856 19.8028 130.735 19.8028C130.614 19.8028 130.492 19.6841 130.37 19.6841C130.249 19.6841 130.127 19.6841 130.127 19.5656C130.005 19.5656 130.005 19.5656 129.884 19.447C129.519 19.3284 129.398 19.2099 129.276 18.9727C129.154 18.7355 129.154 18.4984 129.154 18.024C129.154 17.9055 129.154 17.7869 129.154 17.6683C129.154 17.5497 129.154 17.4311 129.154 17.3126C129.154 17.194 129.154 17.194 129.154 17.0753C129.154 16.9568 129.154 16.9568 129.154 16.8382C129.154 16.8382 129.154 16.8382 129.154 16.7196C129.154 16.6011 129.154 16.7196 129.154 16.7196C129.154 16.7196 129.154 16.7196 129.154 16.6011C129.154 16.6011 129.154 16.6011 129.154 16.4825C129.154 16.3639 129.154 16.1267 129.154 16.0082C129.154 15.8896 129.154 15.6524 129.154 15.5338V15.4153V15.2967C129.032 15.4152 129.032 15.5338 128.911 15.5338C128.79 15.6524 128.79 15.6524 128.79 15.7709C128.79 15.7709 128.79 15.7709 128.668 15.8896C128.668 15.8896 128.668 15.8896 128.547 16.0082C128.425 16.1267 128.303 16.3639 128.181 16.4825C128.06 16.7196 127.939 16.8382 127.695 17.194C127.452 17.5497 127.209 17.9055 127.087 18.2612C126.966 18.617 126.844 18.7355 126.844 18.8541V18.9727V19.0913V19.2099V19.3284C126.844 19.3284 126.844 19.3284 126.844 19.447C126.844 19.447 126.844 19.447 126.723 19.447H126.601H126.479H126.357C125.75 19.3284 125.263 19.2099 125.142 19.0913C125.02 18.8541 124.899 18.4984 124.899 17.6683C124.899 17.6683 124.899 17.6683 124.899 17.5497C124.899 17.5497 124.899 17.5497 124.899 17.4311C124.777 17.5497 124.777 17.5497 124.777 17.4311C124.777 17.4311 124.777 17.5497 124.777 17.4311ZM119.305 15.8896C119.427 16.0082 119.427 16.1267 119.549 16.2453C119.671 16.3639 119.791 16.6011 119.913 16.7196C120.035 16.8382 120.035 16.9568 120.156 17.0753C120.278 17.194 120.278 17.3126 120.4 17.3126C120.522 17.5497 120.764 17.6683 120.886 17.9055C121.129 18.1426 121.251 18.2612 121.494 18.4984C121.615 18.617 121.859 18.8541 121.98 18.9727C122.102 19.0913 122.346 19.2099 122.467 19.3284L122.588 19.447H122.467H122.346H122.224C122.102 19.447 121.98 19.447 121.98 19.5656C121.859 19.5656 121.737 19.5656 121.615 19.5656H121.494C121.373 19.5656 121.373 19.5656 121.251 19.5656C121.129 19.5656 121.129 19.447 121.008 19.447C121.008 19.447 121.008 19.447 120.886 19.447H120.764C120.643 19.3284 120.522 19.2099 120.4 19.0913C120.278 18.9727 120.156 18.8541 120.035 18.7355C119.791 18.4984 119.427 18.1426 119.184 17.7869C118.94 17.4311 118.698 17.0753 118.454 16.7196C118.333 16.6011 118.333 16.4825 118.211 16.3639C118.089 16.2453 118.089 16.1267 118.089 16.0082C118.089 16.0082 118.089 16.0082 117.967 15.8896L117.725 18.617C117.725 18.617 117.725 18.617 117.603 18.617H117.481H117.36C117.36 18.617 117.238 18.617 117.116 18.617C116.995 18.617 116.874 18.4984 116.752 18.4984H116.63H116.509C116.265 18.3797 116.023 18.3797 115.901 18.2612C115.779 18.1426 115.779 18.024 115.779 17.7869V17.6683V17.5497V17.4311V17.3126C115.901 16.8382 116.023 16.2453 116.023 15.4153C116.143 14.5852 116.143 13.6365 116.265 12.8065C116.265 12.6879 116.265 12.5693 116.265 12.4507C116.265 12.3321 116.265 12.2135 116.265 12.095C116.265 11.9764 116.265 11.8577 116.387 11.8577C116.387 11.8577 116.509 11.7392 116.509 11.8577H116.63H116.752H116.874C116.995 11.8577 117.116 11.9764 117.238 11.9764C117.36 12.095 117.603 12.095 117.725 12.2135C117.847 12.2135 117.847 12.3321 117.847 12.3321H117.967V12.4507V12.5693L117.847 14.348V14.4665C117.847 14.4665 117.847 14.4665 117.967 14.5852C118.333 14.348 118.698 14.1109 118.94 13.8737C119.184 13.6365 119.427 13.3994 119.671 13.0436C119.791 12.925 119.913 12.8065 119.913 12.6879C120.035 12.5693 120.035 12.4507 120.156 12.3321C120.156 12.3321 120.156 12.3321 120.278 12.3321H120.4H120.522C120.643 12.3321 120.643 12.4507 120.764 12.4507C120.886 12.5693 121.129 12.6879 121.129 12.8065C121.251 12.925 121.251 12.925 121.373 13.0436V13.1621V13.2808V13.3994V13.5179C121.373 13.6365 121.251 13.7551 121.251 13.8737C121.129 13.9923 121.129 14.1109 121.008 14.2294C120.764 14.4665 120.522 14.8223 120.278 15.0595C120.035 15.2967 119.671 15.5338 119.427 15.6524C119.427 15.6524 119.427 15.6524 119.305 15.6524C119.305 15.7709 119.305 15.7709 119.305 15.8896C119.305 15.7709 119.305 15.7709 119.305 15.8896ZM112.375 12.095L112.01 11.9764C111.888 11.9764 111.766 11.9764 111.523 11.8577C111.402 11.8577 111.159 11.8577 111.037 11.7392C110.915 11.7392 110.794 11.7392 110.794 11.7392C110.794 11.7392 110.672 11.7392 110.672 11.8577C110.672 11.9764 110.551 11.9764 110.551 12.095C110.551 12.2135 110.551 12.2135 110.429 12.3321C110.429 12.4507 110.308 12.5693 110.308 12.6879C110.308 12.8065 110.308 12.925 110.308 13.1621V13.2808C110.308 13.2808 110.308 13.2808 110.429 13.3994C110.551 13.3994 110.672 13.3994 110.794 13.3994C110.915 13.3994 111.037 13.3994 111.037 13.3994H111.159C111.523 13.5179 111.766 13.5179 111.888 13.6365C112.01 13.7551 112.132 13.8737 112.253 14.1109C112.253 14.1109 112.253 14.2294 112.375 14.2294C112.375 14.2294 112.375 14.348 112.496 14.348C112.496 14.4665 112.375 14.4665 112.01 14.4665C111.645 14.4665 111.28 14.348 110.915 14.348C110.794 14.348 110.794 14.348 110.672 14.348C110.551 14.348 110.551 14.348 110.429 14.348H110.308C110.308 14.348 110.308 14.348 110.186 14.348C110.186 14.4665 110.186 14.5852 110.186 14.8223C110.186 15.0595 110.186 15.2967 110.186 15.5338V16.0082C110.186 16.0082 110.186 16.1267 110.308 16.1267C110.308 16.1267 110.429 16.2453 110.551 16.2453C110.672 16.2453 110.915 16.2453 111.159 16.2453C111.402 16.2453 111.766 16.2453 112.132 16.2453C112.253 16.2453 112.253 16.2453 112.375 16.2453C112.496 16.2453 112.496 16.2453 112.496 16.2453H112.617C112.861 16.2453 112.983 16.3639 113.104 16.4825C113.226 16.6011 113.347 16.7196 113.347 16.8382C113.347 16.8382 113.347 16.8382 113.347 16.9568C113.347 16.9568 113.347 16.9568 113.347 17.0753C113.347 17.194 113.347 17.194 113.347 17.3126C113.347 17.4311 113.226 17.4311 113.104 17.4311C112.983 17.4311 112.861 17.4311 112.739 17.4311C112.617 17.4311 112.496 17.4311 112.253 17.4311C112.01 17.4311 111.766 17.4311 111.523 17.4311C111.28 17.4311 111.037 17.4311 110.794 17.4311C110.672 17.4311 110.672 17.4311 110.551 17.4311C110.429 17.4311 110.429 17.4311 110.308 17.4311H110.186C109.821 17.3126 109.578 17.3126 109.335 17.194C109.091 17.0753 108.848 16.9568 108.727 16.7196C108.605 16.6011 108.362 16.2453 108.362 15.8896C108.24 15.5338 108.24 15.0595 108.24 14.5852C108.24 14.4665 108.24 14.348 108.24 14.2294C108.24 14.1109 108.24 13.9923 108.24 13.8737C108.24 13.5179 108.362 13.1621 108.484 12.8065C108.605 12.4507 108.727 12.2135 108.848 11.9764C108.848 11.9764 108.848 11.9764 108.848 11.8577L108.727 11.7392L108.605 11.6206C108.605 11.5021 108.484 11.5021 108.484 11.3835C108.484 11.2649 108.362 11.2649 108.362 11.1463C108.362 11.0277 108.24 11.0277 108.24 10.9091C108.24 10.7906 108.24 10.7906 108.24 10.672C108.362 10.5533 108.605 10.5533 109.091 10.5533C109.578 10.5533 110.186 10.672 111.159 10.9091H111.28C111.402 10.9091 111.523 10.9091 111.523 10.9091C111.645 10.9091 111.645 10.9091 111.766 10.9091C111.766 10.9091 111.888 10.9091 111.888 11.0277C111.888 11.0277 112.01 11.1463 112.132 11.1463C112.253 11.2649 112.375 11.3835 112.496 11.5021C112.617 11.6206 112.739 11.7392 112.861 11.8577C112.861 11.9764 112.983 11.9764 112.983 11.9764V12.095C112.617 12.095 112.617 12.095 112.375 12.095ZM104.836 9.1304C105.2 9.24894 105.322 9.36756 105.565 9.48617C105.809 9.6047 105.931 9.84193 106.051 9.96045L106.173 10.0791C106.173 10.0791 106.173 10.1977 106.295 10.1977V10.3162C106.295 10.3162 106.295 10.3162 106.295 10.4348C106.295 10.5533 106.295 10.5533 106.173 10.5533C106.051 10.5533 106.051 10.5533 105.931 10.5533C105.809 10.5533 105.565 10.4348 105.444 10.4348C105.322 10.4348 105.2 10.4348 105.079 10.3162C104.836 10.3162 104.714 10.1977 104.714 10.1977C104.714 10.1977 104.593 10.1977 104.593 10.3162C104.471 10.9091 104.349 11.5021 104.349 11.9764C104.349 12.5693 104.227 13.0436 104.227 13.5179C104.227 13.7551 104.227 13.9923 104.227 14.2294C104.227 14.4665 104.227 14.7038 104.227 14.8223C104.227 14.9409 104.227 15.0595 104.227 15.1781C104.227 15.2967 104.227 15.4153 104.227 15.4153C104.227 15.5338 104.227 15.6524 104.227 15.6524C104.227 15.7709 104.107 15.7709 103.985 15.7709H103.863C103.863 15.7709 103.741 15.7709 103.741 15.6524C103.741 15.6524 103.62 15.6524 103.498 15.5338C103.376 15.5338 103.376 15.4153 103.255 15.4153C103.134 15.4153 103.134 15.2967 103.012 15.2967C102.769 15.1781 102.525 14.9409 102.403 14.8223C102.283 14.7038 102.161 14.4665 102.161 14.2294V14.1109V13.9923C102.161 13.7551 102.161 13.5179 102.161 13.2808C102.161 13.0436 102.161 12.8065 102.161 12.5693C102.161 12.2135 102.161 11.8577 102.283 11.5021C102.283 11.1463 102.283 10.7906 102.403 10.4348C102.403 10.3162 102.403 10.1977 102.403 10.1977C102.403 10.0791 102.403 10.0791 102.403 9.96045C102.403 9.84193 102.403 9.84193 102.403 9.72331L102.283 9.6047C102.283 9.6047 102.161 9.6047 102.039 9.6047C101.918 9.6047 101.918 9.6047 101.796 9.6047H101.674H101.552H101.431C101.188 9.6047 101.066 9.48617 100.945 9.36756C100.823 9.24894 100.701 9.1304 100.701 9.01182C100.701 8.89324 100.701 8.89324 100.701 8.89324V8.77466C100.701 8.65608 100.701 8.65608 100.823 8.5375C100.823 8.5375 100.945 8.41891 101.066 8.41891C101.066 8.41891 101.188 8.41891 101.31 8.41891C101.431 8.41891 101.431 8.41891 101.552 8.41891C102.161 8.41891 102.647 8.5375 103.255 8.65608C103.863 8.77466 104.349 8.89324 104.836 9.01182H104.958L104.836 9.1304ZM92.9198 7.58884C92.9198 7.58884 92.7979 7.58884 92.9198 7.58884C92.7979 7.58884 92.7979 7.58884 92.7979 7.58884H92.6761H92.5552H92.4333H92.3115L92.1901 7.47027L92.0685 7.35168C92.0685 7.2331 92.0685 7.2331 92.0685 7.11452C92.0685 7.11452 92.0685 7.11452 92.0685 6.99593V6.87736V6.75877V6.64019C92.0685 6.64019 92.0685 6.64019 92.0685 6.52161C92.0685 6.52161 92.0685 6.52161 92.0685 6.40302C92.0685 6.28444 92.1901 6.28445 92.3115 6.16587C92.4333 6.16587 92.5552 6.16587 92.6761 6.16587C92.6761 6.16587 92.6761 6.16587 92.7979 6.16587C92.7979 6.16587 92.7979 6.16587 92.9198 6.16587C93.1626 6.16587 93.2844 6.28444 93.5272 6.28444C93.7709 6.28444 93.8927 6.40302 94.1355 6.40302C94.6219 6.52161 94.9866 6.64019 95.473 6.64019C95.9595 6.75877 96.4459 6.87736 96.9324 6.99593H97.0543H97.1752H97.297C97.5398 7.11452 97.7835 7.11451 97.9053 7.2331C98.1481 7.35168 98.2699 7.47027 98.2699 7.58884C98.2699 7.58884 98.2699 7.58884 98.2699 7.70742C98.2699 7.70742 98.2699 7.70742 98.2699 7.82601C98.2699 7.94459 98.2699 7.94459 98.3918 8.06317C98.3918 8.18176 98.3918 8.18176 98.3918 8.30033C98.3918 8.30033 98.3918 8.41891 98.3918 8.5375C98.3918 8.65608 98.3918 8.89324 98.3918 9.01182C98.3918 9.1304 98.3918 9.24894 98.3918 9.36756C98.3918 9.48617 98.3918 9.72331 98.3918 9.84193C98.3918 10.0791 98.3918 10.3162 98.3918 10.672C98.3918 10.9091 98.3918 11.2649 98.3918 11.5021C98.3918 11.6206 98.3918 11.7392 98.3918 11.9764C98.3918 12.095 98.3918 12.3321 98.3918 12.4507C98.3918 12.6879 98.3918 12.925 98.3918 13.1621C98.3918 13.3994 98.3918 13.6365 98.5127 13.8737V14.1109C98.5127 14.2294 98.5127 14.2294 98.5127 14.2294H98.3918H98.2699C98.2699 14.2294 98.1481 14.2294 98.0263 14.1109C97.9053 14.1109 97.7835 13.9923 97.7835 13.9923C97.6616 13.8737 97.5398 13.8737 97.4189 13.7551C97.297 13.6365 97.1752 13.6365 97.1752 13.5179C96.9324 13.3994 96.8106 13.1621 96.6887 12.925C96.6887 12.6879 96.5678 12.3321 96.5678 11.8577V11.2649C96.5678 11.2649 96.5678 11.0277 96.5678 10.7906C96.5678 10.5533 96.6887 10.1977 96.6887 9.84193C96.6887 9.6047 96.6887 9.36756 96.8106 9.01182C96.8106 8.65608 96.8106 8.41891 96.8106 8.06317C96.5678 8.06317 96.3241 7.94459 96.2023 7.94459C95.9595 7.94459 95.8376 7.82601 95.5949 7.82601C95.473 7.82601 95.3512 7.82601 95.3512 7.82601C95.2302 7.82601 95.2302 7.82601 95.1084 7.82601C95.1084 7.94459 95.1084 7.94459 95.1084 8.18176C95.1084 8.30033 95.1084 8.5375 95.1084 8.65608V10.1977C95.1084 10.3162 95.1084 10.4348 95.1084 10.5533C95.1084 10.672 95.1084 10.7906 95.1084 11.0277C95.1084 11.3835 95.1084 11.7392 95.1084 11.9764C95.1084 12.3321 94.9866 12.5693 94.9866 12.8065C94.9866 12.925 94.8647 13.1621 94.8647 13.1621C94.7438 13.2808 94.6219 13.2808 94.5001 13.2808H94.3792C94.2573 13.2808 94.2573 13.2808 94.1355 13.1621C94.0136 13.0436 93.8927 13.0436 93.7709 12.925C93.4063 12.5693 93.1626 12.4507 92.9198 12.2135C92.7979 12.095 92.6761 11.9764 92.6761 11.8577C92.6761 11.7392 92.6761 11.7392 92.7979 11.6206C92.9198 11.5021 92.9198 11.3835 93.0416 11.2649C93.0416 11.1463 93.1626 11.1463 93.1626 11.0277C93.1626 10.9091 93.2844 10.9091 93.2844 10.7906C93.2844 10.5533 93.4063 10.1977 93.4063 9.84193C93.4063 9.36756 93.5272 8.89325 93.5272 8.30033C93.5272 8.30033 93.5272 8.18176 93.5272 8.06317C93.5272 7.94459 93.5272 7.94459 93.5272 7.82601V7.70742C92.9198 7.58884 92.9198 7.58884 92.9198 7.58884ZM86.232 8.65608C86.232 8.77466 86.232 8.77466 86.232 8.65608C86.232 8.77466 86.3536 8.77466 86.3536 8.77466L87.3263 8.89324C87.3263 8.77466 87.2047 8.5375 87.2047 8.18176C87.0832 7.82601 87.0832 7.47027 86.9616 7.11452C86.8399 7.2331 86.7184 7.35168 86.7184 7.47027C86.5968 7.58884 86.5968 7.82601 86.4752 7.94459C86.4752 8.06317 86.3536 8.18176 86.3536 8.30033C86.232 8.5375 86.232 8.5375 86.232 8.65608ZM83.6786 9.84193L83.5569 9.72331C83.4354 9.72331 83.4354 9.6047 83.3138 9.48617C83.3138 9.36756 83.1922 9.36756 83.1922 9.24894C83.0706 9.13041 83.0706 9.01182 83.0706 8.89324C83.1922 8.77466 83.3138 8.77466 83.4354 8.77466C83.5569 8.77466 83.6786 8.77466 83.8002 8.77466C83.9217 8.77466 84.0433 8.77466 84.165 8.65608C84.2865 8.65608 84.2865 8.5375 84.4081 8.30033C84.6513 7.58885 84.8945 7.11451 85.0161 6.64019C85.1377 6.28445 85.3808 5.9287 85.5025 5.81012C85.6241 5.69153 85.6241 5.69153 85.7456 5.69153C85.8672 5.69153 85.8672 5.69153 85.9889 5.69153H86.1104H86.232H86.3536L86.1104 5.09863C86.1104 5.09863 86.1104 5.09863 86.232 5.09863C86.232 5.09863 86.3536 5.09863 86.4752 5.09863H86.5968H86.7184C87.0832 5.21721 87.448 5.33579 87.6911 5.57296C87.9343 5.81012 88.1775 6.16587 88.4207 6.75877C88.6639 7.2331 88.7855 8.06317 89.0287 8.89324C89.2719 9.84193 89.515 11.0277 89.8798 12.4507C89.8798 12.4507 89.8798 12.4507 89.7583 12.4507C89.6366 12.4507 89.6366 12.4507 89.515 12.4507H89.3934C89.2719 12.4507 89.1502 12.4507 89.0287 12.3321C88.9071 12.3321 88.7855 12.3321 88.6639 12.2135C88.5423 12.2135 88.2991 12.095 88.1775 12.095C88.0559 12.095 87.9343 11.9764 87.8127 11.9764C87.8127 11.9764 87.6911 11.9764 87.6911 11.8577C87.6911 11.8577 87.6911 11.8577 87.5695 11.8577C87.5695 11.7392 87.5695 11.7392 87.5695 11.6206C87.5695 11.5021 87.5695 11.5021 87.5695 11.3835C87.5695 11.2649 87.5695 11.1463 87.5695 11.1463C87.5695 11.0277 87.5695 11.0277 87.5695 10.9091C87.5695 10.7906 87.5695 10.672 87.448 10.4348C87.448 10.3162 87.448 10.0791 87.3263 9.96045C87.3263 9.96045 87.3263 9.96045 87.3263 9.84193C87.3263 9.84193 87.3263 9.84193 87.2047 9.84193H85.9889C85.8672 9.84193 85.7456 9.84193 85.7456 9.84193C85.7456 9.84193 85.6241 9.84193 85.6241 9.96045C85.7456 10.3162 85.7456 10.672 85.7456 10.9091C85.7456 11.1463 85.7456 11.5021 85.6241 11.7392C85.6241 11.7392 85.6241 11.8577 85.5025 11.8577C85.3808 11.8577 85.3808 11.8577 85.2593 11.8577H85.1377C85.0161 11.8577 84.8945 11.8577 84.7729 11.7392C84.6513 11.7392 84.5298 11.6206 84.4081 11.6206C84.2865 11.6206 84.165 11.5021 84.165 11.5021C84.0433 11.5021 83.9217 11.3835 83.9217 11.3835C83.9217 11.3835 83.9217 11.3835 83.8002 11.2649C83.8002 11.2649 83.8002 11.2649 83.8002 11.1463V11.0277V10.9091V10.7906V10.672C83.8002 10.5533 83.8002 10.4348 83.8002 10.3162C83.5569 10.0791 83.6786 9.96045 83.6786 9.84193Z" fill="#FEFEFE"/>
        <path d="M74.802 19.4602H74.3405V19.9217V37.5905C74.3405 40.5398 75.2279 42.9194 77.1549 44.7986C79.0842 46.6801 81.6422 47.5385 84.6511 47.5385C88.0424 47.5385 90.7285 46.4313 92.6539 44.3035L92.6613 44.2952L92.6687 44.2865C94.1973 42.4226 94.9616 40.3024 94.9616 37.709C94.9616 36.0688 94.4437 34.439 93.4247 32.9465C92.7019 31.8402 91.8089 30.9719 90.8109 30.3468C91.3006 30.0035 91.7342 29.5573 92.1017 28.9301C92.6364 28.018 92.8948 26.986 92.8948 25.7322C92.8948 23.8354 92.2388 22.3918 90.9045 21.3455C89.4514 20.0633 87.381 19.4602 84.6511 19.4602H74.802ZM82.4376 26.1938H83.6784C84.251 26.1938 84.7527 26.3093 85.0075 26.4749C85.2669 26.6436 85.4055 26.8653 85.4055 27.1553C85.4055 27.3892 85.3303 27.6432 85.1472 27.9232C84.9424 28.1122 84.705 28.2353 84.5295 28.2353H84.4563L84.3868 28.2579L83.6572 28.495L83.3646 28.5902L83.3399 28.897L82.8535 34.9446L82.7887 35.751L83.5159 35.3965C83.7561 35.2793 83.975 35.1728 84.3074 35.0648C84.5942 34.9716 84.8906 34.9688 85.1375 34.9688C85.7564 34.9688 86.2457 35.1655 86.6391 35.5493C87.0113 35.9122 87.2293 36.4889 87.2293 37.2347C87.2293 37.9587 87.0241 38.4261 86.6391 38.8015C86.253 39.1781 85.7678 39.382 85.0159 39.382C84.2992 39.382 83.702 39.0853 83.3056 38.6021L83.2603 38.5468L83.2004 38.5079C82.6649 38.1598 82.4376 37.5286 82.4376 36.6418V26.1938ZM54.1312 26.6937H53.6697V27.1553V41.0293C53.6697 42.9148 54.3176 44.5992 55.7804 45.7708C57.0948 46.9209 58.6669 47.4199 60.5757 47.4199C61.2343 47.4199 62.0215 47.2929 62.6889 47.0326C63.1219 46.8637 63.6218 46.6343 64.1047 46.3419L64.1304 46.5427L64.182 46.9456H64.5882H72.4918H72.9533V46.484V27.1553V26.6937H72.4918H64.953H64.4915V27.1553V38.8949C64.4915 39.2297 64.3139 39.5504 64.0934 39.6937C63.9059 39.8157 63.7478 39.9177 63.5956 39.9919C63.4446 40.0655 63.3347 40.0935 63.2507 40.0935C62.9743 40.0935 62.7367 40.0019 62.6002 39.8688C62.2856 39.562 62.1315 39.3179 62.1315 38.8949V27.1553V26.6937H61.67H54.1312ZM96.5668 26.6937H96.1053V27.1553V41.0293C96.1053 42.9148 96.7533 44.5992 98.2164 45.7708C99.5308 46.9209 101.103 47.4199 103.012 47.4199C103.67 47.4199 104.457 47.2929 105.125 47.0326C105.558 46.8637 106.058 46.6343 106.541 46.3419L106.567 46.5427L106.618 46.9456H107.024H114.928H115.389V46.484V27.1553V26.6937H114.928H107.389H106.927V27.1553V38.8949C106.927 39.2297 106.75 39.5504 106.53 39.6937C106.342 39.8157 106.183 39.9177 106.032 39.9919C105.881 40.0655 105.771 40.0935 105.687 40.0935C105.41 40.0935 105.173 40.0019 105.036 39.8688C104.721 39.562 104.567 39.3179 104.567 38.8949V27.1553V26.6937H104.106H96.5668ZM117.141 46.484V46.9456H117.603H125.142H125.603V46.484V40.3768C125.718 39.9422 125.808 39.7632 126.001 39.6376L125.75 39.2506L126.001 39.6376C126.343 39.4157 126.493 39.3564 126.722 39.3564C126.999 39.3564 127.236 39.4479 127.373 39.581C127.534 39.7384 127.72 40.0963 127.72 40.4364V46.3655V46.827H128.181H135.72H136.182V46.3655V41.0293C136.182 40.0143 136.151 39.1361 136.073 38.4011C135.995 37.6714 135.867 37.0535 135.656 36.5747L135.651 36.562L135.644 36.5498C135.149 35.5817 134.328 34.9607 133.099 34.5689L136.742 27.2421L137.073 26.5751H136.328H128.546H128.25L128.126 26.8453L125.603 32.3816V27.0366V26.5751H125.142H117.603H117.141V27.0366V27.1553V46.484ZM151.187 46.3655V46.827H151.649H159.187H159.649V46.3655V36.7603C159.649 33.7922 158.628 31.3007 156.47 29.1965C154.313 27.0928 151.764 26.1008 148.731 26.1008C145.698 26.1008 143.148 27.0928 140.991 29.1965C138.834 31.3007 137.812 33.7922 137.812 36.7603C137.812 39.7286 138.834 42.22 140.991 44.3243C143.148 46.428 145.698 47.4199 148.731 47.4199H149.09L149.179 47.0715L151.187 39.1183V46.3655ZM151.187 36.8789V38.8601L150.441 38.4835C150.073 38.9322 149.501 39.1448 148.731 39.1448C148.107 39.1448 147.498 38.9448 146.986 38.4459L146.968 38.428L146.947 38.4124C146.488 38.0537 146.274 37.5016 146.274 36.7603C146.274 36.0191 146.488 35.467 146.947 35.1084L146.968 35.0927L146.986 35.0749C147.504 34.5692 147.995 34.3759 148.731 34.3759C149.466 34.3759 149.957 34.5692 150.475 35.0749L150.494 35.0927L150.514 35.1084C150.967 35.4618 151.187 36.0076 151.187 36.8789Z" fill="#FFF500" stroke="#00913A"/>
    </g>
    <defs>
        <linearGradient id="paint0_linear_4512_15330" x1="61.068" y1="22.9679" x2="87.1633" y2="40.3933" gradientUnits="userSpaceOnUse">
            <stop stop-color="#0E6A39"/>
            <stop offset="1" stop-color="#009E43"/>
        </linearGradient>
        <linearGradient id="paint1_linear_4512_15330" x1="65.0497" y1="27.2278" x2="89.1935" y2="40.9795" gradientUnits="userSpaceOnUse">
            <stop stop-color="#0E6A39"/>
            <stop offset="1" stop-color="#009E43"/>
        </linearGradient>
        <linearGradient id="paint2_linear_4512_15330" x1="78.6464" y1="4.06435" x2="58.7506" y2="19.9048" gradientUnits="userSpaceOnUse">
            <stop stop-color="#077E42"/>
            <stop offset="1" stop-color="#21A73F"/>
        </linearGradient>
        <linearGradient id="paint3_linear_4512_15330" x1="105.305" y1="4.39813" x2="69.5188" y2="14.7556" gradientUnits="userSpaceOnUse">
            <stop stop-color="#077E42"/>
            <stop offset="1" stop-color="#21A73F"/>
        </linearGradient>
        <linearGradient id="paint4_linear_4512_15330" x1="127.903" y1="11.5218" x2="94.656" y2="16.8333" gradientUnits="userSpaceOnUse">
            <stop stop-color="#077E42"/>
            <stop offset="1" stop-color="#21A73F"/>
        </linearGradient>
        <linearGradient id="paint5_linear_4512_15330" x1="144.874" y1="11.0935" x2="114.886" y2="21.1038" gradientUnits="userSpaceOnUse">
            <stop stop-color="#077E42"/>
            <stop offset="1" stop-color="#21A73F"/>
        </linearGradient>
        <linearGradient id="paint6_linear_4512_15330" x1="167.559" y1="-0.783352" x2="137.454" y2="19.9835" gradientUnits="userSpaceOnUse">
            <stop stop-color="#077E42"/>
            <stop offset="1" stop-color="#21A73F"/>
        </linearGradient>
        <linearGradient id="paint7_linear_4512_15330" x1="77.2799" y1="16.4946" x2="103.832" y2="41.9906" gradientUnits="userSpaceOnUse">
            <stop stop-color="#0E6A39"/>
            <stop offset="1" stop-color="#009E43"/>
        </linearGradient>
        <linearGradient id="paint8_linear_4512_15330" x1="94.9837" y1="21.5788" x2="128.165" y2="43.6061" gradientUnits="userSpaceOnUse">
            <stop stop-color="#0E6A39"/>
            <stop offset="1" stop-color="#009E43"/>
        </linearGradient>
        <linearGradient id="paint9_linear_4512_15330" x1="112.93" y1="24.3364" x2="148.544" y2="31.9992" gradientUnits="userSpaceOnUse">
            <stop stop-color="#0E6A39"/>
            <stop offset="1" stop-color="#009E43"/>
        </linearGradient>
        <linearGradient id="paint10_linear_4512_15330" x1="139.689" y1="24.0423" x2="171.046" y2="5.46749" gradientUnits="userSpaceOnUse">
            <stop stop-color="#0E6A39"/>
            <stop offset="1" stop-color="#009E43"/>
        </linearGradient>
        <linearGradient id="paint11_linear_4512_15330" x1="98.5347" y1="24.9737" x2="94.7454" y2="13.3236" gradientUnits="userSpaceOnUse">
            <stop stop-color="#0E6A39"/>
            <stop offset="1" stop-color="#009846"/>
        </linearGradient>
        <clipPath id="clip0_4512_15330">
            <rect width="168" height="48" fill="white"/>
        </clipPath>
    </defs>
</svg>
